M48
;DRILL file {KiCad 4.0.7-e2-6376~60~ubuntu17.10.1} date Thu Nov 23 13:20:31 2017
;FORMAT={3:3/ absolute / metric / keep zeros}
FMAT,2
METRIC,TZ
T1C0.400
T2C0.800
T3C1.000
%
G90
G05
M71
T1
X196214Y-108838
T2
X167132Y-099568
X167132Y-101568
X167132Y-103568
X167132Y-105568
X167132Y-107568
X167132Y-109568
X167132Y-111568
T3
X167640Y-095504
X170180Y-095504
X172720Y-095504
X172720Y-100076
X172720Y-102616
X172720Y-105156
X172720Y-107696
X174244Y-114046
X175260Y-095504
X176784Y-114046
X177800Y-095504
X179324Y-114046
X181864Y-114046
X183642Y-095504
X184404Y-114046
X186182Y-095504
X186944Y-114046
T0
M30
