M48
;DRILL file {KiCad 4.0.7-e2-6376~60~ubuntu17.10.1} date Fri Nov 24 11:26:33 2017
;FORMAT={-:-/ absolute / metric / decimal}
FMAT,2
METRIC,TZ
T1C1.000
T2C1.100
%
G90
G05
M71
T1
X183.642Y-95.504
X186.182Y-95.504
T2
X167.132Y-99.568
X167.132Y-101.568
X167.132Y-103.568
X167.132Y-105.568
X167.132Y-107.568
X167.132Y-109.568
X167.132Y-111.568
X167.64Y-95.504
X170.18Y-95.504
X172.72Y-95.504
X172.72Y-100.076
X172.72Y-102.616
X172.72Y-105.156
X172.72Y-107.696
X174.244Y-114.046
X175.26Y-95.504
X176.784Y-114.046
X177.8Y-95.504
X179.324Y-114.046
X181.864Y-114.046
X184.404Y-114.046
X186.944Y-114.046
X196.216Y-108.838
T0
M30
