<?xml version="1.0" standalone="no"?>
<!DOCTYPE svg PUBLIC "-//W3C//DTD SVG 1.1//EN"
"http://www.w3.org/Graphics/SVG/1.1/DTD/svg11.dtd">
<svg width="4799" height="3459" viewBox="0 0 4799 3459" version="1.1"
xmlns="http://www.w3.org/2000/svg"
xmlns:xlink="http://www.w3.org/1999/xlink">
<g fill-rule="evenodd"><path d="M 2606.66,2639.67 L 2606.2,2639.56 L 2602.81,2638.53 L 2599.41,2636.71 L 2596.43,2634.27 L 2593.98,2631.28 L 2592.16,2627.88 L 2591.04,2624.19 L 2590.66,2620.35 L 2590.66,2431.39 L 2591.04,2427.55 L 2592.16,2423.86 L 2593.98,2420.46 L 2596.43,2417.47 L 2599.41,2415.03 L 2602.81,2413.21 L 2606.5,2412.09 L 2610.35,2411.71 L 2668.6,2411.71 L 2672.44,2412.09 L 2676.13,2413.21 L 2679.54,2415.03 L 2682.52,2417.47 L 2684.97,2420.46 L 2686.79,2423.86 L 2687.91,2427.55 L 2688.29,2431.39 L 2688.29,2620.35 L 2687.91,2624.19 L 2686.79,2627.88 L 2684.97,2631.28 L 2682.52,2634.27 L 2679.54,2636.71 L 2676.13,2638.53 L 2672.44,2639.65 L 2668.6,2640.03 L 2610.35,2640.03 L 2606.66,2639.67 z " style="fill-opacity:1.000000;fill:rgb(103,198,105);stroke:rgb(0,0,0);stroke-width:2"/></g>
<g fill-rule="evenodd"><path d="M 2690.65,2927.4 L 2690.65,2738.45 L 2691.03,2734.61 L 2692.15,2730.91 L 2693.97,2727.51 L 2696.42,2724.53 L 2699.4,2722.08 L 2702.8,2720.26 L 2706.49,2719.14 L 2710.33,2718.76 L 2768.59,2718.76 L 2772.43,2719.14 L 2776.12,2720.26 L 2779.53,2722.08 L 2782.51,2724.53 L 2784.96,2727.51 L 2786.77,2730.91 L 2787.89,2734.61 L 2788.27,2738.45 L 2788.27,2927.4 L 2787.89,2931.24 L 2786.77,2934.93 L 2784.96,2938.34 L 2782.51,2941.32 L 2779.53,2943.77 L 2776.12,2945.58 L 2772.43,2946.7 L 2768.59,2947.08 L 2710.33,2947.08 L 2706.49,2946.7 L 2702.8,2945.58 L 2699.4,2943.77 L 2696.42,2941.32 L 2693.97,2938.34 L 2692.15,2934.93 L 2691.03,2931.24 L 2690.65,2927.4 z " style="fill-opacity:1.000000;fill:rgb(115,81,255);stroke:rgb(0,0,0);stroke-width:2"/></g>
<g fill-rule="evenodd"><path d="M 2706.65,2639.67 L 2706.19,2639.56 L 2702.8,2638.53 L 2699.4,2636.71 L 2696.42,2634.27 L 2693.97,2631.28 L 2692.15,2627.88 L 2691.03,2624.19 L 2690.65,2620.35 L 2690.65,2431.39 L 2691.03,2427.55 L 2692.15,2423.86 L 2693.97,2420.46 L 2696.42,2417.47 L 2699.4,2415.03 L 2702.8,2413.21 L 2706.49,2412.09 L 2710.33,2411.71 L 2768.59,2411.71 L 2772.43,2412.09 L 2776.12,2413.21 L 2779.53,2415.03 L 2782.51,2417.47 L 2784.96,2420.46 L 2786.77,2423.86 L 2787.89,2427.55 L 2788.27,2431.39 L 2788.27,2620.35 L 2787.89,2624.19 L 2786.77,2627.88 L 2784.96,2631.28 L 2782.51,2634.27 L 2779.53,2636.71 L 2776.12,2638.53 L 2772.43,2639.65 L 2768.59,2640.03 L 2710.33,2640.03 L 2706.65,2639.67 z " style="fill-opacity:1.000000;fill:rgb(74,236,41);stroke:rgb(0,0,0);stroke-width:2"/></g>
<g fill-rule="evenodd"><path d="M 1040.59,1028.71 L 1040.59,831.092 L 1040.97,827.25 L 1042.09,823.558 L 1043.91,820.157 L 1046.35,817.173 L 1049.34,814.725 L 1052.74,812.908 L 1056.43,811.788 L 1060.27,811.41 L 1139,811.41 L 1142.84,811.788 L 1146.54,812.908 L 1149.94,814.725 L 1152.92,817.173 L 1155.37,820.157 L 1157.19,823.558 L 1158.31,827.25 L 1158.69,831.092 L 1158.69,1028.71 L 1158.31,1032.55 L 1157.19,1036.24 L 1155.37,1039.64 L 1152.92,1042.62 L 1149.94,1045.07 L 1146.54,1046.89 L 1142.84,1048.01 L 1139,1048.39 L 1060.27,1048.39 L 1056.43,1048.01 L 1052.74,1046.89 L 1049.34,1045.07 L 1046.35,1042.62 L 1043.91,1039.64 L 1042.09,1036.24 L 1040.97,1032.55 L 1040.59,1028.71 z " style="fill-opacity:1.000000;fill:rgb(205,186,171);stroke:rgb(0,0,0);stroke-width:2"/></g>
<g fill-rule="evenodd"><path d="M 1957.86,826.062 L 1958.6,831.07 L 1958.6,831.092 L 1958.6,1028.71 L 1958.6,1028.73 L 1957.86,1033.73 L 1957.1,1036.24 L 1955.28,1039.64 L 1952.84,1042.62 L 1949.85,1045.07 L 1946.45,1046.89 L 1942.76,1048.01 L 1938.92,1048.39 L 1860.19,1048.39 L 1856.35,1048.01 L 1852.65,1046.89 L 1849.25,1045.07 L 1846.27,1042.62 L 1843.82,1039.64 L 1842,1036.24 L 1840.88,1032.55 L 1840.51,1028.71 L 1840.51,831.092 L 1840.88,827.25 L 1842,823.558 L 1843.82,820.157 L 1846.27,817.173 L 1849.25,814.725 L 1852.65,812.908 L 1856.35,811.788 L 1860.19,811.41 L 1938.92,811.41 L 1942.76,811.788 L 1946.45,812.908 L 1949.85,814.725 L 1952.84,817.173 L 1955.28,820.157 L 1957.1,823.558 L 1957.86,826.062 z " style="fill-opacity:1.000000;fill:rgb(242,251,227);stroke:rgb(0,0,0);stroke-width:2"/></g>
<g fill-rule="evenodd"><path d="M 2806.64,2639.67 L 2806.18,2639.56 L 2802.79,2638.53 L 2799.39,2636.71 L 2796.41,2634.27 L 2793.96,2631.28 L 2792.14,2627.88 L 2791.02,2624.19 L 2790.64,2620.35 L 2790.64,2431.39 L 2791.02,2427.55 L 2792.14,2423.86 L 2793.57,2421.18 L 2633.96,2261.57 L 1738.62,2261.57 L 1738.62,2342.27 L 1738.24,2346.11 L 1737.12,2349.8 L 1735.31,2353.2 L 1732.86,2356.18 L 1729.88,2358.63 L 1726.47,2360.45 L 1722.78,2361.57 L 1718.94,2361.95 L 1640.21,2361.95 L 1636.37,2361.57 L 1632.68,2360.45 L 1629.28,2358.63 L 1626.29,2356.18 L 1623.84,2353.2 L 1622.03,2349.8 L 1620.91,2346.11 L 1620.53,2342.27 L 1620.53,2094.27 L 1620.91,2090.42 L 1622.03,2086.73 L 1623.84,2083.33 L 1626.29,2080.35 L 1629.28,2077.9 L 1632.68,2076.08 L 1636.37,2074.96 L 1640.21,2074.58 L 1718.94,2074.58 L 1722.78,2074.96 L 1726.47,2076.08 L 1729.88,2077.9 L 1732.86,2080.35 L 1735.31,2083.33 L 1737.12,2086.73 L 1738.24,2090.42 L 1738.62,2094.27 L 1738.62,2174.96 L 2651.89,2174.96 L 2653.81,2175.06 L 2658.42,2175.51 L 2662.21,2176.26 L 2666.64,2177.61 L 2670.21,2179.09 L 2674.29,2181.27 L 2677.49,2183.41 L 2681.07,2186.35 L 2682.51,2187.65 L 2870.07,2375.21 L 2871.36,2376.64 L 2874.3,2380.21 L 2876.45,2383.43 L 2878.63,2387.51 L 2880.1,2391.07 L 2881.45,2395.5 L 2882.2,2399.29 L 2882.66,2403.9 L 2882.75,2405.83 L 2882.75,2417.79 L 2884.95,2420.46 L 2886.76,2423.86 L 2887.88,2427.55 L 2888.26,2431.39 L 2888.26,2458.95 L 3525.68,2458.95 L 3525.68,2451.08 L 3526.06,2447.24 L 3527.18,2443.54 L 3529,2440.14 L 3531.44,2437.16 L 3534.43,2434.71 L 3537.83,2432.89 L 3541.52,2431.77 L 3545.36,2431.4 L 3667.39,2431.4 L 3671.23,2431.77 L 3674.92,2432.89 L 3678.33,2434.71 L 3681.31,2437.16 L 3683.76,2440.14 L 3685.58,2443.54 L 3686.7,2447.24 L 3687.08,2451.08 L 3687.08,2458.95 L 4151.6,2458.95 L 4151.6,2451.08 L 4151.98,2447.24 L 4153.1,2443.54 L 4154.92,2440.14 L 4157.36,2437.16 L 4160.35,2434.71 L 4163.75,2432.89 L 4167.44,2431.77 L 4171.28,2431.4 L 4293.31,2431.4 L 4297.15,2431.77 L 4300.84,2432.89 L 4304.25,2434.71 L 4307.23,2437.16 L 4309.68,2440.14 L 4311.49,2443.54 L 4311.86,2444.74 L 4312.99,2451.06 L 4312.99,2451.08 L 4312.99,2553.43 L 4312.99,2553.43 L 4310.77,2562.31 L 4309.68,2564.36 L 4307.23,2567.34 L 4304.25,2569.79 L 4300.84,2571.61 L 4297.15,2572.73 L 4293.31,2573.11 L 4171.28,2573.11 L 4167.44,2572.73 L 4163.75,2571.61 L 4160.35,2569.79 L 4157.36,2567.34 L 4154.92,2564.36 L 4153.1,2560.96 L 4151.98,2557.27 L 4151.6,2553.43 L 4151.6,2545.55 L 3687.08,2545.55 L 3687.08,2553.43 L 3686.7,2557.27 L 3685.58,2560.96 L 3683.76,2564.36 L 3681.31,2567.34 L 3678.33,2569.79 L 3674.92,2571.61 L 3671.23,2572.73 L 3667.39,2573.11 L 3545.36,2573.11 L 3541.52,2572.73 L 3537.83,2571.61 L 3534.43,2569.79 L 3531.44,2567.34 L 3529,2564.36 L 3527.18,2560.96 L 3526.06,2557.27 L 3525.68,2553.43 L 3525.68,2545.55 L 2888.26,2545.55 L 2888.26,2620.35 L 2887.88,2624.19 L 2886.76,2627.88 L 2884.95,2631.28 L 2882.5,2634.27 L 2879.51,2636.71 L 2876.11,2638.53 L 2872.42,2639.65 L 2868.58,2640.03 L 2810.32,2640.03 L 2806.64,2639.67 z " style="fill-opacity:1.000000;fill:rgb(70,124,194);stroke:rgb(0,0,0);stroke-width:2"/></g>
<g fill-rule="evenodd"><path d="M 1415.64,2569.15 L 1414.06,2568.96 L 1409.48,2568.28 L 1405.75,2567.54 L 1401.25,2566.41 L 1400.34,2566.16 L 1398.55,2565.42 L 1397.72,2564.95 L 1393.74,2562.56 L 1390.58,2560.45 L 1386.86,2557.69 L 1385.61,2556.71 L 1385.36,2556.49 L 1249,2420.12 L 1248.77,2419.87 L 1247.79,2418.62 L 1245.03,2414.9 L 1242.93,2411.75 L 1240.54,2407.77 L 1240.07,2406.94 L 1239.32,2405.14 L 1239.07,2404.22 L 1237.95,2399.73 L 1237.21,2396 L 1236.53,2391.42 L 1236.33,2389.87 L 1236.32,2389.51 L 1236.32,2361.54 L 1232.72,2360.45 L 1229.32,2358.63 L 1226.33,2356.18 L 1223.89,2353.2 L 1222.07,2349.8 L 1220.95,2346.11 L 1220.57,2342.27 L 1220.57,2094.27 L 1220.95,2090.42 L 1222.07,2086.73 L 1223.89,2083.33 L 1226.33,2080.35 L 1229.32,2077.9 L 1232.72,2076.08 L 1236.41,2074.96 L 1240.25,2074.58 L 1318.98,2074.58 L 1322.82,2074.96 L 1326.52,2076.08 L 1329.92,2077.9 L 1332.9,2080.35 L 1335.35,2083.33 L 1337.17,2086.73 L 1338.29,2090.42 L 1338.67,2094.27 L 1338.67,2342.27 L 1338.29,2346.11 L 1337.17,2349.8 L 1335.35,2353.2 L 1332.9,2356.18 L 1329.92,2358.63 L 1326.52,2360.45 L 1322.92,2361.54 L 1322.92,2371.57 L 1433.91,2482.57 L 2390.68,2482.57 L 2390.68,2431.39 L 2391.06,2427.55 L 2392.18,2423.86 L 2394,2420.46 L 2396.45,2417.47 L 2399.43,2415.03 L 2402.83,2413.21 L 2404.03,2412.85 L 2410.35,2411.71 L 2410.37,2411.71 L 2468.62,2411.71 L 2468.63,2411.71 L 2478,2414.2 L 2479.56,2415.03 L 2482.54,2417.47 L 2484.99,2420.46 L 2486.81,2423.86 L 2487.93,2427.55 L 2488.31,2431.39 L 2488.31,2620.35 L 2487.93,2624.19 L 2486.81,2627.88 L 2484.99,2631.28 L 2482.54,2634.27 L 2479.56,2636.71 L 2476.16,2638.53 L 2472.46,2639.65 L 2468.62,2640.03 L 2410.37,2640.03 L 2406.53,2639.65 L 2402.83,2638.53 L 2399.43,2636.71 L 2396.45,2634.27 L 2394,2631.28 L 2392.18,2627.88 L 2391.06,2624.19 L 2390.68,2620.35 L 2390.68,2569.17 L 1415.98,2569.17 L 1415.64,2569.15 z " style="fill-opacity:1.000000;fill:rgb(84,248,27);stroke:rgb(0,0,0);stroke-width:2"/></g>
<g fill-rule="evenodd"><path d="M 2048.96,1805.9 L 2048.22,1804.1 L 2047.96,1803.19 L 2046.84,1798.69 L 2046.1,1794.96 L 2045.42,1790.38 L 2045.22,1788.82 L 2045.21,1788.47 L 2045.21,646.527 L 1862.88,464.199 L 1506.51,464.199 L 1358.66,612.039 L 1358.66,768.104 L 1358.28,771.944 L 1357.16,775.635 L 1355.35,779.037 L 1352.9,782.021 L 1349.92,784.469 L 1346.51,786.286 L 1342.82,787.406 L 1338.98,787.786 L 1322.92,787.786 L 1322.92,1677.39 L 1326.52,1678.49 L 1329.92,1680.3 L 1332.9,1682.75 L 1335.35,1685.73 L 1337.17,1689.14 L 1338.29,1692.83 L 1338.67,1696.67 L 1338.67,1944.67 L 1338.29,1948.51 L 1337.17,1952.2 L 1335.35,1955.6 L 1332.9,1958.59 L 1329.92,1961.04 L 1326.52,1962.85 L 1322.82,1963.97 L 1318.98,1964.35 L 1240.25,1964.35 L 1236.41,1963.97 L 1232.72,1962.85 L 1229.32,1961.04 L 1226.33,1958.59 L 1223.89,1955.6 L 1222.07,1952.2 L 1220.95,1948.51 L 1220.57,1944.67 L 1220.57,1696.67 L 1220.95,1692.83 L 1222.07,1689.14 L 1223.84,1685.82 L 1224.04,1685.55 L 1226.33,1682.75 L 1229.32,1680.3 L 1232.72,1678.49 L 1236.32,1677.39 L 1236.32,689.295 L 1236.35,688.527 L 1236.49,687.381 L 1237.14,682.791 L 1237.87,679.038 L 1238.5,676.456 L 1238.82,675.016 L 1238.97,674.532 L 1239.68,672.568 L 1240.57,670.745 L 1240.57,570.489 L 1240.95,566.648 L 1242.07,562.956 L 1243.88,559.554 L 1246.33,556.571 L 1249.32,554.123 L 1252.72,552.305 L 1256.41,551.185 L 1260.25,550.807 L 1297.42,550.807 L 1457.95,390.276 L 1458.2,390.051 L 1459.46,389.071 L 1463.18,386.309 L 1466.34,384.201 L 1470.31,381.817 L 1471.14,381.349 L 1472.94,380.604 L 1473.84,380.354 L 1478.34,379.226 L 1482.08,378.484 L 1486.66,377.804 L 1488.16,377.616 L 1488.57,377.596 L 1880.81,377.596 L 1881.23,377.616 L 1882.72,377.804 L 1887.31,378.484 L 1891.03,379.224 L 1895.53,380.352 L 1896.45,380.606 L 1898.24,381.347 L 1899.08,381.819 L 1903.05,384.205 L 1906.2,386.309 L 1909.92,389.071 L 1911.18,390.055 L 1911.43,390.276 L 2119.13,597.972 L 2119.36,598.23 L 2120.33,599.474 L 2123.09,603.196 L 2125.2,606.355 L 2127.58,610.331 L 2128.05,611.159 L 2128.8,612.959 L 2129.05,613.865 L 2130.18,618.362 L 2130.92,622.088 L 2131.6,626.675 L 2131.79,628.255 L 2131.81,628.593 L 2131.81,1770.53 L 2444.05,2082.77 L 2682.17,2082.77 L 2684.09,2082.86 L 2688.7,2083.32 L 2692.49,2084.07 L 2696.92,2085.41 L 2700.49,2086.89 L 2704.58,2089.08 L 2707.78,2091.22 L 2711.36,2094.15 L 2712.79,2095.45 L 2800.1,2182.76 L 4181.67,2182.76 L 4183.59,2182.85 L 4188.2,2183.31 L 4191.99,2184.06 L 4196.42,2185.4 L 4199.99,2186.88 L 4204.07,2189.07 L 4207.28,2191.2 L 4210.86,2194.14 L 4212.29,2195.44 L 4386.91,2370.07 L 4388.21,2371.49 L 4391.15,2375.07 L 4393.29,2378.29 L 4395.48,2382.37 L 4396.95,2385.92 L 4398.3,2390.36 L 4399.05,2394.15 L 4399.5,2398.76 L 4399.6,2400.69 L 4399.6,2939.87 L 4399.5,2941.8 L 4399.05,2946.41 L 4398.29,2950.2 L 4396.95,2954.63 L 4395.48,2958.18 L 4393.29,2962.26 L 4391.15,2965.47 L 4388.21,2969.05 L 4386.91,2970.49 L 4254.04,3103.36 L 4252.61,3104.66 L 4249.03,3107.59 L 4245.82,3109.74 L 4241.74,3111.92 L 4238.19,3113.39 L 4233.76,3114.74 L 4229.97,3115.49 L 4225.36,3115.95 L 4223.43,3116.04 L 3361.45,3116.04 L 3280.92,3196.58 L 3279.49,3197.88 L 3275.91,3200.81 L 3272.7,3202.96 L 3268.61,3205.14 L 3265.06,3206.61 L 3260.63,3207.96 L 3256.84,3208.71 L 3252.23,3209.17 L 3250.3,3209.26 L 2523.61,3209.26 L 2521.68,3209.17 L 2517.07,3208.71 L 2513.28,3207.96 L 2508.85,3206.61 L 2505.29,3205.14 L 2501.21,3202.96 L 2497.99,3200.81 L 2494.42,3197.87 L 2492.99,3196.58 L 2408.88,3112.46 L 2408.65,3112.21 L 2407.67,3110.96 L 2404.91,3107.24 L 2402.8,3104.09 L 2400.42,3100.11 L 2399.95,3099.27 L 2399.2,3097.48 L 2398.95,3096.56 L 2397.82,3092.07 L 2397.08,3088.34 L 2396.4,3083.76 L 2396.21,3082.21 L 2396.19,3081.85 L 2396.19,2941.01 L 2394,2938.34 L 2392.18,2934.93 L 2391.06,2931.24 L 2390.68,2927.4 L 2390.68,2738.45 L 2391.06,2734.61 L 2392.18,2730.91 L 2394,2727.51 L 2396.45,2724.53 L 2399.43,2722.08 L 2402.83,2720.26 L 2406.53,2719.14 L 2410.37,2718.76 L 2468.62,2718.76 L 2472.46,2719.14 L 2476.16,2720.26 L 2479.56,2722.08 L 2482.54,2724.53 L 2484.99,2727.51 L 2486.81,2730.91 L 2487.93,2734.61 L 2488.31,2738.45 L 2488.31,2927.4 L 2487.93,2931.24 L 2486.81,2934.93 L 2484.99,2938.34 L 2482.8,2941.01 L 2482.8,3063.91 L 2541.54,3122.66 L 3232.36,3122.66 L 3312.9,3042.12 L 3313.15,3041.89 L 3314.41,3040.91 L 3318.13,3038.15 L 3321.29,3036.04 L 3325.26,3033.66 L 3326.09,3033.19 L 3327.89,3032.45 L 3328.79,3032.2 L 3333.29,3031.07 L 3337.02,3030.33 L 3341.61,3029.65 L 3343.17,3029.46 L 3343.52,3029.44 L 4205.49,3029.44 L 4313,2921.93 L 4312.99,2418.62 L 4163.74,2269.36 L 2782.16,2269.36 L 2780.23,2269.27 L 2775.62,2268.81 L 2771.83,2268.06 L 2767.4,2266.71 L 2763.85,2265.24 L 2759.76,2263.06 L 2756.55,2260.91 L 2752.97,2257.97 L 2751.54,2256.68 L 2664.24,2169.37 L 2426.11,2169.37 L 2424.18,2169.28 L 2419.57,2168.82 L 2415.78,2168.07 L 2411.35,2166.72 L 2407.8,2165.25 L 2403.71,2163.07 L 2400.5,2160.92 L 2396.92,2157.98 L 2395.49,2156.69 L 2057.89,1819.09 L 2057.66,1818.83 L 2056.68,1817.58 L 2053.92,1813.86 L 2051.81,1810.71 L 2049.43,1806.73 L 2048.96,1805.9 z " style="fill-opacity:1.000000;fill:rgb(232,231,141);stroke:rgb(0,0,0);stroke-width:2"/></g>
<g fill-rule="evenodd"><path d="M 1439.31,1633.79 L 1440.05,1631.99 L 1440.52,1631.17 L 1442.9,1627.19 L 1445.01,1624.04 L 1447.77,1620.31 L 1448.75,1619.06 L 1448.98,1618.81 L 1656.27,1411.51 L 1656.27,787.378 L 1652.68,786.286 L 1649.27,784.469 L 1646.29,782.021 L 1643.84,779.037 L 1642.02,775.635 L 1640.9,771.944 L 1640.53,768.104 L 1640.53,570.489 L 1640.9,566.648 L 1642.02,562.956 L 1643.84,559.554 L 1646.29,556.571 L 1649.27,554.123 L 1652.68,552.305 L 1653.88,551.941 L 1660.18,550.809 L 1660.21,550.807 L 1738.94,550.807 L 1738.96,550.809 L 1745.27,551.939 L 1746.47,552.305 L 1749.87,554.123 L 1752.86,556.571 L 1755.3,559.554 L 1757.12,562.956 L 1758.24,566.648 L 1758.62,570.489 L 1758.62,768.104 L 1758.24,771.944 L 1757.12,775.635 L 1755.36,778.935 L 1755.13,779.251 L 1752.86,782.021 L 1749.87,784.469 L 1746.47,786.286 L 1742.88,787.378 L 1742.88,1429.45 L 1742.86,1429.78 L 1742.66,1431.37 L 1741.98,1435.96 L 1741.24,1439.68 L 1740.11,1444.18 L 1739.86,1445.09 L 1739.12,1446.88 L 1738.65,1447.71 L 1736.27,1451.68 L 1734.16,1454.84 L 1731.4,1458.56 L 1730.41,1459.82 L 1730.19,1460.07 L 1522.9,1667.36 L 1522.9,1677.39 L 1526.49,1678.49 L 1529.9,1680.3 L 1532.88,1682.75 L 1535.33,1685.73 L 1537.15,1689.14 L 1538.27,1692.83 L 1538.65,1696.67 L 1538.65,1944.67 L 1538.27,1948.51 L 1537.15,1952.2 L 1535.33,1955.6 L 1532.88,1958.59 L 1529.9,1961.04 L 1526.49,1962.85 L 1522.8,1963.97 L 1518.96,1964.35 L 1440.23,1964.35 L 1436.39,1963.97 L 1432.7,1962.85 L 1429.3,1961.04 L 1426.31,1958.59 L 1423.87,1955.6 L 1422.05,1952.2 L 1420.93,1948.51 L 1420.55,1944.67 L 1420.55,1696.67 L 1420.93,1692.83 L 1422.05,1689.14 L 1423.82,1685.82 L 1424.02,1685.55 L 1426.31,1682.75 L 1429.3,1680.3 L 1432.7,1678.49 L 1436.29,1677.39 L 1436.3,1649.43 L 1436.31,1649.07 L 1436.5,1647.52 L 1437.18,1642.93 L 1437.93,1639.2 L 1439.05,1634.7 L 1439.31,1633.79 z " style="fill-opacity:1.000000;fill:rgb(118,90,46);stroke:rgb(0,0,0);stroke-width:2"/></g>
<g fill-rule="evenodd"><path d="M 2527.21,1909.84 L 2526.24,1908.59 L 2523.48,1904.87 L 2521.37,1901.72 L 2518.99,1897.75 L 2518.52,1896.91 L 2517.77,1895.11 L 2517.52,1894.2 L 2516.39,1889.7 L 2515.65,1885.98 L 2514.97,1881.39 L 2514.78,1879.83 L 2514.76,1879.48 L 2514.76,1663.76 L 2514.78,1663.41 L 2514.97,1661.85 L 2515.65,1657.26 L 2516.39,1653.53 L 2517.52,1649.03 L 2517.77,1648.12 L 2518.52,1646.32 L 2518.99,1645.5 L 2521.37,1641.52 L 2523.47,1638.37 L 2526.24,1634.64 L 2527.21,1633.39 L 2527.44,1633.14 L 2601.37,1559.21 L 2601.37,1529.92 L 2601.75,1526.07 L 2602.87,1522.38 L 2604.69,1518.98 L 2607.13,1516 L 2610.12,1513.55 L 2613.52,1511.73 L 2617.21,1510.61 L 2621.05,1510.23 L 2817.88,1510.23 L 2821.72,1510.61 L 2825.41,1511.73 L 2828.81,1513.55 L 2831.8,1516 L 2834.24,1518.98 L 2836.06,1522.38 L 2837.18,1526.07 L 2837.56,1529.92 L 2837.56,1536.21 L 3343.89,1536.21 L 3344.27,1532.37 L 3345.39,1528.68 L 3347.2,1525.28 L 3349.65,1522.3 L 3352.63,1519.85 L 3356.04,1518.03 L 3359.73,1516.91 L 3363.57,1516.53 L 3725.73,1516.53 L 3729.57,1516.91 L 3733.27,1518.03 L 3736.67,1519.85 L 3739.65,1522.3 L 3742.1,1525.28 L 3743.92,1528.68 L 3745.04,1532.37 L 3745.42,1536.21 L 3837.7,1536.21 L 3875.33,1498.59 L 3875.33,1154.37 L 3875.71,1150.52 L 3876.83,1146.83 L 3878.64,1143.43 L 3881.09,1140.45 L 3884.08,1138 L 3887.48,1136.18 L 3891.17,1135.06 L 3895.01,1134.68 L 4635.09,1134.68 L 4638.93,1135.06 L 4642.62,1136.18 L 4646.02,1138 L 4649,1140.45 L 4651.45,1143.43 L 4653.27,1146.83 L 4654.39,1150.52 L 4654.77,1154.37 L 4654.77,2004.67 L 4654.39,2008.51 L 4653.27,2012.2 L 4651.45,2015.6 L 4649,2018.58 L 4646.02,2021.03 L 4642.62,2022.85 L 4638.93,2023.97 L 4635.09,2024.35 L 3895.01,2024.35 L 3891.17,2023.97 L 3887.48,2022.85 L 3884.08,2021.03 L 3881.09,2018.58 L 3878.64,2015.6 L 3876.83,2012.2 L 3875.71,2008.51 L 3875.33,2004.67 L 3875.33,1617.96 L 3873.95,1618.69 L 3870.4,1620.17 L 3865.97,1621.51 L 3862.18,1622.27 L 3857.57,1622.72 L 3855.64,1622.82 L 3745.42,1622.82 L 3745.04,1626.66 L 3743.92,1630.35 L 3742.1,1633.75 L 3739.65,1636.73 L 3736.67,1639.18 L 3733.27,1641 L 3729.57,1642.12 L 3725.73,1642.5 L 3363.57,1642.5 L 3359.73,1642.12 L 3356.04,1641 L 3352.63,1639.18 L 3349.65,1636.73 L 3347.2,1633.75 L 3345.39,1630.35 L 3344.27,1626.66 L 3343.89,1622.82 L 2733.64,1622.82 L 2731.7,1622.72 L 2727.09,1622.27 L 2724.8,1621.9 L 2722.56,1621.27 L 2720.22,1620.45 L 2662.6,1620.45 L 2601.37,1681.69 L 2601.37,1861.55 L 2835.97,2096.15 L 4217.55,2096.15 L 4219.47,2096.25 L 4224.07,2096.7 L 4227.87,2097.45 L 4232.3,2098.8 L 4235.86,2100.28 L 4239.95,2102.46 L 4243.15,2104.6 L 4246.73,2107.54 L 4248.16,2108.84 L 4509.9,2370.57 L 4511.19,2371.99 L 4514.13,2375.57 L 4516.27,2378.79 L 4518.46,2382.87 L 4519.93,2386.42 L 4521.28,2390.86 L 4522.03,2394.65 L 4522.48,2399.26 L 4522.58,2401.19 L 4522.58,2939.37 L 4522.48,2941.3 L 4522.03,2945.91 L 4521.27,2949.7 L 4519.93,2954.13 L 4518.46,2957.68 L 4516.27,2961.76 L 4514.13,2964.98 L 4511.19,2968.56 L 4509.9,2969.99 L 4289.92,3189.96 L 4288.49,3191.26 L 4284.91,3194.2 L 4281.7,3196.34 L 4277.61,3198.53 L 4274.06,3200 L 4269.63,3201.34 L 4265.84,3202.1 L 4261.23,3202.55 L 4259.3,3202.65 L 3397.33,3202.65 L 3316.79,3283.18 L 3315.36,3284.48 L 3311.78,3287.42 L 3308.57,3289.56 L 3304.49,3291.75 L 3300.93,3293.22 L 3296.5,3294.56 L 3292.71,3295.32 L 3288.11,3295.77 L 3286.18,3295.87 L 1206.82,3295.87 L 1126.13,3376.56 L 1124.7,3377.86 L 1121.12,3380.79 L 1117.91,3382.94 L 1113.82,3385.12 L 1110.27,3386.59 L 1105.84,3387.94 L 1102.05,3388.69 L 1097.44,3389.15 L 1095.51,3389.24 L 741.908,3389.24 L 739.979,3389.15 L 735.369,3388.69 L 731.577,3387.94 L 727.146,3386.59 L 723.592,3385.12 L 719.509,3382.94 L 716.293,3380.79 L 712.715,3377.85 L 711.288,3376.56 L 640.085,3305.36 L 639.865,3305.11 L 638.879,3303.85 L 636.118,3300.13 L 634.014,3296.98 L 631.628,3293 L 631.158,3292.17 L 630.412,3290.37 L 630.158,3289.46 L 629.032,3284.96 L 628.292,3281.23 L 627.613,3276.65 L 627.421,3275.09 L 627.405,3274.74 L 627.405,2028 L 627.421,2027.65 L 627.613,2026.09 L 628.292,2021.5 L 629.034,2017.77 L 630.162,2013.27 L 630.414,2012.36 L 631.16,2010.56 L 631.626,2009.74 L 634.01,2005.76 L 636.118,2002.61 L 638.879,1998.89 L 639.865,1997.62 L 640.085,1997.38 L 820.614,1816.85 L 820.614,1696.67 L 820.992,1692.83 L 822.112,1689.14 L 823.93,1685.73 L 826.377,1682.75 L 829.361,1680.3 L 832.763,1678.49 L 836.454,1677.37 L 840.296,1676.99 L 919.028,1676.99 L 922.867,1677.37 L 926.559,1678.49 L 929.96,1680.3 L 932.944,1682.75 L 935.392,1685.73 L 937.21,1689.14 L 938.329,1692.83 L 938.709,1696.67 L 938.709,1944.67 L 938.329,1948.51 L 937.21,1952.2 L 935.392,1955.6 L 932.944,1958.59 L 929.96,1961.04 L 926.559,1962.85 L 922.867,1963.97 L 919.028,1964.35 L 840.296,1964.35 L 836.454,1963.97 L 832.763,1962.85 L 829.361,1961.04 L 826.377,1958.59 L 823.93,1955.6 L 822.112,1952.2 L 820.992,1948.51 L 820.614,1944.67 L 820.614,1939.32 L 714.007,2045.93 L 714.007,3256.8 L 759.842,3302.64 L 1077.58,3302.64 L 1158.27,3221.95 L 1158.53,3221.72 L 1159.78,3220.74 L 1163.5,3217.98 L 1166.66,3215.87 L 1170.63,3213.49 L 1171.45,3213.02 L 1173.26,3212.27 L 1174.16,3212.02 L 1175.04,3211.8 L 1178.61,3210.73 L 1178.7,3210.69 L 1180.2,3210.24 L 1182.36,3209.81 L 1186.97,3209.36 L 1188.89,3209.27 L 3268.24,3209.27 L 3348.78,3128.73 L 3350.21,3127.43 L 3353.79,3124.49 L 3357,3122.35 L 3361.08,3120.17 L 3364.63,3118.69 L 3369.06,3117.35 L 3372.86,3116.59 L 3377.47,3116.14 L 3379.4,3116.05 L 4241.36,3116.05 L 4435.98,2921.43 L 4435.98,2419.12 L 4199.61,2182.76 L 2818.04,2182.76 L 2816.11,2182.66 L 2811.5,2182.21 L 2807.71,2181.45 L 2803.28,2180.11 L 2799.72,2178.63 L 2795.64,2176.45 L 2792.42,2174.3 L 2788.84,2171.37 L 2787.42,2170.07 L 2527.44,1910.1 L 2527.21,1909.84 z " style="fill-opacity:1.000000;fill:rgb(99,51,159);stroke:rgb(0,0,0);stroke-width:2"/></g>
<g fill-rule="evenodd"><path d="M 1443.82,820.243 L 1444.01,819.975 L 1446.31,817.173 L 1449.3,814.725 L 1452.7,812.908 L 1456.29,811.816 L 1456.29,617.728 L 1456.31,617.366 L 1456.5,615.818 L 1457.18,611.231 L 1457.92,607.495 L 1459.05,603 L 1459.31,602.086 L 1460.11,600.154 L 1460.5,599.458 L 1462.87,595.475 L 1464.97,592.305 L 1467.72,588.571 L 1468.12,588.057 L 1468.97,587.108 L 1579.2,476.881 L 1580.63,475.583 L 1584.21,472.646 L 1587.42,470.502 L 1591.51,468.32 L 1595.06,466.848 L 1599.49,465.502 L 1603.29,464.745 L 1607.9,464.293 L 1609.82,464.201 L 1789.33,464.201 L 1791.25,464.295 L 1795.85,464.747 L 1799.65,465.498 L 1804.08,466.842 L 1807.64,468.322 L 1811.73,470.506 L 1814.93,472.646 L 1818.51,475.583 L 1819.94,476.881 L 2032.52,689.459 L 2033.81,690.886 L 2036.75,694.464 L 2038.9,697.68 L 2041.08,701.763 L 2042.56,705.317 L 2043.9,709.748 L 2044.66,713.54 L 2045.11,718.15 L 2045.21,720.079 L 2045.21,1584.95 L 2045.11,1586.88 L 2044.66,1591.48 L 2043.9,1595.28 L 2042.55,1599.71 L 2041.08,1603.26 L 2038.9,1607.34 L 2036.76,1610.55 L 2033.82,1614.13 L 2032.52,1615.56 L 1796.8,1851.29 L 1796.55,1851.51 L 1795.29,1852.49 L 1791.57,1855.25 L 1788.41,1857.36 L 1784.44,1859.75 L 1783.61,1860.21 L 1781.81,1860.96 L 1780.91,1861.21 L 1776.41,1862.34 L 1772.68,1863.08 L 1768.1,1863.76 L 1766.52,1863.95 L 1766.18,1863.97 L 1738.62,1863.97 L 1738.62,1944.67 L 1738.24,1948.51 L 1737.12,1952.2 L 1735.31,1955.6 L 1732.86,1958.59 L 1729.88,1961.04 L 1726.47,1962.85 L 1722.78,1963.97 L 1718.94,1964.35 L 1640.21,1964.35 L 1636.37,1963.97 L 1632.68,1962.85 L 1629.28,1961.04 L 1626.29,1958.59 L 1623.84,1955.6 L 1622.03,1952.2 L 1620.91,1948.51 L 1620.53,1944.67 L 1620.53,1696.67 L 1620.91,1692.83 L 1622.03,1689.14 L 1623.84,1685.73 L 1626.29,1682.75 L 1629.28,1680.3 L 1632.68,1678.49 L 1636.37,1677.37 L 1640.21,1676.99 L 1718.94,1676.99 L 1722.78,1677.37 L 1726.47,1678.49 L 1729.88,1680.3 L 1732.86,1682.75 L 1735.31,1685.73 L 1737.12,1689.14 L 1738.24,1692.83 L 1738.62,1696.67 L 1738.62,1777.37 L 1748.24,1777.37 L 1958.6,1567.01 L 1958.6,738.013 L 1771.39,550.803 L 1627.75,550.803 L 1542.9,635.658 L 1542.9,811.816 L 1546.49,812.908 L 1549.89,814.725 L 1552.88,817.173 L 1555.33,820.157 L 1557.14,823.558 L 1558.26,827.25 L 1558.64,831.092 L 1558.64,1028.71 L 1558.26,1032.55 L 1557.14,1036.24 L 1555.33,1039.64 L 1552.88,1042.62 L 1549.89,1045.07 L 1546.49,1046.89 L 1542.8,1048.01 L 1538.96,1048.39 L 1460.23,1048.39 L 1456.39,1048.01 L 1452.7,1046.89 L 1449.3,1045.07 L 1446.31,1042.62 L 1443.86,1039.64 L 1442.05,1036.24 L 1440.93,1032.55 L 1440.55,1028.71 L 1440.55,831.092 L 1440.93,827.25 L 1442.05,823.558 L 1443.82,820.243 z " style="fill-opacity:1.000000;fill:rgb(201,154,102);stroke:rgb(0,0,0);stroke-width:2"/></g>
<g fill-rule="evenodd"><path d="M 1290.47,2747.13 L 1291.44,2748.38 L 1294.2,2752.1 L 1296.31,2755.26 L 1298.7,2759.24 L 1299.17,2760.07 L 1299.91,2761.86 L 1300.16,2762.77 L 1301.29,2767.27 L 1302.03,2770.99 L 1302.71,2775.58 L 1302.9,2777.16 L 1302.92,2777.5 L 1302.92,2971.59 L 1306.52,2972.68 L 1309.92,2974.5 L 1312.9,2976.94 L 1315.35,2979.93 L 1317.17,2983.33 L 1318.29,2987.02 L 1318.67,2990.86 L 1318.67,3188.48 L 1318.29,3192.32 L 1317.17,3196.01 L 1315.35,3199.41 L 1312.9,3202.39 L 1309.92,3204.84 L 1306.79,3206.51 L 1302.01,3207.86 L 1298.99,3208.16 L 1220.26,3208.16 L 1216.9,3207.83 L 1214.37,3207.16 L 1212.72,3206.66 L 1209.32,3204.84 L 1206.34,3202.39 L 1203.89,3199.41 L 1202.07,3196.01 L 1200.95,3192.32 L 1200.57,3188.48 L 1200.57,2990.86 L 1200.95,2987.02 L 1202.07,2983.33 L 1203.84,2980.01 L 1204.04,2979.74 L 1206.34,2976.94 L 1209.32,2974.5 L 1212.72,2972.68 L 1216.32,2971.59 L 1216.32,2795.43 L 1049.02,2628.13 L 1048.79,2627.88 L 1047.81,2626.63 L 1045.05,2622.9 L 1042.95,2619.76 L 1040.56,2615.78 L 1040.09,2614.95 L 1039.34,2613.15 L 1039.09,2612.23 L 1037.97,2607.74 L 1037.23,2604.01 L 1036.55,2599.43 L 1036.36,2597.88 L 1036.34,2597.52 L 1036.34,2361.54 L 1032.74,2360.45 L 1029.34,2358.63 L 1026.36,2356.18 L 1023.91,2353.2 L 1022.09,2349.8 L 1020.97,2346.11 L 1020.59,2342.27 L 1020.59,2094.27 L 1020.97,2090.42 L 1022.09,2086.73 L 1023.91,2083.33 L 1026.36,2080.35 L 1029.34,2077.9 L 1032.74,2076.08 L 1036.43,2074.96 L 1040.27,2074.58 L 1119.01,2074.58 L 1122.85,2074.96 L 1126.54,2076.08 L 1129.94,2077.9 L 1132.92,2080.35 L 1135.37,2083.33 L 1137.19,2086.73 L 1138.31,2090.42 L 1138.69,2094.27 L 1138.69,2342.27 L 1138.31,2346.11 L 1137.19,2349.8 L 1135.43,2353.1 L 1135.19,2353.42 L 1132.92,2356.18 L 1129.94,2358.63 L 1126.54,2360.45 L 1122.94,2361.54 L 1122.94,2579.58 L 1290.24,2746.88 L 1290.47,2747.13 z " style="fill-opacity:1.000000;fill:rgb(50,13,183);stroke:rgb(0,0,0);stroke-width:2"/></g>
<g fill-rule="evenodd"><path d="M 816.398,2237.5 L 816.534,2236.35 L 817.188,2231.76 L 817.914,2228.01 L 818.548,2225.43 L 818.862,2223.99 L 819.01,2223.5 L 819.722,2221.54 L 820.614,2219.71 L 820.614,2094.27 L 820.992,2090.42 L 822.112,2086.73 L 823.93,2083.33 L 826.377,2080.35 L 829.361,2077.9 L 832.763,2076.08 L 836.454,2074.96 L 840.296,2074.58 L 919.028,2074.58 L 922.867,2074.96 L 926.559,2076.08 L 929.96,2077.9 L 932.944,2080.35 L 935.392,2083.33 L 937.21,2086.73 L 938.329,2090.42 L 938.709,2094.27 L 938.709,2342.27 L 938.329,2346.11 L 937.21,2349.8 L 935.392,2353.2 L 932.944,2356.18 L 929.96,2358.63 L 926.559,2360.45 L 922.867,2361.57 L 919.028,2361.95 L 902.965,2361.95 L 902.965,2971.59 L 906.561,2972.68 L 909.962,2974.5 L 912.946,2976.94 L 915.394,2979.93 L 917.212,2983.33 L 918.332,2987.02 L 918.712,2990.86 L 918.712,3188.48 L 918.332,3192.32 L 917.212,3196.01 L 915.394,3199.41 L 912.946,3202.39 L 909.962,3204.84 L 906.561,3206.66 L 902.869,3207.78 L 899.03,3208.16 L 820.298,3208.16 L 816.456,3207.78 L 812.765,3206.66 L 809.363,3204.84 L 806.379,3202.39 L 803.932,3199.41 L 802.114,3196.01 L 800.994,3192.32 L 800.616,3188.48 L 800.616,2990.86 L 800.994,2987.02 L 802.114,2983.33 L 803.886,2980.01 L 804.082,2979.74 L 806.379,2976.94 L 809.363,2974.5 L 812.765,2972.68 L 816.36,2971.59 L 816.362,2238.26 L 816.398,2237.5 z " style="fill-opacity:1.000000;fill:rgb(49,88,163);stroke:rgb(0,0,0);stroke-width:2"/></g>
<g fill-rule="evenodd"><path d="M 2396.21,3082.21 L 2396.4,3083.76 L 2397.08,3088.34 L 2397.82,3092.07 L 2398.95,3096.56 L 2399.37,3098.09 L 2399.44,3098.43 L 2399.63,3098.71 L 2400.42,3100.11 L 2402.8,3104.09 L 2404.91,3107.24 L 2407.67,3110.96 L 2408.64,3112.21 L 2410.51,3115 L 2454.76,3159.52 L 2457.19,3162.48 L 2458.99,3165.86 L 2460.48,3169.46 L 2461.6,3173.15 L 2461.98,3176.99 L 2461.98,3180.89 L 2461.61,3184.74 L 2460.48,3188.44 L 2458.99,3192.04 L 2457.69,3194.62 L 2456.02,3196.99 L 2454.78,3198.51 L 2452.78,3200.6 L 2450.5,3202.38 L 2447.25,3204.55 L 2443.85,3206.37 L 2440.16,3207.49 L 2436.34,3208.25 L 2432.49,3208.63 L 1348,3208.44 L 1345.12,3208.22 L 1342.3,3207.59 L 1340.43,3207.02 L 1337.72,3205.98 L 1335.2,3204.55 L 1331.95,3202.38 L 1328.97,3199.94 L 1326.52,3196.96 L 1324.36,3193.71 L 1322.53,3190.31 L 1321.41,3186.61 L 1320.65,3182.79 L 1320.28,3178.95 L 1320.28,2993.63 L 1318.38,2983.52 L 1313.37,2975.73 L 1312.26,2974.76 L 1310.8,2973.14 L 1309.58,2971.64 L 1307.48,2968.45 L 1306.57,2966.73 L 1305.42,2964.1 L 1304.67,2961.33 L 1303.92,2957.55 L 1303.55,2953.75 L 1303.55,2780.42 L 1302.9,2777.15 L 1302.71,2775.58 L 1302.03,2770.99 L 1301.29,2767.27 L 1300.16,2762.77 L 1299.74,2761.24 L 1299.67,2760.91 L 1299.49,2760.63 L 1298.7,2759.24 L 1296.31,2755.26 L 1294.2,2752.1 L 1291.44,2748.38 L 1290.47,2747.13 L 1288.62,2744.36 L 1132.26,2588.01 L 1129.82,2585.03 L 1127.65,2581.79 L 1126.22,2579.26 L 1125.18,2576.55 L 1124.61,2574.68 L 1123.98,2571.87 L 1123.77,2568.99 L 1123.57,2379.66 L 1123.67,2377.69 L 1123.87,2375.7 L 1124.38,2372.8 L 1125.32,2370 L 1126.86,2366.35 L 1128.63,2363.06 L 1130.99,2360.17 L 1132.09,2359.06 L 1138.06,2350.32 L 1140.3,2339.29 L 1140.3,2097.03 L 1138.4,2086.92 L 1133.84,2079.84 L 1127.05,2075.2 L 1116.03,2072.97 L 1043.03,2072.97 L 1032.93,2074.87 L 1025.85,2079.43 L 1021.21,2086.21 L 1018.98,2097.23 L 1018.98,2339.51 L 1020.88,2349.61 L 1025.89,2357.4 L 1027,2358.38 L 1028.46,2360 L 1029.68,2361.5 L 1031.78,2364.68 L 1032.68,2366.4 L 1033.83,2369.02 L 1034.59,2371.79 L 1035.33,2375.57 L 1035.71,2379.38 L 1035.71,2594.6 L 1036.36,2597.88 L 1036.55,2599.43 L 1037.23,2604.01 L 1037.97,2607.74 L 1039.09,2612.23 L 1039.51,2613.76 L 1039.58,2614.1 L 1039.78,2614.39 L 1040.56,2615.78 L 1042.95,2619.76 L 1045.05,2622.9 L 1047.81,2626.63 L 1048.78,2627.87 L 1050.64,2630.65 L 1079.27,2659.28 L 1081.71,2662.26 L 1083.88,2665.5 L 1085.7,2668.91 L 1086.82,2672.6 L 1087.58,2676.43 L 1087.93,2679.29 L 1087.87,2682.17 L 1087.68,2684.12 L 1087.18,2686.99 L 1086.27,2689.75 L 1084.77,2693.35 L 1082.96,2696.76 L 1080.51,2699.73 L 1077.75,2702.49 L 1077.58,2702.64 L 1076.67,2705 L 1075.24,2707.52 L 1073.2,2710.58 L 1099.01,2710.58 L 1102.85,2710.96 L 1106.54,2712.08 L 1109.94,2713.89 L 1112.92,2716.34 L 1115.37,2719.32 L 1117.19,2722.73 L 1118.31,2726.42 L 1118.69,2730.26 L 1118.69,2789.39 L 1119.32,2789.39 L 1119.32,2770.99 L 1119.7,2767.15 L 1120.46,2763.32 L 1121.23,2760.53 L 1122.41,2757.88 L 1123.33,2756.15 L 1124.88,2753.71 L 1126.77,2751.52 L 1129.52,2748.76 L 1131.72,2746.86 L 1134.17,2745.31 L 1135.9,2744.38 L 1138.55,2743.21 L 1141.34,2742.44 L 1145.17,2741.68 L 1149,2741.3 L 1152.83,2741.68 L 1156.66,2742.44 L 1160.35,2743.56 L 1163.76,2745.38 L 1167,2747.55 L 1169.99,2750 L 1206.99,2787 L 1209.44,2789.98 L 1211.6,2793.22 L 1213.42,2796.63 L 1214.54,2800.32 L 1215.31,2804.15 L 1215.69,2807.99 L 1215.69,2953.49 L 1215.59,2955.46 L 1215.39,2957.45 L 1214.87,2960.35 L 1213.93,2963.13 L 1212.39,2966.79 L 1210.61,2970.08 L 1208.24,2972.98 L 1207.16,2974.07 L 1201.19,2982.81 L 1198.96,2993.84 L 1198.77,3184.82 L 1198.39,3188.65 L 1197.27,3192.33 L 1195.78,3195.93 L 1193.96,3199.34 L 1191.51,3202.32 L 1188.75,3205.08 L 1185.77,3207.53 L 1182.36,3209.35 L 1180.25,3210.23 L 1178.7,3210.69 L 1178.61,3210.73 L 1175.04,3211.8 L 1174.16,3212.02 L 1172.65,3212.44 L 1172.3,3212.51 L 1172.01,3212.71 L 1170.63,3213.49 L 1166.66,3215.87 L 1163.5,3217.98 L 1159.78,3220.74 L 1158.53,3221.71 L 1155.75,3223.57 L 1086.01,3293.31 L 1083.03,3295.76 L 1079.78,3297.93 L 1077.26,3299.36 L 1074.55,3300.4 L 1072.68,3300.97 L 1069.87,3301.6 L 1067,3301.81 L 947.926,3302.01 L 943.911,3302.49 L 941.543,3302.64 L 777.783,3302.64 L 775.853,3302.54 L 771.243,3302.09 L 770.537,3302 L 767.814,3301.64 L 765.326,3301.13 L 762.924,3300.32 L 759.318,3298.83 L 756.839,3297.59 L 754.559,3296.02 L 748.796,3291.41 L 747.162,3289.95 L 726.69,3269.48 L 725.224,3267.84 L 720.621,3262.08 L 719.053,3259.8 L 717.819,3257.33 L 716.327,3253.72 L 715.399,3250.89 L 714.909,3247.96 L 714.745,3246.13 L 714.151,3241.24 L 714.009,3238.87 L 714.009,2063.87 L 714.101,2061.95 L 714.553,2057.34 L 714.857,2055.33 L 715.795,2050.73 L 716.565,2047.99 L 717.723,2045.38 L 718.647,2043.65 L 720.623,2040.65 L 725.226,2034.89 L 726.69,2033.25 L 759.287,2000.66 L 761.062,1999.08 L 764.236,1996.6 L 793.959,1966.87 L 796.966,1964.41 L 800.236,1962.23 L 802.77,1960.8 L 805.488,1959.76 L 807.379,1959.19 L 810.237,1958.56 L 813.159,1958.36 L 817.09,1958.39 L 820.952,1958.79 L 824.662,1959.95 L 828.279,1961.49 L 831.689,1963.35 L 832.243,1963.73 L 843.272,1965.96 L 916.25,1965.97 L 926.367,1964.06 L 933.45,1959.5 L 938.083,1952.72 L 940.319,1941.69 L 940.319,1699.43 L 938.417,1689.33 L 933.858,1682.24 L 927.073,1677.61 L 916.056,1675.37 L 843.056,1675.37 L 832.951,1677.27 L 825.867,1681.83 L 821.234,1688.61 L 819.002,1699.64 L 819.002,1805.28 L 818.622,1809.12 L 817.86,1812.95 L 817.088,1815.74 L 815.914,1818.38 L 814.991,1820.11 L 813.447,1822.55 L 811.561,1824.74 L 641.713,1994.86 L 639.857,1997.63 L 638.879,1998.89 L 636.118,2002.61 L 634.01,2005.76 L 631.626,2009.74 L 630.846,2011.12 L 630.65,2011.41 L 630.582,2011.76 L 630.162,2013.27 L 629.034,2017.77 L 628.292,2021.5 L 627.613,2026.09 L 627.423,2027.64 L 626.773,2030.91 L 626.773,3271.82 L 627.421,3275.08 L 627.613,3276.65 L 628.292,3281.23 L 629.032,3284.96 L 630.158,3289.46 L 630.58,3290.98 L 630.65,3291.33 L 630.85,3291.63 L 631.628,3293 L 634.014,3296.98 L 636.118,3300.13 L 638.879,3303.85 L 639.855,3305.1 L 641.737,3307.92 L 663.495,3329.93 L 665.894,3332.88 L 667.68,3336.23 L 669.174,3339.84 L 670.294,3343.53 L 670.672,3347.36 L 670.674,3351.26 L 670.462,3354.16 L 669.824,3357 L 669.254,3358.87 L 668.212,3361.57 L 666.786,3364.09 L 664.619,3367.33 L 662.837,3369.61 L 660.741,3371.61 L 659.225,3372.85 L 656.019,3374.99 L 654.292,3375.92 L 651.646,3377.09 L 648.856,3377.86 L 645.031,3378.63 L 641.187,3379.01 L 149.739,3379.01 L 145.896,3378.63 L 142.068,3377.86 L 138.377,3376.74 L 134.975,3374.92 L 131.731,3372.76 L 128.75,3370.31 L 126.304,3367.33 L 124.136,3364.09 L 122.706,3361.56 L 121.662,3358.85 L 121.094,3356.98 L 120.462,3354.16 L 120.25,3351.28 L 120.059,109.672 L 120.434,105.839 L 121.194,102.011 L 122.314,98.3135 L 124.136,94.9079 L 126.304,91.6642 L 128.086,89.3805 L 130.181,87.3847 L 131.697,86.1408 L 134.903,83.9991 L 136.631,83.0752 L 139.282,81.8993 L 142.078,81.1274 L 145.906,80.3674 L 149.739,79.9915 L 4689.26,79.9915 L 4693.09,80.3674 L 4696.92,81.1274 L 4700.61,82.2472 L 4704.02,84.0691 L 4707.26,86.2368 L 4709.54,88.0186 L 4711.54,90.1144 L 4712.78,91.6303 L 4714.93,94.8359 L 4715.85,96.5637 L 4717.02,99.2094 L 4717.8,102.001 L 4718.56,105.829 L 4718.94,109.672 L 4718.94,1009.58 L 4718.69,1012.66 L 4718.2,1015.75 L 4717.48,1018.75 L 4716.3,1021.6 L 4714.88,1024.39 L 4713.27,1027.02 L 4711.26,1029.37 L 4709.05,1031.58 L 4706.7,1033.59 L 4704.07,1035.2 L 4701.28,1036.62 L 4698.43,1037.8 L 4695.43,1038.52 L 4692.34,1039.01 L 4689.26,1039.26 L 3279.09,1039.26 L 3279.09,1305.92 L 3278.71,1309.76 L 3277.95,1313.59 L 3277.18,1316.38 L 3276,1319.03 L 3275.08,1320.75 L 3273.53,1323.2 L 3271.64,1325.39 L 3268.88,1328.15 L 3266.69,1330.04 L 3264.24,1331.59 L 3262.51,1332.51 L 3259.87,1333.69 L 3257.08,1334.46 L 3253.25,1335.22 L 3249.39,1335.6 L 3027.96,1335.41 L 3024.13,1335.03 L 3020.45,1333.91 L 3016.84,1332.42 L 3014.25,1331.11 L 3011.87,1329.44 L 3010.36,1328.2 L 3008.94,1326.91 L 2912.08,1230.05 L 2909.63,1227.06 L 2907.46,1223.82 L 2906.03,1221.3 L 2904.99,1218.59 L 2904.42,1216.71 L 2903.79,1213.9 L 2903.58,1211.04 L 2903.38,1066.1 L 2903.48,1064.12 L 2903.68,1062.14 L 2904.19,1059.23 L 2905.13,1056.43 L 2906.68,1052.77 L 2908.46,1049.48 L 2910.82,1046.59 L 2911.91,1045.49 L 2917.87,1036.76 L 2920.11,1025.72 L 2920.11,833.861 L 2918.2,823.746 L 2913.65,816.665 L 2906.86,812.03 L 2895.85,809.798 L 2822.84,809.796 L 2812.74,811.698 L 2805.66,816.255 L 2801.02,823.038 L 2798.79,834.059 L 2798.79,1025.94 L 2800.69,1036.05 L 2805.7,1043.83 L 2806.8,1044.81 L 2808.27,1046.43 L 2809.49,1047.94 L 2811.58,1051.1 L 2812.48,1052.82 L 2813.64,1055.45 L 2814.4,1058.22 L 2815.14,1062.01 L 2815.52,1065.81 L 2815.52,1236.63 L 2816.17,1239.91 L 2816.36,1241.46 L 2817.04,1246.05 L 2817.78,1249.77 L 2818.9,1254.27 L 2819.33,1255.8 L 2819.39,1256.13 L 2819.58,1256.41 L 2820.37,1257.81 L 2822.76,1261.79 L 2824.86,1264.94 L 2827.62,1268.66 L 2828.6,1269.91 L 2830.45,1272.68 L 2966.3,1408.53 L 2969.06,1410.38 L 2970.32,1411.36 L 2974.04,1414.12 L 2977.2,1416.23 L 2981.17,1418.61 L 2982.55,1419.39 L 2982.85,1419.59 L 2983.19,1419.65 L 2984.71,1420.08 L 2989.21,1421.2 L 2992.93,1421.94 L 2997.52,1422.63 L 2999.11,1422.82 L 3002.37,1423.47 L 3251.37,1423.66 L 3254.25,1423.87 L 3257.06,1424.51 L 3258.94,1425.07 L 3261.65,1426.12 L 3264.17,1427.55 L 3267.41,1429.72 L 3270.4,1432.16 L 3272.84,1435.14 L 3275.01,1438.39 L 3276.44,1440.91 L 3277.48,1443.62 L 3278.05,1445.49 L 3278.68,1448.32 L 3278.9,1451.2 L 3278.9,1507.85 L 3278.68,1510.73 L 3278.05,1513.55 L 3277.48,1515.43 L 3276.44,1518.14 L 3275.01,1520.66 L 3272.84,1523.9 L 3270.4,1526.89 L 3267.41,1529.33 L 3264.17,1531.5 L 3260.77,1533.32 L 3257.08,1534.44 L 3253.25,1535.2 L 3249.41,1535.58 L 2861.84,1535.58 L 2859.86,1535.48 L 2857.88,1535.28 L 2854.98,1534.77 L 2852.2,1533.83 L 2848.54,1532.29 L 2845.09,1530.4 L 2842.08,1527.87 L 2839.31,1525.03 L 2836.88,1521.96 L 2832.71,1515.49 L 2825.93,1510.85 L 2814.91,1508.62 L 2623.81,1508.62 L 2613.71,1510.52 L 2606.62,1515.08 L 2601.99,1521.86 L 2599.76,1532.88 L 2599.76,1547.64 L 2599.38,1551.48 L 2598.61,1555.31 L 2597.84,1558.1 L 2596.67,1560.75 L 2595.75,1562.47 L 2594.21,1564.9 L 2592.33,1567.08 L 2529.08,1630.6 L 2527.21,1633.39 L 2526.24,1634.64 L 2523.47,1638.37 L 2521.37,1641.52 L 2518.99,1645.5 L 2518.21,1646.87 L 2518.01,1647.17 L 2517.94,1647.51 L 2517.52,1649.03 L 2516.39,1653.53 L 2515.65,1657.26 L 2514.97,1661.85 L 2514.78,1663.4 L 2514.13,1666.67 L 2514.13,1876.57 L 2514.78,1879.83 L 2514.97,1881.39 L 2515.65,1885.98 L 2516.39,1889.7 L 2517.52,1894.2 L 2517.94,1895.72 L 2518.01,1896.07 L 2518.21,1896.36 L 2518.99,1897.75 L 2521.37,1901.72 L 2523.48,1904.87 L 2526.24,1908.59 L 2527.2,1909.83 L 2529.07,1912.62 L 2649.18,2033 L 2651.62,2035.97 L 2653.43,2039.37 L 2654.92,2042.97 L 2656.04,2046.66 L 2656.42,2050.49 L 2656.42,2054.4 L 2656.21,2057.29 L 2655.57,2060.13 L 2655,2062 L 2653.96,2064.7 L 2652.53,2067.22 L 2650.37,2070.46 L 2648.58,2072.75 L 2646.49,2074.74 L 2644.97,2075.99 L 2642.6,2077.65 L 2640.01,2078.95 L 2636.41,2080.45 L 2632.73,2081.56 L 2628.91,2081.94 L 2456.63,2082.14 L 2452.76,2081.76 L 2448.93,2081 L 2446.15,2080.22 L 2443.5,2079.05 L 2441.77,2078.13 L 2439.33,2076.58 L 2437.13,2074.69 L 2141.14,1778.97 L 2138.69,1775.98 L 2136.52,1772.74 L 2134.7,1769.33 L 2133.58,1765.64 L 2132.82,1761.81 L 2132.44,1757.98 L 2132.44,631.517 L 2131.79,628.261 L 2131.6,626.675 L 2130.92,622.088 L 2130.18,618.362 L 2129.05,613.865 L 2128.63,612.349 L 2128.56,612.003 L 2128.36,611.709 L 2127.58,610.331 L 2125.2,606.355 L 2123.09,603.196 L 2120.33,599.474 L 2119.37,598.238 L 2117.51,595.459 L 1913.94,391.898 L 1911.19,390.063 L 1909.92,389.071 L 1906.2,386.309 L 1903.05,384.205 L 1899.08,381.819 L 1897.68,381.029 L 1897.4,380.841 L 1897.06,380.773 L 1895.53,380.352 L 1891.03,379.224 L 1887.31,378.484 L 1882.72,377.804 L 1881.09,377.598 L 1881.06,377.592 L 1488.33,377.592 L 1488.3,377.596 L 1486.66,377.804 L 1482.08,378.484 L 1478.34,379.226 L 1473.84,380.354 L 1472.33,380.773 L 1471.98,380.841 L 1471.69,381.035 L 1470.31,381.817 L 1466.34,384.201 L 1463.18,386.309 L 1459.46,389.071 L 1458.2,390.055 L 1455.43,391.902 L 1305.31,541.756 L 1303.12,543.64 L 1300.68,545.184 L 1298.96,546.108 L 1296.31,547.282 L 1293.52,548.054 L 1289.69,548.816 L 1285.85,549.196 L 1263.01,549.194 L 1252.91,551.095 L 1245.82,555.653 L 1241.19,562.436 L 1238.96,573.457 L 1238.96,672.844 L 1238.71,675.52 L 1238.5,676.456 L 1237.87,679.038 L 1237.14,682.791 L 1236.49,687.381 L 1236.36,688.523 L 1235.68,692.1 L 1235.68,1659.3 L 1235.29,1663.2 L 1234.5,1667.09 L 1233.7,1669.92 L 1232.49,1672.6 L 1231.54,1674.35 L 1230.05,1676.68 L 1228.25,1678.77 L 1227.16,1679.87 L 1221.19,1688.61 L 1218.96,1699.64 L 1218.96,1941.91 L 1220.86,1952.01 L 1225.42,1959.1 L 1232.2,1963.73 L 1243.23,1965.96 L 1316.21,1965.97 L 1326.32,1964.06 L 1333.41,1959.5 L 1338.04,1952.72 L 1340.28,1941.69 L 1340.28,1699.44 L 1338.37,1689.33 L 1333.36,1681.54 L 1332.25,1680.55 L 1330.79,1678.93 L 1329.57,1677.43 L 1327.94,1675.07 L 1326.67,1672.51 L 1325.2,1668.94 L 1324.31,1666.21 L 1323.83,1663.38 L 1323.64,1661.45 L 1323.55,1659.56 L 1323.55,816.397 L 1323.93,812.532 L 1324.71,808.676 L 1325.84,804.956 L 1327.69,801.533 L 1329.89,798.275 L 1331.69,795.985 L 1333.82,793.988 L 1335.35,792.744 L 1338.61,790.602 L 1340.36,789.686 L 1342.62,788.676 L 1345,787.96 L 1345.94,787.738 L 1353.4,782.937 L 1358.04,776.153 L 1360.27,765.123 L 1360.27,623.62 L 1360.65,619.786 L 1361.41,615.958 L 1362.53,612.261 L 1364.35,608.855 L 1366.52,605.612 L 1369,602.598 L 1427.38,544.496 L 1430.35,542.066 L 1433.73,540.261 L 1437.33,538.769 L 1441.02,537.649 L 1444.86,537.273 L 1448.77,537.273 L 1452.6,537.649 L 1456.29,538.769 L 1459.9,540.261 L 1463.3,542.078 L 1466.28,544.524 L 1469.04,547.282 L 1471.49,550.269 L 1473.31,553.679 L 1474.81,557.285 L 1475.92,560.968 L 1476.3,564.798 L 1476.3,568.699 L 1476.09,571.601 L 1475.45,574.439 L 1474.88,576.313 L 1473.87,578.942 L 1472.49,581.402 L 1468.12,588.053 L 1467.72,588.571 L 1464.97,592.305 L 1462.87,595.475 L 1460.5,599.458 L 1459.82,600.664 L 1459.55,601.066 L 1459.47,601.494 L 1459.05,603 L 1457.92,607.495 L 1457.18,611.231 L 1456.5,615.818 L 1456.31,617.36 L 1455.66,620.652 L 1455.46,795.725 L 1455.06,799.623 L 1453.91,803.365 L 1452.36,807.022 L 1450.58,810.312 L 1448.22,813.205 L 1447.14,814.301 L 1441.17,823.038 L 1438.94,834.059 L 1438.94,1025.94 L 1440.84,1036.05 L 1445.39,1043.13 L 1452.18,1047.76 L 1463.21,1050 L 1536.19,1050 L 1546.3,1048.1 L 1553.38,1043.54 L 1558.02,1036.76 L 1560.25,1025.72 L 1560.25,833.861 L 1558.35,823.746 L 1553.34,815.963 L 1552.24,814.987 L 1550.78,813.373 L 1549.56,811.866 L 1547.45,808.676 L 1546.55,806.96 L 1545.4,804.33 L 1544.64,801.563 L 1543.9,797.775 L 1543.53,793.958 L 1543.72,646.241 L 1543.94,643.372 L 1544.56,640.562 L 1545.13,638.686 L 1546.18,635.978 L 1547.61,633.455 L 1549.77,630.211 L 1552.27,627.179 L 1589.81,589.911 L 1592.77,587.493 L 1596.15,585.694 L 1599.75,584.202 L 1602.5,583.294 L 1605.35,582.8 L 1607.31,582.608 L 1610.2,582.536 L 1613.07,582.89 L 1616.89,583.65 L 1620.59,584.77 L 1623.99,586.592 L 1627.24,588.759 L 1629.52,590.541 L 1631.52,592.637 L 1632.76,594.153 L 1634.43,596.523 L 1635.73,599.11 L 1637.22,602.714 L 1638.34,606.391 L 1638.72,610.217 L 1638.91,765.331 L 1640.81,775.444 L 1645.82,783.229 L 1646.93,784.207 L 1648.39,785.826 L 1649.61,787.336 L 1651.7,790.5 L 1652.61,792.216 L 1653.76,794.849 L 1654.52,797.621 L 1655.27,801.411 L 1655.64,805.218 L 1655.44,1400.91 L 1655.23,1403.79 L 1654.6,1406.61 L 1654.03,1408.49 L 1652.99,1411.2 L 1651.56,1413.72 L 1649.39,1416.96 L 1646.94,1419.94 L 1450.6,1616.29 L 1448.75,1619.06 L 1447.77,1620.31 L 1445.01,1624.04 L 1442.9,1627.19 L 1440.52,1631.17 L 1439.74,1632.55 L 1439.54,1632.84 L 1439.48,1633.18 L 1439.05,1634.7 L 1437.93,1639.2 L 1437.18,1642.93 L 1436.5,1647.52 L 1436.31,1649.05 L 1435.63,1652.52 L 1435.46,1661.64 L 1435.03,1665.35 L 1433.91,1668.92 L 1432.37,1672.58 L 1430.6,1675.87 L 1428.23,1678.77 L 1427.14,1679.87 L 1421.17,1688.61 L 1418.94,1699.64 L 1418.94,1941.91 L 1420.84,1952.01 L 1425.4,1959.1 L 1432.18,1963.73 L 1443.21,1965.96 L 1516.19,1965.97 L 1526.3,1964.06 L 1533.39,1959.5 L 1538.02,1952.72 L 1540.26,1941.69 L 1540.26,1699.44 L 1538.35,1689.33 L 1537,1687.23 L 1535.26,1683.84 L 1533.84,1680.26 L 1532.78,1676.6 L 1532.45,1672.8 L 1532.49,1668.95 L 1532.72,1666.09 L 1533.37,1663.3 L 1533.95,1661.46 L 1534.99,1658.8 L 1536.4,1656.32 L 1538.55,1653.12 L 1540.97,1650.18 L 1728.57,1462.58 L 1730.41,1459.83 L 1731.4,1458.56 L 1734.16,1454.84 L 1736.27,1451.68 L 1738.65,1447.71 L 1739.44,1446.31 L 1739.62,1446.04 L 1739.69,1445.72 L 1740.11,1444.18 L 1741.24,1439.68 L 1741.98,1435.96 L 1742.66,1431.37 L 1742.86,1429.79 L 1743.51,1426.52 L 1743.51,805.476 L 1743.6,803.523 L 1743.8,801.537 L 1744.32,798.627 L 1745.26,795.827 L 1746.8,792.17 L 1748.58,788.88 L 1750.94,785.986 L 1752.03,784.89 L 1758,776.153 L 1760.23,765.123 L 1760.23,612.195 L 1760.61,608.361 L 1761.37,604.534 L 1762.14,601.738 L 1763.32,599.086 L 1764.24,597.358 L 1765.79,594.915 L 1767.68,592.727 L 1770.43,589.967 L 1773.42,587.513 L 1776.83,585.692 L 1780.44,584.2 L 1784.12,583.084 L 1787.95,582.706 L 1791.85,582.704 L 1795.69,583.08 L 1799.39,584.202 L 1803,585.696 L 1805.58,586.998 L 1807.95,588.663 L 1809.47,589.907 L 1810.9,591.205 L 1949.28,729.58 L 1950.57,731.002 L 1951.81,732.516 L 1953.48,734.892 L 1954.79,737.488 L 1956.28,741.093 L 1957.4,744.781 L 1957.78,748.618 L 1957.78,782.067 L 1957.4,785.904 L 1956.28,789.594 L 1954.79,793.198 L 1952.97,796.603 L 1950.52,799.587 L 1947.76,802.347 L 1945.57,804.236 L 1943.12,805.786 L 1941.39,806.71 L 1938.75,807.884 L 1935.96,808.656 L 1932.13,809.418 L 1928.29,809.798 L 1862.95,809.796 L 1852.84,811.698 L 1845.76,816.255 L 1841.13,823.038 L 1838.89,834.059 L 1838.89,1025.94 L 1840.79,1036.05 L 1845.35,1043.13 L 1852.13,1047.76 L 1863.19,1050 L 1930.29,1050.19 L 1933.15,1050.41 L 1935.94,1051.04 L 1937.82,1051.6 L 1940.53,1052.65 L 1943.05,1054.08 L 1946.29,1056.25 L 1949.28,1058.69 L 1951.72,1061.67 L 1953.89,1064.92 L 1955.32,1067.44 L 1956.36,1070.15 L 1956.93,1072.02 L 1957.56,1074.85 L 1957.78,1077.73 L 1957.78,1556.4 L 1957.56,1559.29 L 1956.93,1562.11 L 1956.36,1563.98 L 1955.32,1566.69 L 1953.89,1569.22 L 1951.72,1572.46 L 1949.28,1575.44 L 1790.9,1733.82 L 1787.92,1736.26 L 1784.68,1738.43 L 1781.27,1740.25 L 1777.58,1741.37 L 1773.76,1742.13 L 1769.91,1742.51 L 1766.07,1742.13 L 1762.24,1741.37 L 1758.55,1740.25 L 1755.15,1738.43 L 1751.91,1736.26 L 1749.62,1734.48 L 1747.63,1732.38 L 1746.38,1730.87 L 1744.72,1728.5 L 1743.41,1725.91 L 1741.92,1722.31 L 1740.82,1718.73 L 1740.43,1715 L 1740.25,1699.55 L 1738.33,1689.32 L 1733.77,1682.24 L 1726.99,1677.61 L 1715.97,1675.37 L 1642.97,1675.37 L 1632.87,1677.27 L 1625.78,1681.83 L 1621.15,1688.61 L 1618.92,1699.64 L 1618.92,1941.91 L 1620.82,1952.01 L 1625.37,1959.1 L 1632.16,1963.73 L 1643.19,1965.96 L 1716.16,1965.97 L 1726.28,1964.06 L 1733.36,1959.5 L 1738,1952.72 L 1740.23,1941.69 L 1740.23,1893.54 L 1740.61,1889.71 L 1741.37,1885.88 L 1742.49,1882.18 L 1744.31,1878.78 L 1746.48,1875.53 L 1748.26,1873.26 L 1750.35,1871.26 L 1751.86,1870.02 L 1754.24,1868.35 L 1756.83,1867.04 L 1760.44,1865.55 L 1764.12,1864.43 L 1766.53,1863.95 L 1768.1,1863.76 L 1772.68,1863.08 L 1776.41,1862.34 L 1780.91,1861.21 L 1782.42,1860.79 L 1782.77,1860.72 L 1783.06,1860.53 L 1784.44,1859.75 L 1788.41,1857.36 L 1791.57,1855.25 L 1795.29,1852.49 L 1796.55,1851.51 L 1799.31,1849.67 L 1993.91,1655.07 L 1996.89,1652.63 L 2000.13,1650.46 L 2003.54,1648.64 L 2007.23,1647.52 L 2011.06,1646.76 L 2013.93,1646.4 L 2016.82,1646.47 L 2018.77,1646.67 L 2022.55,1647.42 L 2024.42,1647.98 L 2027.13,1649.03 L 2029.66,1650.46 L 2032.9,1652.63 L 2035.88,1655.07 L 2038.33,1658.05 L 2040.49,1661.3 L 2042.31,1664.7 L 2043.43,1668.39 L 2044.2,1672.22 L 2044.58,1676.06 L 2044.58,1785.55 L 2045.22,1788.82 L 2045.42,1790.38 L 2046.1,1794.96 L 2046.84,1798.69 L 2047.96,1803.19 L 2048.38,1804.71 L 2048.45,1805.06 L 2048.65,1805.35 L 2049.43,1806.73 L 2051.81,1810.71 L 2053.92,1813.86 L 2056.68,1817.58 L 2057.65,1818.83 L 2059.51,1821.6 L 2361.57,2123.66 L 2364.02,2126.64 L 2366.18,2129.89 L 2368.01,2133.29 L 2369.13,2136.99 L 2369.89,2140.81 L 2370.26,2144.65 L 2369.89,2148.48 L 2369.13,2152.31 L 2368.01,2156.01 L 2366.18,2159.41 L 2364.02,2162.66 L 2361.57,2165.64 L 2358.59,2168.08 L 2355.34,2170.25 L 2351.94,2172.07 L 2348.25,2173.19 L 2344.43,2173.95 L 2340.58,2174.33 L 1767.96,2174.14 L 1765.08,2173.92 L 1762.26,2173.29 L 1760.38,2172.72 L 1757.67,2171.68 L 1755.15,2170.25 L 1751.91,2168.08 L 1748.93,2165.64 L 1746.48,2162.66 L 1744.31,2159.41 L 1742.88,2156.89 L 1741.84,2154.18 L 1741.27,2152.31 L 1740.64,2149.52 L 1740.43,2146.67 L 1740.24,2097.07 L 1738.33,2086.92 L 1733.77,2079.84 L 1726.99,2075.2 L 1715.97,2072.97 L 1642.97,2072.97 L 1632.87,2074.87 L 1625.78,2079.43 L 1621.15,2086.21 L 1618.92,2097.23 L 1618.92,2308.43 L 1618.54,2312.28 L 1617.78,2316.1 L 1616.66,2319.79 L 1614.84,2323.19 L 1612.67,2326.44 L 1610.22,2329.42 L 1607.24,2331.87 L 1604,2334.03 L 1600.59,2335.86 L 1596.89,2336.98 L 1593.07,2337.74 L 1589.23,2338.11 L 1585.4,2337.74 L 1581.57,2336.98 L 1577.88,2335.86 L 1574.47,2334.03 L 1571.23,2331.87 L 1568.25,2329.42 L 1548.95,2310.12 L 1546.5,2307.14 L 1544.33,2303.9 L 1542.9,2301.37 L 1541.86,2298.67 L 1541.29,2296.79 L 1540.66,2293.98 L 1540.45,2291.1 L 1540.26,2097.04 L 1538.35,2086.92 L 1533.79,2079.84 L 1527.01,2075.2 L 1515.99,2072.97 L 1442.99,2072.97 L 1432.89,2074.87 L 1425.8,2079.43 L 1421.17,2086.21 L 1418.94,2097.23 L 1418.94,2339.51 L 1420.84,2349.61 L 1425.4,2356.69 L 1432.18,2361.33 L 1443.21,2363.56 L 1465.83,2363.56 L 1469.66,2363.94 L 1473.49,2364.7 L 1476.29,2365.47 L 1478.94,2366.65 L 1480.66,2367.57 L 1483.09,2369.11 L 1485.27,2370.98 L 1545.8,2431.24 L 1548.28,2434.25 L 1550.44,2437.49 L 1552.27,2440.9 L 1553.39,2444.59 L 1554.15,2448.42 L 1554.5,2451.28 L 1554.43,2454.16 L 1554.24,2456.11 L 1553.75,2458.98 L 1552.83,2461.74 L 1551.34,2465.35 L 1549.52,2468.75 L 1547.07,2471.73 L 1544.31,2474.49 L 1541.33,2476.93 L 1537.93,2478.75 L 1534.32,2480.25 L 1530.65,2481.36 L 1526.84,2481.74 L 1446.52,2481.94 L 1442.63,2481.56 L 1438.8,2480.8 L 1435.11,2479.68 L 1431.71,2477.86 L 1428.47,2475.69 L 1425.48,2473.24 L 1341.04,2388.8 L 1339.74,2387.36 L 1338.49,2385.83 L 1336.81,2383.44 L 1335.5,2380.83 L 1334.01,2377.2 L 1332.9,2373.47 L 1332.54,2369.6 L 1332.56,2365.67 L 1332.79,2362.76 L 1333.46,2359.91 L 1334.05,2358.03 L 1335,2355.57 L 1336.27,2353.27 L 1337.98,2350.6 L 1340.28,2339.29 L 1340.28,2097.03 L 1338.37,2086.92 L 1333.82,2079.84 L 1327.03,2075.2 L 1316.01,2072.97 L 1243.01,2072.97 L 1232.91,2074.87 L 1225.82,2079.43 L 1221.19,2086.21 L 1218.96,2097.23 L 1218.96,2339.51 L 1220.86,2349.61 L 1225.91,2357.45 L 1227.64,2359.07 L 1229.57,2361.54 L 1231.69,2364.76 L 1233.47,2368.13 L 1234.57,2371.79 L 1235.31,2375.57 L 1235.68,2379.38 L 1235.68,2386.59 L 1236.34,2389.87 L 1236.53,2391.42 L 1237.21,2396 L 1237.95,2399.73 L 1239.07,2404.22 L 1239.49,2405.75 L 1239.56,2406.09 L 1239.76,2406.38 L 1240.54,2407.77 L 1242.93,2411.75 L 1245.03,2414.9 L 1247.79,2418.62 L 1248.76,2419.86 L 1250.62,2422.64 L 1382.84,2554.86 L 1385.61,2556.72 L 1386.86,2557.69 L 1390.58,2560.45 L 1393.74,2562.56 L 1397.72,2564.95 L 1399.11,2565.74 L 1399.39,2565.92 L 1399.73,2565.99 L 1401.25,2566.41 L 1405.75,2567.54 L 1409.48,2568.28 L 1414.06,2568.96 L 1415.63,2569.15 L 1418.9,2569.8 L 2359.39,2569.8 L 2363.22,2570.18 L 2367.05,2570.94 L 2369.85,2571.71 L 2372.49,2572.89 L 2374.22,2573.81 L 2377.43,2575.95 L 2378.94,2577.2 L 2381.04,2579.19 L 2382.82,2581.48 L 2384.99,2584.72 L 2386.81,2588.12 L 2387.93,2591.81 L 2388.69,2595.64 L 2389.07,2599.49 L 2389.07,2617.59 L 2390.97,2627.69 L 2395.53,2634.77 L 2402.31,2639.41 L 2413.34,2641.64 L 2465.85,2641.64 L 2476.9,2639.56 L 2479.06,2638.61 L 2482.05,2637.81 L 2485.86,2637.11 L 2488.71,2636.8 L 2491.58,2636.9 L 2493.52,2637.12 L 2496.15,2637.59 L 2498.69,2638.42 L 2499.99,2638.94 L 2513.33,2641.64 L 2565.84,2641.64 L 2576.89,2639.56 L 2579.05,2638.61 L 2582.04,2637.81 L 2585.85,2637.11 L 2588.7,2636.8 L 2591.57,2636.9 L 2593.51,2637.12 L 2596.14,2637.59 L 2598.68,2638.42 L 2599.97,2638.94 L 2613.32,2641.64 L 2665.83,2641.64 L 2676.88,2639.56 L 2679.04,2638.61 L 2682.03,2637.81 L 2685.84,2637.11 L 2688.69,2636.8 L 2691.56,2636.9 L 2693.49,2637.12 L 2696.13,2637.59 L 2698.67,2638.42 L 2699.96,2638.94 L 2713.31,2641.64 L 2765.82,2641.64 L 2776.87,2639.56 L 2779.03,2638.61 L 2782.02,2637.81 L 2785.83,2637.11 L 2788.68,2636.8 L 2791.55,2636.9 L 2793.48,2637.12 L 2796.12,2637.59 L 2798.66,2638.42 L 2799.95,2638.94 L 2813.3,2641.64 L 2865.81,2641.64 L 2875.92,2639.74 L 2883.01,2635.18 L 2887.64,2628.4 L 2889.88,2617.33 L 2890.07,2573.83 L 2890.29,2570.99 L 2890.91,2568.21 L 2891.48,2566.33 L 2892.52,2563.63 L 2893.95,2561.1 L 2896.12,2557.86 L 2898.57,2554.88 L 2901.55,2552.43 L 2904.79,2550.26 L 2907.32,2548.83 L 2910.02,2547.79 L 2911.9,2547.22 L 2914.72,2546.59 L 2917.6,2546.38 L 3351.35,2546.38 L 3354.23,2546.59 L 3357.05,2547.22 L 3358.93,2547.79 L 3361.64,2548.83 L 3364.16,2550.26 L 3367.4,2552.43 L 3370.38,2554.88 L 3372.83,2557.86 L 3375,2561.1 L 3376.82,2564.5 L 3377.94,2568.19 L 3378.7,2572.02 L 3379.08,2575.87 L 3379.08,2789.62 L 3533.67,2789.62 L 3534.43,2789 L 3537.83,2787.19 L 3541.52,2786.07 L 3545.36,2785.69 L 3667.39,2785.69 L 3671.23,2786.07 L 3674.92,2787.19 L 3678.33,2789 L 3681.31,2791.45 L 3683.76,2794.43 L 3685.58,2797.84 L 3686.7,2801.53 L 3687.08,2805.37 L 3687.08,2813.24 L 4151.6,2813.24 L 4151.6,2805.37 L 4151.98,2801.53 L 4153.1,2797.84 L 4154.92,2794.43 L 4157.36,2791.45 L 4160.35,2789 L 4163.75,2787.19 L 4167.44,2786.07 L 4171.28,2785.69 L 4293.31,2785.69 L 4297.15,2786.07 L 4300.84,2787.19 L 4304.25,2789 L 4307.23,2791.45 L 4309.68,2794.43 L 4310.77,2796.49 L 4312.99,2805.37 L 4312.99,2907.72 L 4312.01,2913.56 L 4311.49,2915.25 L 4309.68,2918.65 L 4307.23,2921.64 L 4304.25,2924.08 L 4300.84,2925.9 L 4297.15,2927.02 L 4293.31,2927.4 L 4171.28,2927.4 L 4167.44,2927.02 L 4163.75,2925.9 L 4160.35,2924.08 L 4157.36,2921.64 L 4154.92,2918.65 L 4153.1,2915.25 L 4151.98,2911.56 L 4151.6,2907.72 L 4151.6,2899.85 L 3687.08,2899.85 L 3687.08,2907.72 L 3686.7,2911.56 L 3685.58,2915.25 L 3683.76,2918.65 L 3681.31,2921.64 L 3678.33,2924.08 L 3674.92,2925.9 L 3671.23,2927.02 L 3667.39,2927.4 L 3545.36,2927.4 L 3541.52,2927.02 L 3537.83,2925.9 L 3534.43,2924.08 L 3531.44,2921.64 L 3529,2918.65 L 3527.18,2915.25 L 3526.06,2911.56 L 3525.68,2907.72 L 3525.68,2876.23 L 3379.08,2876.23 L 3379.08,2999.13 L 3378.7,3002.97 L 3377.94,3006.8 L 3377.17,3009.59 L 3375.99,3012.23 L 3375.07,3013.96 L 3373.52,3016.41 L 3371.63,3018.6 L 3368.87,3021.36 L 3365.89,3023.8 L 3362.48,3025.62 L 3358.88,3027.12 L 3355.46,3028.18 L 3351.9,3028.61 L 3346.71,3028.75 L 3343.18,3029.45 L 3341.61,3029.65 L 3337.02,3030.33 L 3333.29,3031.07 L 3328.79,3032.2 L 3327.28,3032.62 L 3326.93,3032.69 L 3326.64,3032.88 L 3325.26,3033.66 L 3321.29,3036.04 L 3318.13,3038.15 L 3314.41,3040.91 L 3313.14,3041.9 L 3310.39,3043.74 L 3240.79,3113.33 L 3237.81,3115.78 L 3234.57,3117.95 L 3231.17,3119.77 L 3227.48,3120.89 L 3223.65,3121.65 L 3219.81,3122.03 L 2825.83,3122.03 L 2821.83,3122.51 L 2819.46,3122.66 L 2559.48,3122.66 L 2557.55,3122.56 L 2552.94,3122.11 L 2552.22,3122.02 L 2549.5,3121.65 L 2547.02,3121.15 L 2544.62,3120.34 L 2541.02,3118.85 L 2538.54,3117.61 L 2536.26,3116.04 L 2530.5,3111.43 L 2528.86,3109.97 L 2508.86,3089.98 L 2507.29,3088.2 L 2504.8,3085.02 L 2492.12,3072.34 L 2489.67,3069.36 L 2487.51,3066.12 L 2485.68,3062.71 L 2484.56,3059.01 L 2483.81,3055.19 L 2483.43,3051.31 L 2483.62,2975.4 L 2483.84,2972.54 L 2484.46,2969.74 L 2485.03,2967.86 L 2486.08,2965.16 L 2487.51,2962.63 L 2489.67,2959.39 L 2492.12,2956.41 L 2495.1,2953.96 L 2496.18,2953.24 L 2496.18,2941.01 L 2493.99,2938.34 L 2492.17,2934.93 L 2491.05,2931.24 L 2490.67,2927.4 L 2490.67,2738.45 L 2491.05,2734.61 L 2492.17,2730.91 L 2493.99,2727.51 L 2496.44,2724.53 L 2499.42,2722.08 L 2499.81,2721.88 L 2499.8,2720.63 L 2497.82,2721.23 L 2493.95,2721.99 L 2490.08,2722.36 L 2486.21,2721.96 L 2482.35,2721.17 L 2479.5,2720.36 L 2477.93,2719.64 L 2465.65,2717.15 L 2413.12,2717.15 L 2403.02,2719.05 L 2395.94,2723.61 L 2391.3,2730.39 L 2389.07,2741.41 L 2389.07,2924.64 L 2391.03,2935.07 L 2392.05,2936.78 L 2393.55,2939.86 L 2394.48,2943.15 L 2395.2,2946.87 L 2395.56,2950.6 L 2395.56,3078.93 L 2396.21,3082.21M 1138.69,1780.99 L 1139.32,1780.99 L 1139.32,1692.63 L 1136.22,1685.16 L 1130.51,1679.45 L 1123.05,1676.35 L 1122.94,1676.35 L 1122.94,1677.39 L 1126.54,1678.49 L 1129.94,1680.3 L 1132.92,1682.75 L 1135.37,1685.73 L 1137.19,1689.14 L 1138.31,1692.83 L 1138.69,1696.67 L 1138.69,1780.99M 1019.96,1780.99 L 1020.59,1780.99 L 1020.59,1696.67 L 1020.97,1692.83 L 1022.09,1689.14 L 1023.91,1685.73 L 1026.36,1682.75 L 1029.34,1680.3 L 1032.74,1678.49 L 1036.34,1677.39 L 1036.34,1676.35 L 1036.23,1676.35 L 1028.76,1679.45 L 1023.05,1685.16 L 1019.96,1692.62 L 1019.96,1780.99M 400.265,3239.89 L 418.829,3212.11 L 425.348,3179.34 L 418.831,3146.58 L 400.267,3118.79 L 372.484,3100.23 L 339.717,3093.71 L 306.949,3100.23 L 279.168,3118.79 L 260.604,3146.58 L 254.086,3179.34 L 260.602,3212.11 L 279.166,3239.89 L 306.947,3258.46 L 339.717,3264.97 L 372.482,3258.46 L 400.265,3239.89M 999.961,2789.39 L 1000.59,2789.39 L 1000.59,2730.26 L 1000.97,2726.42 L 1002.09,2722.73 L 1003.91,2719.32 L 1006.36,2716.34 L 1009.34,2713.89 L 1012.74,2712.08 L 1016.44,2710.96 L 1020.28,2710.58 L 1025.64,2710.58 L 1024.99,2709.95 L 1016.23,2709.94 L 1008.77,2713.04 L 1003.05,2718.75 L 999.961,2726.21 L 999.961,2789.39M 1119.32,2868.75 L 1118.69,2868.75 L 1118.69,2927.87 L 1118.31,2931.71 L 1117.19,2935.41 L 1115.37,2938.81 L 1112.92,2941.79 L 1109.94,2944.24 L 1106.54,2946.06 L 1102.94,2947.15 L 1102.94,2948.19 L 1103.04,2948.19 L 1110.51,2945.09 L 1116.23,2939.38 L 1119.32,2931.91 L 1119.32,2868.75M 1000.59,2868.75 L 999.961,2868.75 L 999.959,2931.91 L 1003.05,2939.38 L 1008.76,2945.09 L 1016.24,2948.19 L 1016.34,2948.19 L 1016.34,2947.15 L 1012.74,2946.06 L 1009.34,2944.24 L 1006.36,2941.79 L 1003.91,2938.81 L 1002.09,2935.41 L 1000.97,2931.71 L 1000.59,2927.87 L 1000.59,2868.75M 1019.96,1903.75 L 1020.59,1903.12 L 1020.59,1860.35 L 1019.96,1860.35 L 1019.96,1903.75M 1139.32,1948.71 L 1139.32,1860.35 L 1138.69,1860.35 L 1138.69,1944.67 L 1138.31,1948.51 L 1137.19,1952.2 L 1135.37,1955.6 L 1132.92,1958.59 L 1129.94,1961.04 L 1126.54,1962.85 L 1122.85,1963.97 L 1119.32,1964.32 L 1119.32,1964.99 L 1123.04,1964.99 L 1130.51,1961.89 L 1136.22,1956.18 L 1139.32,1948.71M 1160.29,1025.72 L 1160.3,833.861 L 1158.39,823.746 L 1153.83,816.665 L 1147.05,812.03 L 1136.03,809.798 L 1063.03,809.796 L 1052.93,811.698 L 1045.85,816.255 L 1041.21,823.038 L 1038.98,834.059 L 1038.98,1025.94 L 1040.88,1036.05 L 1045.44,1043.13 L 1052.22,1047.76 L 1063.25,1050 L 1136.23,1050 L 1146.34,1048.1 L 1153.42,1043.54 L 1158.06,1036.76 L 1160.29,1025.72M 400.265,440.191 L 418.831,412.408 L 425.348,379.642 L 418.829,346.871 L 400.267,319.092 L 372.484,300.528 L 339.717,294.011 L 306.949,300.526 L 279.168,319.09 L 260.604,346.871 L 254.084,379.642 L 260.602,412.406 L 279.166,440.189 L 306.947,458.753 L 339.717,465.273 L 372.482,458.755 L 400.265,440.191M 959.339,772.142 L 959.339,708.977 L 958.707,708.977 L 958.707,768.104 L 958.327,771.944 L 957.207,775.635 L 955.39,779.037 L 952.942,782.021 L 949.958,784.469 L 946.557,786.286 L 942.961,787.378 L 942.961,788.418 L 943.059,788.418 L 950.53,785.322 L 956.244,779.611 L 959.339,772.142M 840.612,708.977 L 839.978,708.977 L 839.976,772.144 L 843.068,779.609 L 848.781,785.322 L 856.252,788.418 L 856.358,788.418 L 856.356,787.378 L 852.761,786.286 L 849.359,784.469 L 846.375,782.021 L 843.927,779.037 L 842.11,775.635 L 840.99,771.944 L 840.612,768.104 L 840.612,708.977M 843.07,558.979 L 839.978,566.444 L 839.978,629.617 L 840.612,629.617 L 840.612,570.489 L 840.99,566.648 L 842.11,562.956 L 843.927,559.554 L 846.375,556.571 L 849.359,554.123 L 852.761,552.305 L 856.452,551.185 L 859.978,550.837 L 859.98,550.175 L 856.25,550.173 L 848.783,553.267 L 843.07,558.979M 939.339,550.175 L 939.339,550.837 L 942.865,551.185 L 946.557,552.305 L 949.958,554.123 L 951.954,555.761 L 952.49,555.225 L 950.532,553.267 L 943.065,550.175 L 939.339,550.175M 2701.03,2946.21 L 2713.31,2948.69 L 2765.82,2948.7 L 2776.49,2946.69 L 2776.52,2946.67 L 2779.47,2945.3 L 2782.61,2944.44 L 2786.37,2943.73 L 2790.14,2943.39 L 2793.91,2943.78 L 2796.15,2944.24 L 2796.15,2941.01 L 2793.96,2938.34 L 2792.14,2934.93 L 2791.02,2931.24 L 2790.64,2927.4 L 2790.64,2738.45 L 2791.02,2734.61 L 2792.14,2730.91 L 2793.96,2727.51 L 2796.41,2724.53 L 2799.39,2722.08 L 2799.77,2721.88 L 2799.77,2720.63 L 2797.79,2721.23 L 2793.92,2721.99 L 2790.05,2722.36 L 2786.18,2721.96 L 2782.32,2721.17 L 2779.47,2720.36 L 2777.9,2719.64 L 2765.62,2717.15 L 2713.09,2717.15 L 2702.43,2719.16 L 2702.39,2719.18 L 2699.44,2720.55 L 2696.3,2721.41 L 2692.54,2722.11 L 2688.77,2722.45 L 2685.01,2722.06 L 2681.25,2721.3 L 2679.15,2720.66 L 2679.15,2721.88 L 2679.54,2722.08 L 2682.52,2724.53 L 2684.97,2727.51 L 2686.79,2730.91 L 2687.91,2734.61 L 2688.29,2738.45 L 2688.29,2927.4 L 2687.91,2931.24 L 2686.79,2934.93 L 2684.97,2938.34 L 2682.78,2941.01 L 2682.77,2944.29 L 2685,2943.86 L 2688.88,2943.49 L 2692.75,2943.89 L 2696.61,2944.68 L 2699.47,2945.5 L 2701.03,2946.21M 2588.3,2793.24 L 2590.66,2793.24 L 2590.66,2738.45 L 2591.04,2734.61 L 2592.16,2730.91 L 2593.98,2727.51 L 2596.43,2724.53 L 2599.41,2722.08 L 2599.79,2721.88 L 2599.79,2720.71 L 2597.14,2721.52 L 2593.31,2722.28 L 2589.48,2722.65 L 2585.64,2722.28 L 2581.82,2721.52 L 2579.16,2720.71 L 2579.16,2721.88 L 2579.55,2722.08 L 2582.53,2724.53 L 2584.98,2727.51 L 2586.8,2730.91 L 2587.92,2734.61 L 2588.3,2738.45 L 2588.3,2793.24M 2590.66,2872.6 L 2588.3,2872.6 L 2588.3,2927.4 L 2587.92,2931.24 L 2586.8,2934.93 L 2584.98,2938.34 L 2582.79,2941.01 L 2582.78,2944.14 L 2585.64,2943.57 L 2589.48,2943.19 L 2593.31,2943.57 L 2596.17,2944.14 L 2596.17,2941.01 L 2593.98,2938.34 L 2592.16,2934.93 L 2591.04,2931.24 L 2590.66,2927.4 L 2590.66,2872.6M 2888.9,2789.62 L 2888.9,2734.41 L 2885.8,2726.94 L 2880.09,2721.22 L 2879.13,2720.83 L 2879.13,2721.88 L 2879.51,2722.08 L 2882.5,2724.53 L 2884.95,2727.51 L 2886.76,2730.91 L 2887.88,2734.61 L 2888.26,2738.45 L 2888.26,2789.62 L 2888.9,2789.62M 2888.26,2876.23 L 2888.26,2927.4 L 2887.88,2931.24 L 2886.76,2934.93 L 2884.95,2938.34 L 2882.75,2941.01 L 2882.75,2941.96 L 2885.8,2938.91 L 2888.9,2931.44 L 2888.9,2876.23 L 2888.26,2876.23M 2699.15,787.754 L 2699.15,788.418 L 2702.87,788.418 L 2710.34,785.322 L 2716.06,779.611 L 2719.15,772.142 L 2719.15,708.977 L 2718.52,708.977 L 2718.52,768.104 L 2718.14,771.944 L 2717.02,775.635 L 2715.2,779.037 L 2712.75,782.021 L 2709.77,784.469 L 2706.37,786.286 L 2702.68,787.406 L 2699.15,787.754M 2702.88,550.175 L 2699.15,550.175 L 2699.15,550.837 L 2702.68,551.185 L 2706.37,552.305 L 2709.77,554.123 L 2712.75,556.571 L 2715.2,559.554 L 2717.02,562.956 L 2718.14,566.648 L 2718.52,570.489 L 2718.52,629.617 L 2719.15,629.617 L 2719.15,566.45 L 2716.06,558.981 L 2710.34,553.267 L 2702.88,550.175M 2599.79,712.598 L 2599.79,772.144 L 2602.88,779.609 L 2608.59,785.322 L 2616.06,788.418 L 2619.79,788.418 L 2619.79,787.754 L 2616.26,787.406 L 2612.57,786.286 L 2609.17,784.469 L 2606.19,782.021 L 2603.74,779.037 L 2601.92,775.635 L 2600.8,771.944 L 2600.42,768.104 L 2600.42,712.598 L 2599.79,712.598M 2600.42,625.995 L 2600.42,570.489 L 2600.8,566.648 L 2601.92,562.956 L 2603.74,559.554 L 2606.19,556.571 L 2609.17,554.123 L 2612.57,552.305 L 2616.26,551.185 L 2619.79,550.837 L 2619.79,550.175 L 2616.06,550.173 L 2608.6,553.267 L 2602.88,558.979 L 2599.79,566.444 L 2599.79,625.995 L 2600.42,625.995M 4426.51,418.757 L 4459.28,425.277 L 4492.04,418.759 L 4519.83,400.195 L 4538.39,372.412 L 4544.91,339.646 L 4538.39,306.877 L 4519.83,279.096 L 4492.05,260.532 L 4459.28,254.015 L 4426.51,260.53 L 4398.73,279.094 L 4380.17,306.875 L 4373.65,339.646 L 4380.16,372.41 L 4398.73,400.193 L 4426.51,418.757M 818.752,2224.49 L 818.548,2225.43 L 817.914,2228.01 L 817.188,2231.76 L 816.534,2236.35 L 816.398,2237.49 L 815.728,2241.07 L 815.728,2953.49 L 815.629,2955.46 L 815.429,2957.45 L 814.915,2960.35 L 813.975,2963.13 L 812.429,2966.79 L 810.653,2970.08 L 808.287,2972.98 L 807.203,2974.07 L 801.236,2982.81 L 800.612,2985.89 L 800.612,3194.26 L 800.904,3195.82 L 805.462,3202.9 L 812.245,3207.53 L 823.274,3209.77 L 896.256,3209.77 L 906.369,3207.87 L 913.45,3203.31 L 918.086,3196.53 L 920.319,3185.5 L 920.321,2993.63 L 918.418,2983.52 L 913.408,2975.73 L 912.306,2974.76 L 910.846,2973.14 L 909.627,2971.64 L 907.523,2968.45 L 906.617,2966.73 L 905.465,2964.1 L 904.709,2961.33 L 903.965,2957.55 L 903.597,2953.75 L 903.597,2390.56 L 903.691,2388.63 L 903.885,2386.66 L 904.387,2383.78 L 905.309,2381.01 L 906.823,2377.39 L 908.669,2373.96 L 911.148,2370.97 L 913.942,2368.21 L 916.158,2366.32 L 918.628,2364.78 L 920.375,2363.86 L 922.645,2362.85 L 925.025,2362.13 L 925.983,2361.9 L 933.45,2357.1 L 938.083,2350.32 L 940.319,2339.29 L 940.319,2097.03 L 938.417,2086.92 L 933.858,2079.84 L 927.073,2075.2 L 924.001,2074.58 L 834.5,2074.58 L 832.951,2074.87 L 825.867,2079.43 L 821.234,2086.21 L 819.002,2097.23 L 819.002,2221.81 L 818.752,2224.49 z " style="fill-opacity:1.000000;fill:rgb(90,37,93);stroke:rgb(0,0,0);stroke-width:2"/></g>
<g fill-rule="evenodd"><path d="M 2506.67,2639.67 L 2506.21,2639.56 L 2502.82,2638.53 L 2499.42,2636.71 L 2496.44,2634.27 L 2493.99,2631.28 L 2492.17,2627.88 L 2491.05,2624.19 L 2490.67,2620.35 L 2490.67,2431.39 L 2491.05,2427.55 L 2492.17,2423.86 L 2493.99,2420.46 L 2496.18,2417.79 L 2496.18,2411.71 L 2377.91,2411.71 L 2339.57,2450.04 L 2338.14,2451.34 L 2334.56,2454.28 L 2331.35,2456.42 L 2327.27,2458.6 L 2323.72,2460.08 L 2319.29,2461.42 L 2315.49,2462.18 L 2310.89,2462.63 L 2308.96,2462.73 L 1596.12,2462.73 L 1594.19,2462.63 L 1589.58,2462.18 L 1585.79,2461.42 L 1581.36,2460.08 L 1577.8,2458.6 L 1573.72,2456.42 L 1570.5,2454.27 L 1566.93,2451.34 L 1565.5,2450.04 L 1477.41,2361.95 L 1440.23,2361.95 L 1436.39,2361.57 L 1432.7,2360.45 L 1429.3,2358.63 L 1426.31,2356.18 L 1423.87,2353.2 L 1422.05,2349.8 L 1420.93,2346.11 L 1420.55,2342.27 L 1420.55,2094.27 L 1420.93,2090.42 L 1422.05,2086.73 L 1423.87,2083.33 L 1426.31,2080.35 L 1429.3,2077.9 L 1432.7,2076.08 L 1436.39,2074.96 L 1440.23,2074.58 L 1518.96,2074.58 L 1522.8,2074.96 L 1526.49,2076.08 L 1529.9,2077.9 L 1532.88,2080.35 L 1535.33,2083.33 L 1537.15,2086.73 L 1538.27,2090.42 L 1538.65,2094.27 L 1538.65,2300.71 L 1614.05,2376.13 L 2291.02,2376.13 L 2329.36,2337.79 L 2330.79,2336.49 L 2334.37,2333.55 L 2337.58,2331.41 L 2341.66,2329.23 L 2345.21,2327.75 L 2349.64,2326.41 L 2353.44,2325.65 L 2358.05,2325.2 L 2359.98,2325.11 L 2523.74,2325.11 L 2525.66,2325.2 L 2530.26,2325.65 L 2534.05,2326.4 L 2538.49,2327.75 L 2542.05,2329.23 L 2546.13,2331.41 L 2549.34,2333.55 L 2552.92,2336.49 L 2554.35,2337.79 L 2570.1,2353.53 L 2571.4,2354.97 L 2574.34,2358.55 L 2576.48,2361.75 L 2578.66,2365.83 L 2580.14,2369.4 L 2581.48,2373.83 L 2582.23,2377.61 L 2582.69,2382.22 L 2582.79,2384.15 L 2582.78,2417.79 L 2584.98,2420.46 L 2586.8,2423.86 L 2587.92,2427.55 L 2588.3,2431.39 L 2588.3,2620.35 L 2587.92,2624.19 L 2586.8,2627.88 L 2584.98,2631.28 L 2582.53,2634.27 L 2579.55,2636.71 L 2576.15,2638.53 L 2572.45,2639.65 L 2568.61,2640.03 L 2510.36,2640.03 L 2506.67,2639.67 z " style="fill-opacity:1.000000;fill:rgb(5,23,88);stroke:rgb(0,0,0);stroke-width:2"/></g>
<g fill-rule="evenodd"><path d="M 2602.5,1835.42 L 2601.37,1829.12 L 2601.37,1829.09 L 2601.37,1758.24 L 2601.37,1758.22 L 2603.59,1749.36 L 2604.69,1747.3 L 2607.13,1744.32 L 2610.12,1741.87 L 2613.52,1740.05 L 2617.21,1738.93 L 2621.05,1738.56 L 2720.21,1738.55 L 2722.55,1737.74 L 2724.8,1737.1 L 2727.11,1736.74 L 2731.71,1736.29 L 2733.64,1736.19 L 3343.89,1736.19 L 3344.27,1732.35 L 3345.39,1728.66 L 3347.2,1725.26 L 3349.65,1722.27 L 3352.63,1719.83 L 3356.04,1718.01 L 3359.73,1716.89 L 3363.57,1716.51 L 3725.73,1716.51 L 3729.57,1716.89 L 3733.27,1718.01 L 3736.67,1719.83 L 3739.65,1722.27 L 3742.1,1725.26 L 3743.92,1728.66 L 3745.04,1732.35 L 3745.42,1736.19 L 3745.42,1822.8 L 3745.04,1826.64 L 3743.92,1830.33 L 3742.1,1833.73 L 3739.65,1836.71 L 3736.67,1839.16 L 3733.27,1840.98 L 3729.57,1842.1 L 3725.73,1842.48 L 3363.57,1842.48 L 3359.73,1842.1 L 3356.04,1840.98 L 3352.63,1839.16 L 3349.65,1836.71 L 3347.2,1833.73 L 3345.39,1830.33 L 3344.27,1826.64 L 3343.89,1822.8 L 2837.56,1822.8 L 2837.56,1829.09 L 2837.18,1832.93 L 2836.06,1836.62 L 2834.24,1840.03 L 2831.8,1843.01 L 2828.81,1845.46 L 2825.41,1847.28 L 2821.72,1848.4 L 2817.88,1848.78 L 2621.05,1848.78 L 2617.21,1848.4 L 2613.52,1847.28 L 2610.12,1845.46 L 2607.13,1843.01 L 2604.69,1840.03 L 2602.87,1836.62 L 2602.5,1835.42 z " style="fill-opacity:1.000000;fill:rgb(233,94,212);stroke:rgb(0,0,0);stroke-width:2"/></g>
<g fill-rule="evenodd"><path d="M 2999.1,1422.82 L 2997.52,1422.63 L 2992.93,1421.94 L 2989.21,1421.2 L 2984.71,1420.08 L 2983.79,1419.82 L 2982.01,1419.08 L 2981.17,1418.61 L 2977.2,1416.23 L 2974.04,1414.12 L 2970.32,1411.36 L 2969.07,1410.38 L 2968.82,1410.15 L 2828.83,1270.17 L 2828.6,1269.91 L 2827.62,1268.66 L 2824.86,1264.94 L 2822.76,1261.79 L 2820.37,1257.81 L 2819.9,1256.98 L 2819.16,1255.18 L 2818.9,1254.27 L 2817.78,1249.77 L 2817.04,1246.05 L 2816.36,1241.46 L 2816.17,1239.91 L 2816.15,1239.55 L 2816.15,1047.98 L 2812.55,1046.89 L 2809.15,1045.07 L 2806.17,1042.62 L 2803.72,1039.64 L 2801.9,1036.24 L 2800.78,1032.55 L 2800.4,1028.71 L 2800.4,831.092 L 2800.78,827.25 L 2801.9,823.558 L 2803.72,820.157 L 2806.17,817.173 L 2809.15,814.725 L 2812.55,812.908 L 2816.24,811.788 L 2820.09,811.41 L 2898.82,811.41 L 2902.66,811.788 L 2906.35,812.908 L 2909.75,814.725 L 2912.73,817.173 L 2915.18,820.157 L 2917,823.558 L 2918.12,827.25 L 2918.5,831.092 L 2918.5,1028.71 L 2918.12,1032.55 L 2917,1036.24 L 2915.24,1039.54 L 2915.01,1039.85 L 2912.73,1042.62 L 2909.75,1045.07 L 2906.35,1046.89 L 2902.75,1047.98 L 2902.75,1221.62 L 3017.37,1336.23 L 3343.89,1336.24 L 3344.27,1332.39 L 3345.39,1328.7 L 3347.2,1325.3 L 3349.65,1322.32 L 3352.63,1319.87 L 3356.04,1318.05 L 3359.73,1316.93 L 3363.57,1316.55 L 3725.73,1316.55 L 3729.57,1316.93 L 3733.27,1318.05 L 3736.67,1319.87 L 3739.65,1322.32 L 3742.1,1325.3 L 3743.92,1328.7 L 3745.04,1332.39 L 3745.42,1336.24 L 3745.42,1422.84 L 3745.04,1426.68 L 3743.92,1430.37 L 3742.1,1433.77 L 3739.65,1436.76 L 3736.67,1439.2 L 3733.27,1441.02 L 3729.57,1442.14 L 3725.73,1442.52 L 3363.57,1442.52 L 3359.73,1442.14 L 3356.04,1441.02 L 3352.63,1439.2 L 3349.65,1436.76 L 3347.2,1433.77 L 3345.39,1430.37 L 3344.27,1426.68 L 3343.89,1422.84 L 2999.44,1422.84 L 2999.1,1422.82 z " style="fill-opacity:1.000000;fill:rgb(171,178,205);stroke:rgb(0,0,0);stroke-width:2"/></g>
</svg>
