<?xml version="1.0" standalone="no"?>
<!DOCTYPE svg PUBLIC "-//W3C//DTD SVG 1.1//EN"
"http://www.w3.org/Graphics/SVG/1.1/DTD/svg11.dtd">
<svg width="4560" height="3270" viewBox="0 0 4560 3270" version="1.1"
xmlns="http://www.w3.org/2000/svg"
xmlns:xlink="http://www.w3.org/1999/xlink">
<g fill-rule="evenodd"><path d="M 2470.85,2520.76 L 2470.85,2331.8 L 2529.11,2331.8 L 2529.11,2520.76 L 2470.85,2520.76 z " style="fill-opacity:1.000000;fill:rgb(103,198,105);stroke:rgb(0,0,0);stroke-width:2"/></g>
<g fill-rule="evenodd"><path d="M 2570.85,2827.83 L 2570.85,2638.86 L 2629.11,2638.86 L 2629.11,2827.83 L 2570.85,2827.83 z " style="fill-opacity:1.000000;fill:rgb(115,81,255);stroke:rgb(0,0,0);stroke-width:2"/></g>
<g fill-rule="evenodd"><path d="M 2570.85,2520.76 L 2570.85,2331.8 L 2629.11,2331.8 L 2629.11,2520.76 L 2570.85,2520.76 z " style="fill-opacity:1.000000;fill:rgb(74,236,41);stroke:rgb(0,0,0);stroke-width:2"/></g>
<g fill-rule="evenodd"><path d="M 920.728,929.065 L 920.728,731.443 L 999.462,731.443 L 999.462,929.065 L 920.728,929.065 z " style="fill-opacity:1.000000;fill:rgb(205,186,171);stroke:rgb(0,0,0);stroke-width:2"/></g>
<g fill-rule="evenodd"><path d="M 1720.67,929.065 L 1720.67,731.443 L 1799.4,731.443 L 1799.4,929.065 L 1720.67,929.065 z " style="fill-opacity:1.000000;fill:rgb(242,251,227);stroke:rgb(0,0,0);stroke-width:2"/></g>
<g fill-rule="evenodd"><path d="M 1579.42,2142.29 L 1579.42,2242.67 L 1500.69,2242.67 L 1500.69,1994.66 L 1579.42,1994.66 L 1579.42,2095.04 L 2512.4,2095.04 L 2517.01,2095.5 L 2521.44,2096.84 L 2525.52,2099.02 L 2529.1,2101.96 L 2716.67,2289.53 L 2719.61,2293.11 L 2721.79,2297.19 L 2723.14,2301.62 L 2723.59,2306.23 L 2723.59,2331.8 L 2729.1,2331.8 L 2729.1,2379.04 L 3405.9,2379.04 L 3405.9,2351.48 L 3527.94,2351.48 L 3527.94,2379.04 L 4031.84,2379.04 L 4031.84,2351.48 L 4153.88,2351.48 L 4153.88,2453.84 L 4031.84,2453.84 L 4031.84,2426.28 L 3527.94,2426.28 L 3527.94,2453.84 L 3405.9,2453.84 L 3405.9,2426.28 L 2733.37,2426.28 L 2729.1,2430.55 L 2729.1,2520.76 L 2670.84,2520.76 L 2670.84,2331.8 L 2676.35,2331.8 L 2676.35,2316.02 L 2502.62,2142.29 L 1579.42,2142.29 z " style="fill-opacity:1.000000;fill:rgb(70,124,194);stroke:rgb(0,0,0);stroke-width:2"/></g>
<g fill-rule="evenodd"><path d="M 2270.87,2402.66 L 2270.87,2331.8 L 2329.13,2331.8 L 2329.13,2520.76 L 2270.87,2520.76 L 2270.87,2449.9 L 1276.45,2449.9 L 1271.84,2449.45 L 1267.41,2448.1 L 1263.32,2445.92 L 1259.75,2442.98 L 1123.38,2306.61 L 1120.44,2303.03 L 1118.26,2298.95 L 1116.91,2294.52 L 1116.46,2289.91 L 1116.46,2242.67 L 1100.72,2242.67 L 1100.72,1994.66 L 1179.45,1994.66 L 1179.45,2242.67 L 1163.7,2242.67 L 1163.7,2280.13 L 1286.23,2402.66 L 2270.87,2402.66 z " style="fill-opacity:1.000000;fill:rgb(84,248,27);stroke:rgb(0,0,0);stroke-width:2"/></g>
<g fill-rule="evenodd"><path d="M 2276.38,2827.83 L 2270.87,2827.83 L 2270.87,2638.86 L 2329.13,2638.86 L 2329.13,2827.83 L 2323.62,2827.83 L 2323.62,2972.49 L 2393.9,3042.77 L 3101.05,3042.77 L 3187.35,2956.47 L 3190.93,2953.53 L 3195.02,2951.35 L 3199.45,2950 L 3204.06,2949.55 L 4074.2,2949.55 L 4193.25,2830.51 L 4193.25,2310.88 L 4032.45,2150.08 L 2642.68,2150.08 L 2638.07,2149.63 L 2633.64,2148.28 L 2629.55,2146.1 L 2625.98,2143.16 L 2532.9,2050.09 L 2286.61,2050.09 L 2282,2049.63 L 2277.57,2048.29 L 2273.49,2046.11 L 2269.91,2043.17 L 1932.3,1705.55 L 1929.36,1701.98 L 1927.18,1697.89 L 1925.83,1693.46 L 1925.38,1688.85 L 1925.38,538.721 L 1731.51,344.855 L 1358.83,344.855 L 1199.45,504.232 L 1199.45,668.454 L 1163.7,668.454 L 1163.7,1597.05 L 1179.45,1597.05 L 1179.45,1845.06 L 1100.72,1845.06 L 1100.72,1597.05 L 1116.46,1597.05 L 1116.46,589.641 L 1116.91,585.032 L 1118.26,580.602 L 1120.71,576.188 L 1120.71,470.832 L 1166.04,470.832 L 1332.34,304.532 L 1335.92,301.594 L 1340,299.412 L 1344.43,298.066 L 1349.04,297.615 L 1741.3,297.615 L 1745.9,298.066 L 1750.33,299.41 L 1754.42,301.594 L 1758,304.532 L 1965.7,512.235 L 1968.64,515.813 L 1970.82,519.896 L 1972.17,524.328 L 1972.62,528.938 L 1972.62,1679.07 L 2296.4,2002.85 L 2542.69,2002.85 L 2547.29,2003.3 L 2551.72,2004.64 L 2555.81,2006.83 L 2559.39,2009.76 L 2652.46,2102.84 L 4042.23,2102.84 L 4046.84,2103.29 L 4051.27,2104.64 L 4055.36,2106.82 L 4058.94,2109.76 L 4233.57,2284.39 L 4236.5,2287.97 L 4238.69,2292.05 L 4240.03,2296.48 L 4240.49,2301.09 L 4240.49,2840.29 L 4240.03,2844.9 L 4238.69,2849.33 L 4236.5,2853.41 L 4233.57,2856.99 L 4100.69,2989.87 L 4097.11,2992.81 L 4093.03,2994.99 L 4088.6,2996.34 L 4083.99,2996.79 L 3213.84,2996.79 L 3127.53,3083.09 L 3123.95,3086.03 L 3119.87,3088.21 L 3115.44,3089.56 L 3110.83,3090.01 L 2384.11,3090.01 L 2379.5,3089.56 L 2375.07,3088.21 L 2370.99,3086.03 L 2367.41,3083.09 L 2283.3,2998.98 L 2280.36,2995.4 L 2278.17,2991.31 L 2276.83,2986.88 L 2276.38,2982.28 L 2276.38,2827.83 z " style="fill-opacity:1.000000;fill:rgb(232,231,141);stroke:rgb(0,0,0);stroke-width:2"/></g>
<g fill-rule="evenodd"><path d="M 1363.69,1597.05 L 1379.43,1597.05 L 1379.43,1845.06 L 1300.7,1845.06 L 1300.7,1597.05 L 1316.45,1597.05 L 1316.45,1549.81 L 1316.9,1545.2 L 1318.25,1540.77 L 1320.43,1536.69 L 1323.37,1533.11 L 1536.43,1320.04 L 1536.43,668.454 L 1520.68,668.454 L 1520.68,470.832 L 1599.42,470.832 L 1599.42,668.454 L 1583.67,668.454 L 1583.67,1329.82 L 1583.22,1334.43 L 1581.87,1338.86 L 1579.69,1342.95 L 1576.75,1346.52 L 1363.69,1559.59 L 1363.69,1597.05 z " style="fill-opacity:1.000000;fill:rgb(118,90,46);stroke:rgb(0,0,0);stroke-width:2"/></g>
<g fill-rule="evenodd"><path d="M 955.972,3270 L 602.353,3270 L 597.743,3269.55 L 593.312,3268.2 L 589.228,3266.02 L 585.65,3263.08 L 514.445,3191.88 L 511.508,3188.3 L 509.324,3184.21 L 507.98,3179.78 L 507.528,3175.17 L 507.528,1928.39 L 507.98,1923.78 L 509.326,1919.35 L 511.508,1915.27 L 514.445,1911.69 L 700.744,1725.39 L 700.744,1597.05 L 779.478,1597.05 L 779.478,1845.06 L 700.744,1845.06 L 700.744,1792.2 L 554.769,1938.17 L 554.769,3165.39 L 612.136,3222.76 L 946.186,3222.76 L 1032.65,3136.3 L 1036.23,3133.36 L 1040.31,3131.18 L 1044.74,3129.83 L 1049.35,3129.38 L 3136.92,3129.38 L 3223.23,3043.08 L 3226.81,3040.14 L 3230.89,3037.96 L 3235.32,3036.61 L 3239.93,3036.16 L 4110.08,3036.16 L 4316.23,2830.01 L 4316.23,2311.38 L 4068.33,2063.47 L 2678.55,2063.47 L 2673.94,2063.02 L 2669.51,2061.67 L 2665.43,2059.49 L 2661.85,2056.55 L 2401.87,1796.57 L 2398.93,1792.99 L 2396.75,1788.91 L 2395.4,1784.48 L 2394.95,1779.87 L 2394.95,1564.14 L 2395.4,1559.53 L 2396.75,1555.1 L 2398.93,1551.02 L 2401.87,1547.44 L 2481.56,1467.74 L 2481.56,1430.29 L 2678.4,1430.29 L 2678.4,1456.27 L 3224.1,1456.27 L 3224.1,1436.59 L 3586.28,1436.59 L 3586.28,1456.27 L 3706.41,1456.27 L 3755.56,1407.12 L 3755.56,1054.73 L 4495.67,1054.73 L 4495.67,1905.06 L 3755.56,1905.06 L 3755.56,1473.93 L 3732.9,1496.59 L 3729.32,1499.53 L 3725.23,1501.71 L 3720.8,1503.06 L 3716.19,1503.51 L 3586.28,1503.51 L 3586.28,1523.2 L 3224.1,1523.2 L 3224.1,1503.51 L 2594.15,1503.51 L 2589.54,1503.06 L 2584.05,1501.15 L 2514.96,1501.15 L 2442.19,1573.92 L 2442.19,1770.09 L 2688.34,2016.23 L 4078.11,2016.23 L 4082.72,2016.68 L 4087.15,2018.03 L 4091.23,2020.21 L 4094.81,2023.15 L 4356.55,2284.89 L 4359.49,2288.47 L 4361.67,2292.55 L 4363.02,2296.98 L 4363.47,2301.59 L 4363.47,2839.8 L 4363.02,2844.4 L 4361.67,2848.83 L 4359.49,2852.92 L 4356.55,2856.5 L 4136.57,3076.48 L 4132.99,3079.42 L 4128.9,3081.6 L 4124.47,3082.95 L 4119.87,3083.4 L 3249.71,3083.4 L 3163.41,3169.7 L 3159.83,3172.64 L 3155.74,3174.82 L 3151.32,3176.17 L 3146.71,3176.62 L 1059.13,3176.62 L 972.672,3263.08 L 969.093,3266.02 L 965.009,3268.2 L 960.579,3269.55 L 955.972,3270 z " style="fill-opacity:1.000000;fill:rgb(99,51,159);stroke:rgb(0,0,0);stroke-width:2"/></g>
<g fill-rule="evenodd"><path d="M 1579.42,1744.68 L 1579.42,1845.06 L 1500.69,1845.06 L 1500.69,1597.05 L 1579.42,1597.05 L 1579.42,1697.44 L 1616.88,1697.44 L 1838.77,1475.54 L 1838.77,630.211 L 1640.02,431.463 L 1480.08,431.463 L 1383.69,527.852 L 1383.69,731.443 L 1399.43,731.443 L 1399.43,929.065 L 1320.7,929.065 L 1320.7,731.443 L 1336.45,731.443 L 1336.45,518.073 L 1336.9,513.463 L 1338.24,509.033 L 1340.43,504.95 L 1343.36,501.37 L 1453.59,391.14 L 1457.17,388.202 L 1461.26,386.02 L 1465.68,384.674 L 1470.29,384.222 L 1649.81,384.222 L 1654.42,384.674 L 1658.84,386.018 L 1662.93,388.202 L 1666.51,391.14 L 1879.09,603.724 L 1882.03,607.302 L 1884.21,611.386 L 1885.56,615.818 L 1886.01,620.427 L 1886.01,1485.32 L 1885.56,1489.93 L 1884.21,1494.36 L 1882.03,1498.45 L 1879.09,1502.03 L 1643.36,1737.76 L 1639.78,1740.69 L 1635.7,1742.88 L 1631.27,1744.22 L 1626.66,1744.68 L 1579.42,1744.68 z " style="fill-opacity:1.000000;fill:rgb(201,154,102);stroke:rgb(0,0,0);stroke-width:2"/></g>
<g fill-rule="evenodd"><path d="M 1096.46,2891.29 L 1096.46,2687.7 L 923.394,2514.63 L 920.456,2511.05 L 918.272,2506.97 L 916.928,2502.54 L 916.476,2497.93 L 916.476,2242.67 L 900.73,2242.67 L 900.73,1994.66 L 979.464,1994.66 L 979.464,2242.67 L 963.717,2242.67 L 963.717,2488.15 L 1136.78,2661.21 L 1139.72,2664.79 L 1141.9,2668.88 L 1143.25,2673.31 L 1143.7,2677.92 L 1143.7,2891.29 L 1159.45,2891.29 L 1159.45,3088.91 L 1080.72,3088.91 L 1080.72,2891.29 L 1096.46,2891.29 z " style="fill-opacity:1.000000;fill:rgb(50,13,183);stroke:rgb(0,0,0);stroke-width:2"/></g>
<g fill-rule="evenodd"><path d="M 743.733,2891.29 L 759.48,2891.29 L 759.48,3088.91 L 680.745,3088.91 L 680.745,2891.29 L 696.492,2891.29 L 696.492,2138.66 L 696.944,2134.05 L 698.29,2129.62 L 700.744,2125.21 L 700.744,1994.66 L 779.478,1994.66 L 779.478,2242.67 L 743.733,2242.67 L 743.733,2891.29 z " style="fill-opacity:1.000000;fill:rgb(49,88,163);stroke:rgb(0,0,0);stroke-width:2"/></g>
<g fill-rule="evenodd"><path d="M 0.164539,9.99928 L 0.924484,6.17155 L 3.09233,2.92779 L 4.60822,1.68388 L 6.33609,0.759945 L 10.1638,0 L 4549.84,0 L 4553.66,0.759945 L 4556.91,2.92779 L 4558.15,4.44368 L 4559.07,6.17155 L 4559.84,9.99928 L 4559.84,909.934 L 4559.35,913.024 L 4557.93,915.81 L 4555.71,918.024 L 4552.93,919.444 L 4549.84,919.934 L 3120.94,919.934 L 3120.08,920.106 L 3119.94,920.858 L 3119.94,1206.29 L 3119.18,1210.11 L 3118.25,1211.84 L 3115.49,1214.6 L 3113.77,1215.53 L 3109.94,1216.29 L 2888.5,1216.09 L 2884.89,1214.6 L 2883.38,1213.36 L 2786.51,1116.49 L 2784.35,1113.25 L 2783.78,1111.37 L 2783.59,966.438 L 2783.78,964.452 L 2785.33,960.795 L 2787.67,958.429 L 2796.89,944.928 L 2800.31,928.057 L 2800.31,732.377 L 2797.36,716.682 L 2788.56,703.013 L 2775.2,693.882 L 2758.34,690.466 L 2681.52,690.466 L 2665.84,693.416 L 2652.17,702.211 L 2643.04,715.578 L 2639.62,732.439 L 2639.62,928.139 L 2642.57,943.824 L 2651.37,957.495 L 2653.48,959.159 L 2654.69,960.669 L 2655.6,962.385 L 2656.35,966.174 L 2656.35,1138.94 L 2661.37,1164.18 L 2675.68,1185.6 L 2814.27,1324.19 L 2835.69,1338.5 L 2860.94,1343.53 L 3111.89,1343.72 L 3113.77,1344.28 L 3117.01,1346.45 L 3119.18,1349.7 L 3119.75,1351.57 L 3119.75,1408.22 L 3119.18,1410.1 L 3117.01,1413.34 L 3113.77,1415.51 L 3109.94,1416.27 L 2722.35,1416.27 L 2720.37,1416.07 L 2716.71,1414.53 L 2713.94,1411.68 L 2707.62,1401.86 L 2694.26,1392.73 L 2677.4,1389.31 L 2482.48,1389.31 L 2466.8,1392.26 L 2453.13,1401.06 L 2444,1414.43 L 2440.58,1431.28 L 2440.58,1448.02 L 2439.82,1451.84 L 2438.9,1453.57 L 2374.28,1518.45 L 2359.98,1539.87 L 2354.95,1565.11 L 2354.95,1778.89 L 2359.97,1804.14 L 2374.28,1825.55 L 2495.75,1947.29 L 2497.25,1950.9 L 2497.25,1954.8 L 2496.68,1956.68 L 2494.51,1959.92 L 2493,1961.16 L 2489.39,1962.66 L 2317.11,1962.85 L 2313.28,1962.09 L 2311.55,1961.16 L 2015.55,1665.43 L 2013.38,1662.19 L 2012.62,1658.36 L 2012.62,529.924 L 2007.6,504.67 L 1993.29,483.257 L 1786.98,276.948 L 1765.57,262.639 L 1743.48,258.245 L 1346.86,258.245 L 1324.77,262.637 L 1303.36,276.946 L 1151.87,428.169 L 1150.14,429.093 L 1146.31,429.855 L 1121.64,429.855 L 1105.95,432.805 L 1092.28,441.6 L 1083.15,454.967 L 1079.74,471.828 L 1079.74,573.191 L 1076.46,590.615 L 1076.46,1559.68 L 1075.67,1563.56 L 1074.72,1565.31 L 1072.38,1567.68 L 1063.15,1581.18 L 1059.74,1598.04 L 1059.74,1844.14 L 1062.69,1859.82 L 1071.48,1873.49 L 1084.85,1882.62 L 1101.72,1886.04 L 1178.51,1886.04 L 1194.21,1883.09 L 1207.88,1874.29 L 1217.01,1860.93 L 1220.42,1844.05 L 1220.42,1597.98 L 1217.47,1582.29 L 1208.68,1568.62 L 1206.57,1566.95 L 1205.35,1565.44 L 1203.89,1561.87 L 1203.7,1559.94 L 1203.7,716.748 L 1204.47,712.893 L 1206.67,709.635 L 1208.21,708.391 L 1209.96,707.475 L 1214.2,706.479 L 1227.87,697.684 L 1237.01,684.317 L 1240.42,667.446 L 1240.42,523.964 L 1241.18,520.136 L 1243.35,516.893 L 1301.73,458.789 L 1305.33,457.297 L 1309.23,457.297 L 1312.84,458.789 L 1315.6,461.547 L 1317.09,465.152 L 1317.09,469.054 L 1316.52,470.928 L 1301.47,493.802 L 1296.45,519.047 L 1296.25,696.054 L 1294.7,699.712 L 1292.36,702.077 L 1283.14,715.578 L 1279.72,732.439 L 1279.72,928.139 L 1282.67,943.824 L 1291.47,957.493 L 1304.83,966.624 L 1321.7,970.042 L 1398.5,970.042 L 1414.19,967.09 L 1427.86,958.295 L 1436.99,944.928 L 1440.41,928.057 L 1440.41,732.377 L 1437.46,716.682 L 1428.66,703.011 L 1426.55,701.345 L 1425.33,699.837 L 1424.43,698.122 L 1423.68,694.334 L 1423.88,546.613 L 1424.44,544.737 L 1426.61,541.493 L 1464.15,504.224 L 1467.76,502.732 L 1469.71,502.54 L 1473.53,503.3 L 1476.78,505.468 L 1478.02,506.983 L 1479.51,510.587 L 1479.71,667.528 L 1482.66,683.213 L 1491.45,696.884 L 1493.56,698.548 L 1494.78,700.057 L 1495.69,701.773 L 1496.43,705.563 L 1496.24,1301.28 L 1495.67,1303.16 L 1493.5,1306.4 L 1295.78,1504.13 L 1281.47,1525.54 L 1276.45,1550.78 L 1276.25,1561.66 L 1274.71,1565.31 L 1272.36,1567.68 L 1263.14,1581.18 L 1259.72,1598.04 L 1259.72,1844.14 L 1262.67,1859.82 L 1271.47,1873.49 L 1284.84,1882.62 L 1301.7,1886.04 L 1378.5,1886.04 L 1394.19,1883.09 L 1407.86,1874.29 L 1416.99,1860.93 L 1420.41,1844.05 L 1420.41,1597.98 L 1417.46,1582.29 L 1414.03,1576.96 L 1412.6,1573.38 L 1412.64,1569.52 L 1413.22,1567.67 L 1415.36,1564.48 L 1604.34,1375.5 L 1618.64,1354.09 L 1623.67,1328.84 L 1623.67,705.827 L 1623.87,703.841 L 1625.41,700.183 L 1627.76,697.818 L 1636.98,684.317 L 1640.39,667.446 L 1640.39,512.539 L 1641.15,508.711 L 1642.08,506.983 L 1644.84,504.224 L 1648.44,502.732 L 1652.34,502.73 L 1655.95,504.224 L 1657.46,505.468 L 1795.84,643.848 L 1797.09,645.361 L 1798.58,648.967 L 1798.58,682.417 L 1797.09,686.02 L 1794.33,688.78 L 1792.6,689.704 L 1788.78,690.466 L 1721.59,690.466 L 1705.91,693.416 L 1692.24,702.211 L 1683.11,715.578 L 1679.69,732.439 L 1679.69,928.139 L 1682.64,943.824 L 1691.44,957.493 L 1704.81,966.624 L 1721.67,970.042 L 1790.73,970.234 L 1792.6,970.802 L 1795.84,972.97 L 1798.01,976.214 L 1798.58,978.089 L 1798.58,1456.78 L 1798.01,1458.66 L 1795.84,1461.9 L 1637.46,1620.28 L 1634.22,1622.45 L 1630.39,1623.21 L 1626.57,1622.45 L 1623.32,1620.28 L 1622.08,1618.77 L 1620.59,1615.16 L 1620.4,1597.98 L 1617.44,1582.29 L 1608.65,1568.62 L 1595.28,1559.49 L 1578.42,1556.07 L 1501.61,1556.07 L 1485.93,1559.02 L 1472.25,1567.82 L 1463.12,1581.18 L 1459.71,1598.04 L 1459.71,1844.14 L 1462.66,1859.82 L 1471.45,1873.49 L 1484.82,1882.62 L 1501.69,1886.04 L 1578.48,1886.04 L 1594.18,1883.09 L 1607.85,1874.29 L 1616.98,1860.93 L 1620.4,1844.05 L 1620.4,1793.93 L 1621.16,1790.1 L 1623.32,1786.86 L 1624.84,1785.62 L 1628.44,1784.12 L 1650.93,1779.65 L 1672.34,1765.34 L 1868.31,1569.37 L 1871.56,1567.2 L 1875.38,1566.44 L 1877.33,1566.63 L 1879.21,1567.2 L 1882.45,1569.37 L 1884.62,1572.61 L 1885.38,1576.44 L 1885.38,1687.88 L 1890.4,1713.12 L 1904.71,1734.53 L 2208.15,2037.98 L 2210.32,2041.22 L 2211.08,2045.05 L 2210.32,2048.87 L 2208.15,2052.12 L 2204.91,2054.29 L 2201.08,2055.05 L 1628.44,2054.85 L 1626.57,2054.29 L 1623.32,2052.12 L 1621.16,2048.87 L 1620.59,2047 L 1620.4,1995.59 L 1617.44,1979.9 L 1608.65,1966.23 L 1595.28,1957.1 L 1578.42,1953.68 L 1501.61,1953.68 L 1485.93,1956.63 L 1472.25,1965.43 L 1463.12,1978.79 L 1459.71,1995.65 L 1459.71,2208.84 L 1458.95,2212.66 L 1456.78,2215.91 L 1453.54,2218.07 L 1449.71,2218.83 L 1445.88,2218.07 L 1442.64,2215.91 L 1423.34,2196.61 L 1421.17,2193.36 L 1420.6,2191.49 L 1420.41,1995.59 L 1417.46,1979.9 L 1408.66,1966.23 L 1395.3,1957.1 L 1378.44,1953.68 L 1301.62,1953.68 L 1285.94,1956.63 L 1272.27,1965.43 L 1263.14,1978.79 L 1259.72,1995.65 L 1259.72,2241.75 L 1262.67,2257.43 L 1271.47,2271.1 L 1284.84,2280.23 L 1301.7,2283.65 L 1326.3,2283.65 L 1330.13,2284.41 L 1331.85,2285.33 L 1392.39,2345.59 L 1394.55,2348.84 L 1395.31,2352.66 L 1395.12,2354.61 L 1393.63,2358.22 L 1390.87,2360.98 L 1387.27,2362.47 L 1306.94,2362.66 L 1303.11,2361.9 L 1299.87,2359.73 L 1215.43,2275.29 L 1214.18,2273.76 L 1212.68,2270.13 L 1212.71,2266.2 L 1213.3,2264.31 L 1217.01,2258.54 L 1220.42,2241.66 L 1220.42,1995.59 L 1217.47,1979.9 L 1208.68,1966.23 L 1195.31,1957.1 L 1178.45,1953.68 L 1101.64,1953.68 L 1085.95,1956.63 L 1072.28,1965.43 L 1063.15,1978.79 L 1059.74,1995.65 L 1059.74,2241.75 L 1062.69,2257.43 L 1071.49,2271.1 L 1073.59,2272.77 L 1075.72,2275.99 L 1076.46,2279.78 L 1076.46,2288.93 L 1081.48,2314.18 L 1095.79,2335.59 L 1230.77,2470.57 L 1252.18,2484.87 L 1277.43,2489.9 L 2219.89,2489.9 L 2223.72,2490.66 L 2225.44,2491.58 L 2226.96,2492.83 L 2229.13,2496.07 L 2229.89,2499.9 L 2229.89,2519.84 L 2232.84,2535.52 L 2241.63,2549.19 L 2255,2558.32 L 2271.87,2561.74 L 2328.19,2561.74 L 2343.89,2558.79 L 2346.11,2557.58 L 2349.92,2556.88 L 2351.86,2557.09 L 2354.82,2558.29 L 2371.87,2561.74 L 2428.18,2561.74 L 2443.88,2558.79 L 2446.11,2557.58 L 2449.92,2556.88 L 2451.85,2557.09 L 2454.82,2558.29 L 2471.86,2561.74 L 2528.18,2561.74 L 2543.87,2558.79 L 2546.1,2557.58 L 2549.91,2556.88 L 2551.84,2557.09 L 2554.81,2558.29 L 2571.85,2561.74 L 2628.17,2561.74 L 2643.87,2558.79 L 2646.09,2557.58 L 2649.9,2556.88 L 2651.84,2557.09 L 2654.8,2558.29 L 2671.84,2561.74 L 2728.16,2561.74 L 2743.86,2558.79 L 2757.53,2549.99 L 2766.66,2536.62 L 2770.08,2519.75 L 2770.27,2474.33 L 2770.84,2472.45 L 2773,2469.21 L 2776.25,2467.04 L 2778.12,2466.47 L 3211.88,2466.47 L 3213.76,2467.04 L 3217,2469.21 L 3219.17,2472.45 L 3219.93,2476.28 L 3219.93,2709.72 L 3405.9,2709.72 L 3405.9,2705.79 L 3527.94,2705.79 L 3527.94,2733.34 L 4031.84,2733.34 L 4031.84,2705.79 L 4153.88,2705.79 L 4153.88,2808.14 L 4031.84,2808.14 L 4031.84,2780.59 L 3527.94,2780.59 L 3527.94,2808.14 L 3405.9,2808.14 L 3405.9,2756.97 L 3219.93,2756.97 L 3219.93,2899.55 L 3219.17,2903.38 L 3218.25,2905.11 L 3215.49,2907.87 L 3211.88,2909.36 L 3205.03,2909.55 L 3179.79,2914.57 L 3158.37,2928.88 L 3087.41,2999.85 L 3084.16,3002.01 L 3080.34,3002.78 L 2685.16,3002.78 L 2679.97,3003.41 L 2419.99,3003.41 L 2415.38,3002.95 L 2412.66,3002.58 L 2409.05,3001.09 L 2403.29,2996.49 L 2383.29,2976.49 L 2380.07,2972.38 L 2366.54,2958.85 L 2364.38,2955.61 L 2363.62,2951.78 L 2363.81,2875.87 L 2364.38,2873.99 L 2366.54,2870.75 L 2369.79,2868.58 L 2373.32,2867.85 L 2376.37,2864.8 L 2376.37,2827.83 L 2370.86,2827.83 L 2370.86,2638.86 L 2379.99,2638.86 L 2379.99,2605.51 L 2373.35,2598.87 L 2362.9,2598.87 L 2354.53,2602.33 L 2350.66,2603.09 L 2346.8,2602.3 L 2344.99,2601.3 L 2328.13,2597.89 L 2271.79,2597.89 L 2256.11,2600.84 L 2242.43,2609.63 L 2233.31,2623 L 2229.89,2639.86 L 2229.89,2826.9 L 2232.84,2842.58 L 2235.66,2847.3 L 2236.38,2851.02 L 2236.38,2981.3 L 2241.4,3006.54 L 2255.71,3027.96 L 2301.31,3073.83 L 2302.8,3077.43 L 2302.8,3081.33 L 2301.31,3084.94 L 2300.07,3086.45 L 2296.82,3088.62 L 2293,3089.38 L 1208.47,3089.19 L 1206.6,3088.62 L 1203.35,3086.45 L 1201.19,3083.21 L 1200.43,3079.38 L 1200.43,2892.22 L 1197.47,2876.53 L 1188.68,2862.86 L 1186.57,2861.19 L 1185.35,2859.68 L 1184.45,2857.97 L 1183.7,2854.18 L 1183.7,2678.9 L 1178.68,2653.65 L 1164.37,2632.23 L 1006.64,2474.51 L 1004.47,2471.26 L 1003.91,2469.39 L 1003.71,2280.05 L 1003.91,2278.06 L 1005.45,2274.41 L 1007.8,2272.04 L 1017.02,2258.53 L 1020.44,2241.66 L 1020.44,1995.59 L 1017.49,1979.9 L 1008.69,1966.23 L 995.325,1957.1 L 978.466,1953.68 L 901.653,1953.68 L 885.969,1956.63 L 872.298,1965.43 L 863.168,1978.79 L 859.753,1995.65 L 859.753,2241.75 L 862.702,2257.43 L 871.5,2271.1 L 873.608,2272.77 L 874.825,2274.28 L 875.731,2275.99 L 876.477,2279.78 L 876.477,2496.95 L 881.499,2522.2 L 895.806,2543.61 L 925.806,2573.61 L 927.974,2576.85 L 928.734,2580.68 L 928.544,2582.63 L 927.05,2586.23 L 924.29,2588.99 L 922.562,2589.92 L 920.096,2590.54 L 919.902,2595.13 L 919.334,2597 L 917.166,2600.25 L 913.923,2602.41 L 912.047,2602.98 L 908.145,2602.98 L 904.539,2601.49 L 893.458,2590.68 L 872.774,2590.68 L 858.073,2596.77 L 846.821,2608.02 L 840.732,2622.72 L 840.732,2702.85 L 847.373,2709.49 L 880.731,2709.49 L 880.731,2630.68 L 959.465,2630.68 L 959.465,2709.49 L 992.819,2709.49 L 999.462,2702.84 L 999.462,2671.4 L 1000.22,2667.58 L 1001.15,2665.85 L 1003.9,2663.09 L 1005.63,2662.16 L 1009.46,2661.4 L 1013.29,2662.16 L 1016.53,2664.33 L 1053.53,2701.34 L 1055.7,2704.58 L 1056.46,2708.41 L 1056.46,2853.91 L 1056.26,2855.9 L 1054.72,2859.56 L 1052.38,2861.92 L 1043.16,2875.42 L 1039.74,2892.28 L 1039.55,3085.24 L 1038.05,3088.84 L 1035.29,3091.6 L 1031.69,3093.09 L 1025.08,3094.4 L 1003.67,3108.71 L 932.547,3179.83 L 929.303,3182 L 927.428,3182.57 L 807.176,3182.76 L 801.995,3183.39 L 638.228,3183.39 L 633.619,3182.94 L 630.895,3182.57 L 627.289,3181.08 L 621.526,3176.47 L 601.053,3156 L 596.45,3150.23 L 594.958,3146.63 L 594.766,3144.49 L 594.136,3139.3 L 594.136,1964.27 L 594.588,1959.66 L 595.526,1955.06 L 596.45,1953.33 L 601.053,1947.56 L 633.651,1914.97 L 637.759,1911.75 L 668.324,1881.18 L 671.594,1879 L 673.486,1878.44 L 677.418,1878.46 L 681.035,1880 L 684.879,1882.62 L 701.748,1886.04 L 778.538,1886.04 L 794.235,1883.09 L 807.906,1874.29 L 817.036,1860.93 L 820.453,1844.05 L 820.453,1597.98 L 817.502,1582.29 L 808.706,1568.62 L 795.339,1559.49 L 778.48,1556.07 L 701.668,1556.07 L 685.983,1559.02 L 672.312,1567.82 L 663.183,1581.18 L 659.767,1598.04 L 659.767,1705.66 L 659.005,1709.49 L 658.081,1711.22 L 486.861,1882.71 L 472.552,1904.12 L 467.531,1929.37 L 467.531,3174.2 L 472.55,3199.44 L 486.859,3220.85 L 509.94,3244.21 L 511.434,3247.81 L 511.436,3251.71 L 510.866,3253.59 L 508.698,3256.83 L 507.182,3258.08 L 505.454,3259 L 501.628,3259.76 L 10.1638,3259.76 L 6.33609,3259 L 3.09233,3256.83 L 0.924484,3253.59 L 0.356525,3251.71 L 0.164539,9.99928M 274.889,3154.52 L 297.805,3120.22 L 305.85,3079.78 L 297.807,3039.33 L 274.891,3005.04 L 240.597,2982.12 L 200.15,2974.08 L 159.701,2982.12 L 125.407,3005.03 L 102.491,3039.33 L 94.4477,3079.77 L 102.489,3120.22 L 125.405,3154.52 L 159.699,3177.43 L 200.148,3185.48 L 240.595,3177.43 L 274.889,3154.52M 879.751,928.139 L 882.701,943.824 L 891.496,957.493 L 904.863,966.624 L 921.732,970.042 L 998.526,970.042 L 1014.22,967.09 L 1027.89,958.295 L 1037.02,944.928 L 1040.44,928.057 L 1040.44,732.377 L 1037.49,716.682 L 1028.69,703.013 L 1015.32,693.882 L 998.464,690.466 L 921.65,690.466 L 905.967,693.416 L 892.298,702.211 L 883.167,715.578 L 879.751,732.439 L 879.751,928.139M 274.889,354.72 L 297.805,320.427 L 305.85,279.98 L 297.803,239.527 L 274.891,205.237 L 240.597,182.321 L 200.15,174.277 L 159.701,182.319 L 125.407,205.235 L 102.491,239.529 L 94.4457,279.978 L 102.489,320.425 L 125.405,354.718 L 159.699,377.635 L 200.148,385.68 L 240.595,377.637 L 274.889,354.72M 4245.11,314.721 L 4279.4,337.638 L 4319.85,345.683 L 4360.3,337.64 L 4394.59,314.723 L 4417.51,280.43 L 4425.55,239.983 L 4417.51,199.534 L 4394.59,165.24 L 4360.3,142.324 L 4319.85,134.28 L 4279.4,142.322 L 4245.11,165.238 L 4222.19,199.532 L 4214.15,239.981 L 4222.19,280.428 L 4245.11,314.721M 960.095,1845.06 L 960.095,1878.42 L 966.737,1885.06 L 987.413,1885.06 L 1002.12,1878.97 L 1013.37,1867.72 L 1019.46,1853.02 L 1019.46,1747.7 L 1012.82,1741.05 L 979.464,1741.05 L 979.464,1845.06 L 960.095,1845.06M 720.743,549.644 L 720.743,470.832 L 740.111,470.832 L 740.111,437.476 L 733.47,430.835 L 712.785,430.835 L 698.084,436.922 L 686.833,448.172 L 680.743,462.873 L 680.743,543.003 L 687.385,549.644 L 720.743,549.644M 2479.99,2638.86 L 2479.99,2605.51 L 2473.34,2598.87 L 2462.89,2598.87 L 2453.81,2602.63 L 2449.99,2603.39 L 2446.16,2602.63 L 2437.08,2598.87 L 2426.63,2598.87 L 2419.99,2605.51 L 2419.99,2638.86 L 2429.12,2638.86 L 2429.12,2713.35 L 2470.85,2713.35 L 2470.85,2638.86 L 2479.99,2638.86M 2559.35,589.641 L 2559.35,668.454 L 2539.98,668.454 L 2539.98,701.809 L 2546.62,708.451 L 2567.3,708.451 L 2582,702.361 L 2593.26,691.112 L 2599.35,676.407 L 2599.35,596.283 L 2592.71,589.641 L 2559.35,589.641M 2559.35,549.644 L 2592.7,549.644 L 2599.35,543.001 L 2599.35,462.879 L 2593.26,448.174 L 2582.01,436.924 L 2567.31,430.835 L 2546.62,430.835 L 2539.98,437.474 L 2539.98,470.832 L 2559.35,470.832 L 2559.35,549.644M 963.717,1597.05 L 979.464,1597.05 L 979.464,1701.06 L 1012.82,1701.06 L 1019.46,1694.41 L 1019.46,1589.1 L 1013.37,1574.39 L 1002.12,1563.14 L 987.419,1557.05 L 966.735,1557.05 L 963.717,1560.07 L 963.717,1597.05M 916.476,1560.07 L 913.457,1557.05 L 892.772,1557.05 L 878.071,1563.14 L 866.82,1574.39 L 860.73,1589.09 L 860.73,1694.42 L 867.372,1701.06 L 900.73,1701.06 L 900.73,1597.05 L 916.476,1597.05 L 916.476,1560.07M 641.376,2884.35 L 641.376,3096.53 L 642.718,3103.67 L 651.514,3117.34 L 664.881,3126.47 L 681.749,3129.89 L 758.544,3129.89 L 774.237,3126.93 L 787.906,3118.14 L 797.037,3104.77 L 800.455,3087.9 L 800.455,2892.22 L 797.503,2876.53 L 788.706,2862.86 L 786.6,2861.19 L 785.38,2859.68 L 784.474,2857.97 L 783.73,2854.18 L 783.73,2290.97 L 783.924,2289 L 785.438,2285.38 L 788.232,2282.61 L 789.98,2281.7 L 794.235,2280.7 L 807.906,2271.9 L 817.036,2258.53 L 820.453,2241.66 L 820.453,1995.59 L 817.502,1979.9 L 808.706,1966.23 L 795.339,1957.1 L 786.428,1955.29 L 693.115,1955.29 L 685.983,1956.63 L 672.312,1965.43 L 663.183,1978.79 L 659.767,1995.65 L 659.767,2122.21 L 656.493,2139.64 L 656.493,2853.91 L 656.293,2855.9 L 654.747,2859.56 L 652.405,2861.92 L 643.184,2875.42 L 641.376,2884.35M 896.478,2865.27 L 896.478,2828.3 L 880.731,2828.3 L 880.731,2749.49 L 847.371,2749.49 L 840.732,2756.13 L 840.732,2836.25 L 846.819,2850.95 L 858.071,2862.2 L 872.776,2868.29 L 893.456,2868.29 L 896.478,2865.27M 943.718,2865.28 L 946.738,2868.29 L 967.415,2868.29 L 982.12,2862.21 L 993.371,2850.96 L 999.462,2836.25 L 999.462,2756.13 L 992.821,2749.49 L 959.465,2749.49 L 959.465,2828.3 L 943.718,2828.3 L 943.718,2865.28M 894.132,1885.06 L 913.455,1885.06 L 920.098,1878.42 L 920.098,1859.1 L 894.132,1885.06M 900.73,1811.66 L 900.73,1741.05 L 867.37,1741.05 L 860.73,1747.69 L 860.73,1851.65 L 900.73,1811.66M 813.508,549.644 L 832.83,549.644 L 839.474,543.001 L 839.474,523.68 L 813.508,549.644M 783.73,705.431 L 786.75,708.451 L 807.426,708.451 L 822.131,702.361 L 833.382,691.112 L 839.474,676.407 L 839.474,596.283 L 832.832,589.641 L 799.477,589.641 L 799.477,668.454 L 783.73,668.454 L 783.73,705.431M 736.489,668.454 L 720.743,668.454 L 720.743,589.641 L 687.383,589.641 L 680.743,596.281 L 680.743,676.409 L 686.831,691.11 L 698.082,702.359 L 712.787,708.451 L 733.468,708.451 L 736.489,705.429 L 736.489,668.454M 799.477,496.868 L 837.716,458.633 L 833.384,448.174 L 822.133,436.924 L 807.432,430.835 L 786.748,430.835 L 780.108,437.474 L 780.108,470.832 L 799.477,470.832 L 799.477,496.868M 2729.1,2709.72 L 2766.07,2709.72 L 2769.1,2706.7 L 2769.1,2630.91 L 2763.01,2616.21 L 2751.76,2604.96 L 2737.06,2598.87 L 2726.61,2598.87 L 2719.97,2605.51 L 2719.97,2638.86 L 2729.1,2638.86 L 2729.1,2709.72M 2766.08,2756.97 L 2729.1,2756.97 L 2729.1,2827.83 L 2723.59,2827.83 L 2723.59,2864.8 L 2726.61,2867.82 L 2737.05,2867.82 L 2751.76,2861.73 L 2763.01,2850.48 L 2769.1,2835.78 L 2769.1,2759.98 L 2766.08,2756.97M 2476.36,2864.8 L 2476.36,2827.83 L 2470.85,2827.83 L 2470.85,2753.34 L 2429.12,2753.34 L 2429.12,2827.83 L 2423.61,2827.83 L 2423.61,2864.8 L 2426.63,2867.82 L 2437.07,2867.82 L 2446.16,2864.06 L 2449.99,2863.3 L 2453.81,2864.06 L 2462.89,2867.82 L 2473.34,2867.82 L 2476.36,2864.8M 2523.6,2864.8 L 2526.62,2867.82 L 2537.07,2867.82 L 2545.44,2864.36 L 2549.31,2863.6 L 2553.17,2864.39 L 2554.98,2865.39 L 2571.85,2868.8 L 2628.17,2868.8 L 2643.87,2865.85 L 2646.76,2864.21 L 2650.53,2863.5 L 2654.28,2864.26 L 2662.88,2867.82 L 2673.33,2867.82 L 2676.35,2864.8 L 2676.35,2827.83 L 2670.84,2827.83 L 2670.84,2638.86 L 2679.97,2638.86 L 2679.97,2605.51 L 2673.33,2598.87 L 2662.88,2598.87 L 2654.51,2602.33 L 2650.64,2603.09 L 2646.78,2602.3 L 2644.97,2601.3 L 2628.11,2597.89 L 2571.77,2597.89 L 2556.08,2600.84 L 2553.19,2602.48 L 2549.42,2603.19 L 2545.67,2602.43 L 2537.07,2598.87 L 2526.62,2598.87 L 2519.98,2605.51 L 2519.98,2638.86 L 2529.11,2638.86 L 2529.11,2827.83 L 2523.6,2827.83 L 2523.6,2864.8M 2443.64,546.023 L 2480.62,546.023 L 2480.62,470.832 L 2499.98,470.832 L 2499.98,437.476 L 2493.34,430.835 L 2472.66,430.835 L 2457.96,436.922 L 2446.71,448.172 L 2440.62,462.873 L 2440.62,543.003 L 2443.64,546.023M 2480.62,593.263 L 2443.63,593.263 L 2440.62,596.281 L 2440.62,676.409 L 2446.7,691.11 L 2457.96,702.359 L 2472.66,708.451 L 2493.34,708.451 L 2499.98,701.807 L 2499.98,668.454 L 2480.62,668.454 L 2480.62,593.263 z " style="fill-opacity:1.000000;fill:rgb(90,37,93);stroke:rgb(0,0,0);stroke-width:2"/></g>
<g fill-rule="evenodd"><path d="M 1379.43,2209.27 L 1466.38,2296.21 L 2159.67,2296.21 L 2203.77,2252.11 L 2207.35,2249.17 L 2211.44,2246.99 L 2215.87,2245.64 L 2220.48,2245.19 L 2384.24,2245.19 L 2388.85,2245.64 L 2393.28,2246.99 L 2397.36,2249.17 L 2400.94,2252.11 L 2416.69,2267.85 L 2419.63,2271.43 L 2421.81,2275.52 L 2423.16,2279.95 L 2423.61,2284.56 L 2423.61,2331.8 L 2429.12,2331.8 L 2429.12,2520.76 L 2370.86,2520.76 L 2370.86,2331.8 L 2376.37,2331.8 L 2376.37,2294.35 L 2374.46,2292.43 L 2230.26,2292.43 L 2186.16,2336.53 L 2182.58,2339.47 L 2178.49,2341.65 L 2174.06,2343 L 2169.46,2343.45 L 1456.59,2343.45 L 1451.98,2343 L 1447.55,2341.65 L 1443.47,2339.47 L 1439.89,2336.53 L 1346.03,2242.67 L 1300.7,2242.67 L 1300.7,1994.66 L 1379.43,1994.66 L 1379.43,2209.27 z " style="fill-opacity:1.000000;fill:rgb(5,23,88);stroke:rgb(0,0,0);stroke-width:2"/></g>
<g fill-rule="evenodd"><path d="M 2584.05,1658.62 L 2589.54,1656.71 L 2594.15,1656.26 L 3224.1,1656.26 L 3224.1,1636.58 L 3586.28,1636.58 L 3586.28,1723.18 L 3224.1,1723.18 L 3224.1,1703.5 L 2678.4,1703.5 L 2678.4,1729.48 L 2481.56,1729.48 L 2481.56,1658.62 L 2584.05,1658.62 z " style="fill-opacity:1.000000;fill:rgb(233,94,212);stroke:rgb(0,0,0);stroke-width:2"/></g>
<g fill-rule="evenodd"><path d="M 3224.1,1256.29 L 3224.1,1236.6 L 3586.28,1236.6 L 3586.28,1323.21 L 3224.1,1323.21 L 3224.1,1303.53 L 2859.96,1303.53 L 2855.35,1303.07 L 2850.92,1301.73 L 2846.83,1299.55 L 2843.26,1296.61 L 2703.27,1156.62 L 2700.33,1153.04 L 2698.14,1148.96 L 2696.8,1144.53 L 2696.35,1139.92 L 2696.35,929.065 L 2680.6,929.065 L 2680.6,731.443 L 2759.34,731.443 L 2759.34,929.065 L 2743.59,929.065 L 2743.59,1130.13 L 2869.74,1256.29 L 3224.1,1256.29 z " style="fill-opacity:1.000000;fill:rgb(171,178,205);stroke:rgb(0,0,0);stroke-width:2"/></g>
</svg>
