<?xml version="1.0" standalone="no"?>
<!DOCTYPE svg PUBLIC "-//W3C//DTD SVG 1.1//EN"
"http://www.w3.org/Graphics/SVG/1.1/DTD/svg11.dtd">
<svg width="4760" height="3420" viewBox="0 0 4760 3420" version="1.1"
xmlns="http://www.w3.org/2000/svg"
xmlns:xlink="http://www.w3.org/1999/xlink">
<g fill-rule="evenodd"><path d="M 4760,0 L 4760,3420 L 0,3420 L 0,0 L 4760,0M 380,3160 L 378.688,3147.52 L 374.812,3135.59 L 368.54,3124.73 L 360.146,3115.41 L 350,3108.04 L 338.54,3102.93 L 326.27,3100.33 L 313.728,3100.33 L 301.458,3102.93 L 290,3108.04 L 279.852,3115.41 L 271.458,3124.73 L 265.186,3135.59 L 261.31,3147.52 L 260,3160 L 261.31,3172.47 L 265.186,3184.4 L 271.458,3195.26 L 279.852,3204.59 L 290,3211.96 L 301.458,3217.06 L 313.728,3219.67 L 326.27,3219.67 L 338.54,3217.06 L 350,3211.96 L 360.146,3204.59 L 368.54,3195.26 L 374.812,3184.4 L 378.688,3172.47 L 380,3160M 4480,3180 L 4478.69,3167.52 L 4474.81,3155.59 L 4468.54,3144.73 L 4460.14,3135.41 L 4450,3128.04 L 4438.54,3122.94 L 4426.27,3120.33 L 4413.73,3120.33 L 4401.46,3122.94 L 4390,3128.04 L 4379.85,3135.41 L 4371.46,3144.73 L 4365.18,3155.59 L 4361.31,3167.52 L 4360,3180 L 4361.31,3192.47 L 4365.18,3204.4 L 4371.46,3215.27 L 4379.85,3224.59 L 4390,3231.96 L 4401.46,3237.06 L 4413.73,3239.67 L 4426.27,3239.67 L 4438.54,3237.06 L 4450,3231.96 L 4460.14,3224.59 L 4468.54,3215.27 L 4474.81,3204.4 L 4478.69,3192.47 L 4480,3180M 380,360 L 378.688,347.524 L 374.812,335.594 L 368.54,324.732 L 360.146,315.41 L 350,308.038 L 338.54,302.936 L 326.27,300.328 L 313.728,300.328 L 301.458,302.936 L 290,308.038 L 279.852,315.41 L 271.458,324.732 L 265.186,335.594 L 261.31,347.524 L 260,360 L 261.31,372.474 L 265.186,384.404 L 271.458,395.266 L 279.852,404.588 L 290,411.96 L 301.458,417.062 L 313.728,419.67 L 326.27,419.67 L 338.54,417.062 L 350,411.96 L 360.146,404.588 L 368.54,395.266 L 374.812,384.404 L 378.688,372.474 L 380,360M 4500,320 L 4498.69,307.524 L 4494.81,295.594 L 4488.54,284.732 L 4480.15,275.41 L 4470,268.038 L 4458.54,262.936 L 4446.27,260.328 L 4433.73,260.328 L 4421.46,262.936 L 4410,268.038 L 4399.85,275.41 L 4391.46,284.732 L 4385.19,295.594 L 4381.31,307.524 L 4380,320 L 4381.31,332.474 L 4385.19,344.404 L 4391.46,355.266 L 4399.85,364.588 L 4410,371.96 L 4421.46,377.062 L 4433.73,379.67 L 4446.27,379.67 L 4458.54,377.062 L 4470,371.96 L 4480.15,364.588 L 4488.54,355.266 L 4494.81,344.404 L 4498.69,332.474 L 4500,320 z " style="fill-opacity:1.000000;fill:rgb(103,198,105);stroke:rgb(0,0,0);stroke-width:2"/></g>
</svg>
