<?xml version="1.0" standalone="no"?>
<!DOCTYPE svg PUBLIC "-//W3C//DTD SVG 1.1//EN"
"http://www.w3.org/Graphics/SVG/1.1/DTD/svg11.dtd">
<svg width="4760" height="3420" viewBox="0 0 4760 3420" version="1.1"
xmlns="http://www.w3.org/2000/svg"
xmlns:xlink="http://www.w3.org/1999/xlink">
<g fill-rule="evenodd"><path d="M 2590.87,2600.94 L 2590.87,2411.97 L 2649.13,2411.97 L 2649.13,2600.94 L 2590.87,2600.94 z " style="fill-opacity:1.000000;fill:rgb(103,198,105);stroke:rgb(0,0,0);stroke-width:2"/></g>
<g fill-rule="evenodd"><path d="M 2690.87,2908.03 L 2690.87,2719.05 L 2749.13,2719.05 L 2749.13,2908.03 L 2690.87,2908.03 z " style="fill-opacity:1.000000;fill:rgb(115,81,255);stroke:rgb(0,0,0);stroke-width:2"/></g>
<g fill-rule="evenodd"><path d="M 2690.87,2600.94 L 2690.87,2411.97 L 2749.13,2411.97 L 2749.13,2600.94 L 2690.87,2600.94 z " style="fill-opacity:1.000000;fill:rgb(74,236,41);stroke:rgb(0,0,0);stroke-width:2"/></g>
<g fill-rule="evenodd"><path d="M 1040.63,1009.13 L 1040.63,811.496 L 1119.37,811.496 L 1119.37,1009.13 L 1040.63,1009.13 z " style="fill-opacity:1.000000;fill:rgb(205,186,171);stroke:rgb(0,0,0);stroke-width:2"/></g>
<g fill-rule="evenodd"><path d="M 1840.63,1009.13 L 1840.63,811.496 L 1919.37,811.496 L 1919.37,1009.13 L 1840.63,1009.13 z " style="fill-opacity:1.000000;fill:rgb(242,251,227);stroke:rgb(0,0,0);stroke-width:2"/></g>
<g fill-rule="evenodd"><path d="M 1699.37,2222.44 L 1699.37,2322.83 L 1620.63,2322.83 L 1620.63,2074.8 L 1699.37,2074.8 L 1699.37,2175.2 L 2632.42,2175.2 L 2637.02,2175.65 L 2641.45,2176.99 L 2645.54,2179.18 L 2649.12,2182.11 L 2836.7,2369.7 L 2839.64,2373.27 L 2841.82,2377.36 L 2843.17,2381.79 L 2843.62,2386.4 L 2843.62,2411.97 L 2849.13,2411.97 L 2849.13,2459.21 L 3525.98,2459.21 L 3525.98,2431.65 L 3648.03,2431.65 L 3648.03,2459.21 L 4151.97,2459.21 L 4151.97,2431.65 L 4274.01,2431.65 L 4274.01,2534.01 L 4151.97,2534.01 L 4151.97,2506.46 L 3648.03,2506.46 L 3648.03,2534.01 L 3525.98,2534.01 L 3525.98,2506.46 L 2853.4,2506.46 L 2849.13,2510.73 L 2849.13,2600.94 L 2790.87,2600.94 L 2790.87,2411.97 L 2796.38,2411.97 L 2796.38,2396.19 L 2622.63,2222.44 L 1699.37,2222.44 z " style="fill-opacity:1.000000;fill:rgb(70,124,194);stroke:rgb(0,0,0);stroke-width:2"/></g>
<g fill-rule="evenodd"><path d="M 2390.87,2482.83 L 2390.87,2411.97 L 2449.13,2411.97 L 2449.13,2600.94 L 2390.87,2600.94 L 2390.87,2530.08 L 1396.38,2530.08 L 1391.77,2529.62 L 1387.33,2528.28 L 1383.25,2526.1 L 1379.67,2523.16 L 1243.3,2386.78 L 1240.36,2383.2 L 1238.17,2379.12 L 1236.83,2374.69 L 1236.38,2370.08 L 1236.38,2322.83 L 1220.63,2322.83 L 1220.63,2074.8 L 1299.37,2074.8 L 1299.37,2322.83 L 1283.62,2322.83 L 1283.62,2360.29 L 1406.16,2482.83 L 2390.87,2482.83 z " style="fill-opacity:1.000000;fill:rgb(84,248,27);stroke:rgb(0,0,0);stroke-width:2"/></g>
<g fill-rule="evenodd"><path d="M 2396.38,2908.03 L 2390.87,2908.03 L 2390.87,2719.05 L 2449.13,2719.05 L 2449.13,2908.03 L 2443.62,2908.03 L 2443.62,3052.71 L 2513.91,3122.99 L 3221.11,3122.99 L 3307.42,3036.68 L 3311,3033.74 L 3315.08,3031.56 L 3319.51,3030.21 L 3324.12,3029.76 L 4194.33,3029.76 L 4313.38,2910.71 L 4313.38,2391.04 L 4152.58,2230.24 L 2762.7,2230.24 L 2758.09,2229.78 L 2753.66,2228.44 L 2749.58,2226.25 L 2746,2223.32 L 2652.92,2130.24 L 2406.61,2130.24 L 2402,2129.78 L 2397.57,2128.44 L 2393.49,2126.25 L 2389.91,2123.32 L 2052.27,1785.68 L 2049.33,1782.1 L 2047.15,1778.01 L 2045.81,1773.58 L 2045.35,1768.98 L 2045.35,618.76 L 1851.47,424.88 L 1478.76,424.88 L 1319.37,584.268 L 1319.37,748.502 L 1283.62,748.502 L 1283.62,1677.17 L 1299.37,1677.17 L 1299.37,1925.19 L 1220.63,1925.19 L 1220.63,1677.17 L 1236.38,1677.17 L 1236.38,669.684 L 1236.83,665.074 L 1238.18,660.644 L 1240.63,656.23 L 1240.63,550.866 L 1285.96,550.866 L 1452.27,384.554 L 1455.85,381.616 L 1459.94,379.434 L 1464.37,378.088 L 1468.98,377.636 L 1861.26,377.636 L 1865.87,378.088 L 1870.3,379.432 L 1874.38,381.616 L 1877.96,384.554 L 2085.68,592.272 L 2088.62,595.85 L 2090.8,599.934 L 2092.14,604.366 L 2092.6,608.976 L 2092.6,1759.19 L 2416.4,2082.99 L 2662.7,2082.99 L 2667.31,2083.44 L 2671.74,2084.79 L 2675.83,2086.97 L 2679.41,2089.91 L 2772.49,2182.99 L 4162.36,2182.99 L 4166.97,2183.44 L 4171.4,2184.79 L 4175.48,2186.97 L 4179.06,2189.91 L 4353.71,2364.55 L 4356.65,2368.13 L 4358.83,2372.22 L 4360.17,2376.65 L 4360.63,2381.26 L 4360.63,2920.5 L 4360.17,2925.11 L 4358.83,2929.54 L 4356.65,2933.62 L 4353.71,2937.2 L 4220.82,3070.09 L 4217.24,3073.02 L 4213.16,3075.21 L 4208.73,3076.55 L 4204.12,3077.01 L 3333.9,3077.01 L 3247.59,3163.32 L 3244.01,3166.25 L 3239.93,3168.44 L 3235.5,3169.78 L 3230.89,3170.24 L 2504.12,3170.24 L 2499.51,3169.78 L 2495.08,3168.44 L 2491,3166.25 L 2487.42,3163.32 L 2403.3,3079.19 L 2400.36,3075.61 L 2398.17,3071.53 L 2396.83,3067.1 L 2396.38,3062.49 L 2396.38,2908.03 z " style="fill-opacity:1.000000;fill:rgb(232,231,141);stroke:rgb(0,0,0);stroke-width:2"/></g>
<g fill-rule="evenodd"><path d="M 1483.62,1677.17 L 1499.37,1677.17 L 1499.37,1925.19 L 1420.63,1925.19 L 1420.63,1677.17 L 1436.38,1677.17 L 1436.38,1629.92 L 1436.83,1625.31 L 1438.18,1620.88 L 1440.36,1616.8 L 1443.3,1613.22 L 1656.38,1400.13 L 1656.38,748.502 L 1640.63,748.502 L 1640.63,550.866 L 1719.37,550.866 L 1719.37,748.502 L 1703.62,748.502 L 1703.62,1409.92 L 1703.17,1414.53 L 1701.82,1418.96 L 1699.64,1423.04 L 1696.7,1426.62 L 1483.62,1639.7 L 1483.62,1677.17 z " style="fill-opacity:1.000000;fill:rgb(118,90,46);stroke:rgb(0,0,0);stroke-width:2"/></g>
<g fill-rule="evenodd"><path d="M 820.63,1805.52 L 820.63,1677.17 L 899.37,1677.17 L 899.37,1925.19 L 820.63,1925.19 L 820.63,1872.33 L 674.644,2018.31 L 674.644,3245.62 L 732.016,3302.99 L 1066.09,3302.99 L 1152.56,3216.53 L 1156.14,3213.59 L 1160.22,3211.41 L 1164.65,3210.06 L 1169.26,3209.61 L 3256.98,3209.61 L 3343.3,3123.3 L 3346.88,3120.36 L 3350.96,3118.18 L 3355.39,3116.83 L 3360,3116.38 L 4230.21,3116.38 L 4436.38,2910.21 L 4436.38,2391.54 L 4188.46,2143.62 L 2798.58,2143.62 L 2793.97,2143.17 L 2789.54,2141.82 L 2785.46,2139.64 L 2781.88,2136.7 L 2521.88,1876.7 L 2518.94,1873.12 L 2516.76,1869.04 L 2515.41,1864.61 L 2514.96,1860 L 2514.96,1644.25 L 2515.41,1639.64 L 2516.76,1635.21 L 2518.94,1631.13 L 2521.88,1627.55 L 2601.58,1547.85 L 2601.58,1510.39 L 2798.42,1510.39 L 2798.42,1536.38 L 3344.17,1536.38 L 3344.17,1516.69 L 3706.38,1516.69 L 3706.38,1536.38 L 3826.51,1536.38 L 3875.67,1487.22 L 3875.67,1134.8 L 4615.83,1134.8 L 4615.83,1985.2 L 3875.67,1985.2 L 3875.67,1554.03 L 3853,1576.7 L 3849.42,1579.64 L 3845.34,1581.82 L 3840.91,1583.17 L 3836.3,1583.62 L 3706.38,1583.62 L 3706.38,1603.31 L 3344.17,1603.31 L 3344.17,1583.62 L 2714.17,1583.62 L 2709.56,1583.17 L 2704.08,1581.26 L 2634.98,1581.26 L 2562.2,1654.03 L 2562.2,1850.22 L 2808.37,2096.38 L 4198.24,2096.38 L 4202.85,2096.83 L 4207.28,2098.17 L 4211.36,2100.36 L 4214.94,2103.3 L 4476.7,2365.05 L 4479.64,2368.63 L 4481.82,2372.72 L 4483.17,2377.15 L 4483.62,2381.76 L 4483.62,2920 L 4483.17,2924.61 L 4481.82,2929.04 L 4479.64,2933.12 L 4476.7,2936.7 L 4256.7,3156.7 L 4253.12,3159.64 L 4249.04,3161.82 L 4244.61,3163.17 L 4240,3163.62 L 3369.78,3163.62 L 3283.47,3249.93 L 3279.89,3252.87 L 3275.81,3255.05 L 3271.38,3256.4 L 3266.77,3256.85 L 1179.04,3256.85 L 1092.58,3343.32 L 1089,3346.25 L 1084.91,3348.44 L 1080.48,3349.78 L 1075.88,3350.24 L 722.232,3350.24 L 717.622,3349.78 L 713.19,3348.44 L 709.106,3346.25 L 705.528,3343.32 L 634.318,3272.11 L 631.38,3268.53 L 629.196,3264.44 L 627.852,3260.01 L 627.4,3255.4 L 627.4,2008.53 L 627.852,2003.92 L 629.198,1999.49 L 631.38,1995.41 L 634.318,1991.83 L 820.63,1805.52 z " style="fill-opacity:1.000000;fill:rgb(99,51,159);stroke:rgb(0,0,0);stroke-width:2"/></g>
<g fill-rule="evenodd"><path d="M 1699.37,1824.8 L 1699.37,1925.19 L 1620.63,1925.19 L 1620.63,1677.17 L 1699.37,1677.17 L 1699.37,1777.56 L 1736.83,1777.56 L 1958.74,1555.65 L 1958.74,710.256 L 1759.98,511.494 L 1600.02,511.494 L 1503.62,607.89 L 1503.62,811.496 L 1519.37,811.496 L 1519.37,1009.13 L 1440.63,1009.13 L 1440.63,811.496 L 1456.38,811.496 L 1456.38,598.11 L 1456.83,593.5 L 1458.18,589.07 L 1460.36,584.986 L 1463.3,581.406 L 1573.53,471.168 L 1577.11,468.23 L 1581.2,466.048 L 1585.63,464.702 L 1590.24,464.25 L 1769.76,464.25 L 1774.37,464.702 L 1778.8,466.046 L 1782.88,468.23 L 1786.46,471.168 L 1999.06,683.768 L 2002,687.346 L 2004.18,691.43 L 2005.53,695.862 L 2005.98,700.472 L 2005.98,1565.43 L 2005.53,1570.04 L 2004.18,1574.47 L 2002,1578.55 L 1999.06,1582.13 L 1763.32,1817.88 L 1759.74,1820.82 L 1755.65,1823 L 1751.22,1824.35 L 1746.61,1824.8 L 1699.37,1824.8 z " style="fill-opacity:1.000000;fill:rgb(201,154,102);stroke:rgb(0,0,0);stroke-width:2"/></g>
<g fill-rule="evenodd"><path d="M 1216.38,2971.5 L 1216.38,2767.89 L 1043.3,2594.81 L 1040.36,2591.23 L 1038.17,2587.15 L 1036.83,2582.72 L 1036.38,2578.11 L 1036.38,2322.83 L 1020.63,2322.83 L 1020.63,2074.8 L 1099.37,2074.8 L 1099.37,2322.83 L 1083.62,2322.83 L 1083.62,2568.33 L 1256.7,2741.41 L 1259.64,2744.98 L 1261.82,2749.07 L 1263.17,2753.5 L 1263.62,2758.11 L 1263.62,2971.5 L 1279.37,2971.5 L 1279.37,3169.13 L 1200.63,3169.13 L 1200.63,2971.5 L 1216.38,2971.5 z " style="fill-opacity:1.000000;fill:rgb(50,13,183);stroke:rgb(0,0,0);stroke-width:2"/></g>
<g fill-rule="evenodd"><path d="M 863.622,2971.5 L 879.37,2971.5 L 879.37,3169.13 L 800.63,3169.13 L 800.63,2971.5 L 816.378,2971.5 L 816.378,2218.82 L 816.83,2214.21 L 818.176,2209.78 L 820.63,2205.36 L 820.63,2074.8 L 899.37,2074.8 L 899.37,2322.83 L 863.622,2322.83 L 863.622,2971.5 z " style="fill-opacity:1.000000;fill:rgb(49,88,163);stroke:rgb(0,0,0);stroke-width:2"/></g>
<g fill-rule="evenodd"><path d="M 714.644,3224.72 L 714.014,3219.53 L 714.014,2044.41 L 714.466,2039.8 L 715.404,2035.2 L 716.328,2033.47 L 720.932,2027.7 L 753.532,1995.11 L 757.64,1991.89 L 788.208,1961.32 L 791.478,1959.14 L 793.37,1958.57 L 797.302,1958.6 L 800.92,1960.13 L 804.764,1962.76 L 821.634,1966.18 L 898.43,1966.18 L 914.128,1963.22 L 927.8,1954.43 L 936.93,1941.06 L 940.348,1924.19 L 940.348,1678.1 L 937.396,1662.4 L 928.6,1648.73 L 915.232,1639.6 L 898.372,1636.18 L 821.554,1636.18 L 805.868,1639.14 L 792.196,1647.93 L 783.066,1661.3 L 779.65,1678.16 L 779.65,1785.79 L 778.888,1789.61 L 777.964,1791.34 L 606.732,1962.84 L 592.422,1984.26 L 587.4,2009.51 L 587.4,3254.43 L 592.42,3279.67 L 606.73,3301.09 L 629.812,3324.44 L 631.306,3328.05 L 631.308,3331.95 L 630.738,3333.82 L 628.57,3337.07 L 627.054,3338.31 L 625.326,3339.24 L 621.5,3340 L 130,3340 L 126.172,3339.24 L 122.928,3337.07 L 120.76,3333.82 L 120.192,3331.95 L 120,90 L 120.76,86.172 L 122.928,82.928 L 124.444,81.684 L 126.172,80.76 L 130,80 L 4670,80 L 4673.83,80.76 L 4677.07,82.928 L 4678.31,84.444 L 4679.24,86.172 L 4680,90 L 4680,990 L 4679.51,993.09 L 4678.09,995.876 L 4675.88,998.09 L 4673.09,999.51 L 4670,1000 L 3241,1000 L 3240.14,1000.17 L 3240,1000.92 L 3240,1286.38 L 3239.24,1290.2 L 3238.31,1291.93 L 3235.55,1294.69 L 3233.83,1295.61 L 3230,1296.38 L 3008.54,1296.18 L 3004.94,1294.69 L 3003.42,1293.45 L 2906.55,1196.57 L 2904.38,1193.33 L 2903.81,1191.45 L 2903.62,1046.51 L 2903.82,1044.52 L 2905.37,1040.86 L 2907.71,1038.5 L 2916.93,1025 L 2920.35,1008.12 L 2920.35,812.43 L 2917.4,796.734 L 2908.6,783.064 L 2895.23,773.932 L 2878.37,770.516 L 2801.55,770.516 L 2785.87,773.466 L 2772.2,782.262 L 2763.07,795.63 L 2759.65,812.492 L 2759.65,1008.21 L 2762.6,1023.89 L 2771.4,1037.56 L 2773.5,1039.23 L 2774.72,1040.74 L 2775.63,1042.45 L 2776.38,1046.24 L 2776.38,1219.02 L 2781.4,1244.27 L 2795.71,1265.68 L 2934.31,1404.29 L 2955.73,1418.6 L 2980.98,1423.62 L 3231.95,1423.81 L 3233.83,1424.38 L 3237.07,1426.55 L 3239.24,1429.79 L 3239.81,1431.67 L 3239.81,1488.33 L 3239.24,1490.2 L 3237.07,1493.45 L 3233.83,1495.61 L 3230,1496.38 L 2842.39,1496.38 L 2840.4,1496.18 L 2836.74,1494.63 L 2833.98,1491.79 L 2827.65,1481.96 L 2814.29,1472.83 L 2797.43,1469.41 L 2602.5,1469.41 L 2586.81,1472.36 L 2573.14,1481.16 L 2564.01,1494.53 L 2560.59,1511.39 L 2560.59,1528.12 L 2559.83,1531.95 L 2558.91,1533.68 L 2494.29,1598.56 L 2479.98,1619.98 L 2474.96,1645.23 L 2474.96,1859.02 L 2479.98,1884.27 L 2494.29,1905.68 L 2615.77,2027.43 L 2617.26,2031.04 L 2617.27,2034.94 L 2616.7,2036.82 L 2614.53,2040.06 L 2613.01,2041.31 L 2609.41,2042.8 L 2437.11,2042.99 L 2433.28,2042.23 L 2431.55,2041.31 L 2135.53,1745.55 L 2133.36,1742.31 L 2132.6,1738.48 L 2132.6,609.962 L 2127.58,584.706 L 2113.27,563.292 L 1906.94,356.968 L 1885.53,342.658 L 1863.44,338.264 L 1466.79,338.264 L 1444.71,342.656 L 1423.29,356.966 L 1271.79,508.2 L 1270.06,509.124 L 1266.23,509.886 L 1241.55,509.886 L 1225.87,512.836 L 1212.2,521.632 L 1203.07,535 L 1199.65,551.862 L 1199.65,653.232 L 1196.38,670.658 L 1196.38,1639.79 L 1195.59,1643.68 L 1194.63,1645.43 L 1192.29,1647.8 L 1183.07,1661.3 L 1179.65,1678.16 L 1179.65,1924.27 L 1182.6,1939.95 L 1191.4,1953.62 L 1204.76,1962.76 L 1221.63,1966.18 L 1298.43,1966.18 L 1314.13,1963.22 L 1327.8,1954.43 L 1336.93,1941.06 L 1340.35,1924.19 L 1340.35,1678.1 L 1337.4,1662.4 L 1328.6,1648.73 L 1326.49,1647.06 L 1325.27,1645.55 L 1323.81,1641.98 L 1323.62,1640.05 L 1323.62,796.8 L 1324.39,792.944 L 1326.59,789.686 L 1328.13,788.442 L 1329.88,787.526 L 1334.13,786.53 L 1347.8,777.734 L 1356.93,764.366 L 1360.35,747.494 L 1360.35,604.002 L 1361.11,600.174 L 1363.28,596.93 L 1421.66,538.822 L 1425.26,537.33 L 1429.16,537.33 L 1432.77,538.822 L 1435.53,541.58 L 1437.02,545.186 L 1437.02,549.088 L 1436.45,550.962 L 1421.4,573.838 L 1416.38,599.084 L 1416.18,776.104 L 1414.63,779.762 L 1412.29,782.128 L 1403.07,795.63 L 1399.65,812.492 L 1399.65,1008.21 L 1402.6,1023.89 L 1411.4,1037.56 L 1424.76,1046.69 L 1441.63,1050.11 L 1518.43,1050.11 L 1534.13,1047.16 L 1547.8,1038.36 L 1556.93,1025 L 1560.35,1008.12 L 1560.35,812.43 L 1557.4,796.734 L 1548.6,783.062 L 1546.49,781.396 L 1545.27,779.888 L 1544.37,778.172 L 1543.62,774.384 L 1543.81,626.652 L 1544.38,624.776 L 1546.55,621.532 L 1584.09,584.26 L 1587.7,582.768 L 1589.65,582.576 L 1593.48,583.336 L 1596.72,585.504 L 1597.96,587.02 L 1599.46,590.624 L 1599.65,747.576 L 1602.6,763.262 L 1611.4,776.934 L 1613.5,778.598 L 1614.72,780.108 L 1615.63,781.824 L 1616.38,785.614 L 1616.18,1381.37 L 1615.61,1383.25 L 1613.45,1386.49 L 1415.71,1584.23 L 1401.4,1605.65 L 1396.38,1630.89 L 1396.18,1641.77 L 1394.63,1645.43 L 1392.29,1647.8 L 1383.07,1661.3 L 1379.65,1678.16 L 1379.65,1924.27 L 1382.6,1939.95 L 1391.4,1953.62 L 1404.76,1962.76 L 1421.63,1966.18 L 1498.43,1966.18 L 1514.13,1963.22 L 1527.8,1954.43 L 1536.93,1941.06 L 1540.35,1924.19 L 1540.35,1678.1 L 1537.4,1662.4 L 1533.96,1657.07 L 1532.54,1653.49 L 1532.58,1649.64 L 1533.15,1647.79 L 1535.3,1644.59 L 1724.29,1455.6 L 1738.6,1434.19 L 1743.62,1408.93 L 1743.62,785.878 L 1743.82,783.892 L 1745.37,780.234 L 1747.71,777.868 L 1756.93,764.366 L 1760.35,747.494 L 1760.35,592.576 L 1761.11,588.748 L 1762.03,587.02 L 1764.79,584.26 L 1768.4,582.768 L 1772.3,582.766 L 1775.9,584.26 L 1777.42,585.504 L 1915.81,723.894 L 1917.05,725.408 L 1918.55,729.014 L 1918.55,762.466 L 1917.05,766.07 L 1914.29,768.83 L 1912.57,769.754 L 1908.74,770.516 L 1841.55,770.516 L 1825.87,773.466 L 1812.2,782.262 L 1803.07,795.63 L 1799.65,812.492 L 1799.65,1008.21 L 1802.6,1023.89 L 1811.4,1037.56 L 1824.76,1046.69 L 1841.63,1050.11 L 1910.69,1050.3 L 1912.57,1050.87 L 1915.81,1053.04 L 1917.98,1056.28 L 1918.55,1058.16 L 1918.55,1536.89 L 1917.98,1538.76 L 1915.81,1542.01 L 1757.42,1700.4 L 1754.17,1702.57 L 1750.35,1703.33 L 1746.52,1702.57 L 1743.28,1700.4 L 1742.03,1698.88 L 1740.54,1695.28 L 1740.35,1678.1 L 1737.4,1662.4 L 1728.6,1648.73 L 1715.23,1639.6 L 1698.37,1636.18 L 1621.55,1636.18 L 1605.87,1639.14 L 1592.2,1647.93 L 1583.07,1661.3 L 1579.65,1678.16 L 1579.65,1924.27 L 1582.6,1939.95 L 1591.4,1953.62 L 1604.76,1962.76 L 1621.63,1966.18 L 1698.43,1966.18 L 1714.13,1963.22 L 1727.8,1954.43 L 1736.93,1941.06 L 1740.35,1924.19 L 1740.35,1874.06 L 1741.11,1870.23 L 1743.28,1866.99 L 1744.79,1865.74 L 1748.4,1864.25 L 1770.88,1859.78 L 1792.3,1845.47 L 1988.28,1649.48 L 1991.53,1647.32 L 1995.35,1646.56 L 1997.3,1646.75 L 1999.18,1647.32 L 2002.42,1649.48 L 2004.59,1652.73 L 2005.35,1656.56 L 2005.35,1768 L 2010.37,1793.24 L 2024.68,1814.66 L 2328.15,2118.12 L 2330.32,2121.37 L 2331.08,2125.19 L 2330.32,2129.02 L 2328.15,2132.27 L 2324.9,2134.43 L 2321.08,2135.2 L 1748.4,2135 L 1746.52,2134.43 L 1743.28,2132.27 L 1741.11,2129.02 L 1740.54,2127.15 L 1740.35,2075.74 L 1737.4,2060.04 L 1728.6,2046.37 L 1715.23,2037.24 L 1698.37,2033.82 L 1621.55,2033.82 L 1605.87,2036.77 L 1592.2,2045.57 L 1583.07,2058.94 L 1579.65,2075.8 L 1579.65,2289 L 1578.89,2292.82 L 1576.72,2296.07 L 1573.48,2298.23 L 1569.65,2298.99 L 1565.82,2298.23 L 1562.58,2296.07 L 1543.28,2276.77 L 1541.11,2273.52 L 1540.54,2271.65 L 1540.35,2075.74 L 1537.4,2060.04 L 1528.6,2046.37 L 1515.23,2037.24 L 1498.37,2033.82 L 1421.55,2033.82 L 1405.87,2036.77 L 1392.2,2045.57 L 1383.07,2058.94 L 1379.65,2075.8 L 1379.65,2321.91 L 1382.6,2337.59 L 1391.4,2351.26 L 1404.76,2360.4 L 1421.63,2363.81 L 1446.23,2363.81 L 1450.06,2364.57 L 1451.79,2365.5 L 1512.32,2425.76 L 1514.49,2429.01 L 1515.25,2432.83 L 1515.06,2434.78 L 1513.57,2438.39 L 1510.81,2441.15 L 1507.2,2442.64 L 1426.87,2442.83 L 1423.04,2442.07 L 1419.8,2439.9 L 1335.35,2355.46 L 1334.1,2353.93 L 1332.61,2350.29 L 1332.63,2346.36 L 1333.22,2344.47 L 1336.93,2338.7 L 1340.35,2321.83 L 1340.35,2075.74 L 1337.4,2060.04 L 1328.6,2046.37 L 1315.23,2037.24 L 1298.37,2033.82 L 1221.55,2033.82 L 1205.87,2036.77 L 1192.2,2045.57 L 1183.07,2058.94 L 1179.65,2075.8 L 1179.65,2321.91 L 1182.6,2337.59 L 1191.4,2351.26 L 1193.51,2352.93 L 1195.63,2356.16 L 1196.38,2359.95 L 1196.38,2369.1 L 1201.4,2394.35 L 1215.71,2415.76 L 1350.69,2550.74 L 1372.11,2565.05 L 1397.36,2570.08 L 2339.89,2570.08 L 2343.71,2570.84 L 2345.44,2571.76 L 2346.96,2573.01 L 2349.12,2576.25 L 2349.89,2580.08 L 2349.89,2600.02 L 2352.84,2615.7 L 2361.63,2629.37 L 2375,2638.51 L 2391.87,2641.92 L 2448.19,2641.92 L 2463.89,2638.97 L 2466.12,2637.76 L 2469.93,2637.06 L 2471.86,2637.28 L 2474.83,2638.47 L 2491.87,2641.92 L 2548.19,2641.92 L 2563.89,2638.97 L 2566.12,2637.76 L 2569.93,2637.06 L 2571.86,2637.28 L 2574.83,2638.47 L 2591.87,2641.92 L 2648.19,2641.92 L 2663.89,2638.97 L 2666.12,2637.76 L 2669.93,2637.06 L 2671.86,2637.28 L 2674.83,2638.47 L 2691.87,2641.92 L 2748.19,2641.92 L 2763.89,2638.97 L 2766.12,2637.76 L 2769.93,2637.06 L 2771.86,2637.28 L 2774.83,2638.47 L 2791.87,2641.92 L 2848.19,2641.92 L 2863.89,2638.97 L 2877.56,2630.17 L 2886.69,2616.81 L 2890.11,2599.94 L 2890.3,2554.5 L 2890.87,2552.63 L 2893.04,2549.38 L 2896.28,2547.22 L 2898.16,2546.65 L 3331.95,2546.65 L 3333.83,2547.22 L 3337.07,2549.38 L 3339.24,2552.63 L 3340,2556.46 L 3340,2789.92 L 3525.98,2789.92 L 3525.98,2785.98 L 3648.03,2785.98 L 3648.03,2813.54 L 4151.97,2813.54 L 4151.97,2785.98 L 4274.01,2785.98 L 4274.01,2888.34 L 4151.97,2888.34 L 4151.97,2860.79 L 3648.03,2860.79 L 3648.03,2888.34 L 3525.98,2888.34 L 3525.98,2837.16 L 3340,2837.16 L 3340,2979.76 L 3339.24,2983.59 L 3338.31,2985.32 L 3335.55,2988.08 L 3331.95,2989.57 L 3325.1,2989.76 L 3299.85,2994.78 L 3278.44,3009.09 L 3207.47,3080.06 L 3204.22,3082.23 L 3200.4,3082.99 L 2805.19,3082.99 L 2800,3083.62 L 2540,3083.62 L 2535.39,3083.17 L 2532.67,3082.8 L 2529.06,3081.31 L 2523.3,3076.7 L 2503.3,3056.7 L 2500.07,3052.59 L 2486.55,3039.07 L 2484.38,3035.82 L 2483.62,3032 L 2483.81,2956.08 L 2484.38,2954.2 L 2486.55,2950.96 L 2489.79,2948.79 L 2493.33,2948.06 L 2496.38,2945.01 L 2496.38,2908.03 L 2490.87,2908.03 L 2490.87,2719.05 L 2500,2719.05 L 2500,2685.7 L 2493.36,2679.05 L 2482.9,2679.05 L 2474.53,2682.52 L 2470.67,2683.28 L 2466.81,2682.49 L 2465,2681.49 L 2448.13,2678.07 L 2391.79,2678.07 L 2376.1,2681.03 L 2362.43,2689.82 L 2353.3,2703.19 L 2349.89,2720.05 L 2349.89,2907.1 L 2352.84,2922.79 L 2355.66,2927.51 L 2356.38,2931.23 L 2356.38,3061.51 L 2361.4,3086.76 L 2375.71,3108.17 L 2421.31,3154.05 L 2422.8,3157.65 L 2422.81,3161.56 L 2421.31,3165.16 L 2420.07,3166.68 L 2416.82,3168.84 L 2413,3169.61 L 1328.4,3169.41 L 1326.52,3168.84 L 1323.28,3166.68 L 1321.11,3163.43 L 1320.35,3159.61 L 1320.35,2972.43 L 1317.4,2956.73 L 1308.6,2943.06 L 1306.49,2941.4 L 1305.27,2939.89 L 1304.37,2938.17 L 1303.62,2934.38 L 1303.62,2759.1 L 1298.6,2733.84 L 1284.29,2712.42 L 1126.55,2554.68 L 1124.38,2551.44 L 1123.81,2549.56 L 1123.62,2360.21 L 1123.82,2358.23 L 1125.36,2354.57 L 1127.7,2352.2 L 1136.93,2338.7 L 1140.35,2321.83 L 1140.35,2075.74 L 1137.4,2060.04 L 1128.6,2046.37 L 1115.23,2037.24 L 1098.37,2033.82 L 1021.55,2033.82 L 1005.87,2036.77 L 992.196,2045.57 L 983.066,2058.94 L 979.65,2075.8 L 979.65,2321.91 L 982.6,2337.59 L 991.398,2351.26 L 993.506,2352.93 L 994.724,2354.44 L 995.63,2356.16 L 996.376,2359.95 L 996.376,2577.13 L 1001.4,2602.38 L 1015.71,2623.79 L 1045.71,2653.79 L 1047.88,2657.04 L 1048.64,2660.86 L 1048.45,2662.82 L 1046.95,2666.42 L 1044.19,2669.18 L 1042.46,2670.1 L 1040,2670.73 L 1039.8,2675.31 L 1039.24,2677.19 L 1037.07,2680.43 L 1033.82,2682.6 L 1031.95,2683.17 L 1028.05,2683.17 L 1024.44,2681.68 L 1013.36,2670.87 L 992.672,2670.87 L 977.97,2676.95 L 966.718,2688.2 L 960.628,2702.91 L 960.628,2783.04 L 967.27,2789.68 L 1000.63,2789.68 L 1000.63,2710.87 L 1079.37,2710.87 L 1079.37,2789.68 L 1112.73,2789.68 L 1119.37,2783.04 L 1119.37,2751.6 L 1120.13,2747.77 L 1121.05,2746.04 L 1123.81,2743.28 L 1125.54,2742.36 L 1129.37,2741.6 L 1133.19,2742.36 L 1136.44,2744.52 L 1173.45,2781.53 L 1175.61,2784.78 L 1176.38,2788.6 L 1176.38,2934.12 L 1176.18,2936.1 L 1174.63,2939.76 L 1172.29,2942.13 L 1163.07,2955.63 L 1159.65,2972.49 L 1159.46,3165.46 L 1157.96,3169.06 L 1155.2,3171.82 L 1151.6,3173.31 L 1144.99,3174.63 L 1123.58,3188.94 L 1052.45,3260.06 L 1049.21,3262.23 L 1047.33,3262.8 L 927.07,3262.99 L 921.888,3263.62 L 758.11,3263.62 L 753.5,3263.17 L 750.776,3262.8 L 747.17,3261.31 L 741.406,3256.7 L 720.932,3236.23 L 716.328,3230.46 L 714.836,3226.86 L 714.644,3224.72M 394.744,3234.75 L 417.662,3200.45 L 425.708,3160 L 417.664,3119.55 L 394.746,3085.25 L 360.45,3062.33 L 320,3054.29 L 279.548,3062.33 L 245.252,3085.25 L 222.334,3119.55 L 214.29,3160 L 222.332,3200.45 L 245.25,3234.74 L 279.546,3257.66 L 319.998,3265.71 L 360.448,3257.66 L 394.744,3234.75M 999.65,1008.21 L 1002.6,1023.89 L 1011.4,1037.56 L 1024.76,1046.69 L 1041.63,1050.11 L 1118.43,1050.11 L 1134.13,1047.16 L 1147.8,1038.36 L 1156.93,1025 L 1160.35,1008.12 L 1160.35,812.43 L 1157.4,796.734 L 1148.6,783.064 L 1135.23,773.932 L 1118.37,770.516 L 1041.55,770.516 L 1025.87,773.466 L 1012.2,782.262 L 1003.07,795.63 L 999.65,812.492 L 999.65,1008.21M 394.744,434.746 L 417.662,400.45 L 425.708,360 L 417.66,319.544 L 394.746,285.252 L 360.45,262.334 L 320,254.29 L 279.548,262.332 L 245.252,285.25 L 222.334,319.546 L 214.288,359.998 L 222.332,400.448 L 245.25,434.744 L 279.546,457.662 L 319.998,465.708 L 360.448,457.664 L 394.744,434.746M 4365.25,394.744 L 4399.55,417.662 L 4440,425.708 L 4480.45,417.664 L 4514.74,394.746 L 4537.66,360.45 L 4545.71,320 L 4537.66,279.548 L 4514.75,245.252 L 4480.45,222.334 L 4440,214.29 L 4399.55,222.332 L 4365.25,245.25 L 4342.33,279.546 L 4334.29,319.998 L 4342.33,360.448 L 4365.25,394.744M 1080,1925.19 L 1080,1958.55 L 1086.64,1965.2 L 1107.32,1965.2 L 1122.03,1959.11 L 1133.28,1947.85 L 1139.37,1933.15 L 1139.37,1827.82 L 1132.73,1821.18 L 1099.37,1821.18 L 1099.37,1925.19 L 1080,1925.19M 840.63,629.684 L 840.63,550.866 L 860,550.866 L 860,517.508 L 853.358,510.866 L 832.672,510.866 L 817.97,516.954 L 806.718,528.204 L 800.628,542.906 L 800.628,623.042 L 807.27,629.684 L 840.63,629.684M 2600,2719.05 L 2600,2685.7 L 2593.36,2679.05 L 2582.91,2679.05 L 2573.83,2682.82 L 2570,2683.58 L 2566.17,2682.82 L 2557.09,2679.05 L 2546.64,2679.05 L 2540,2685.69 L 2540,2719.05 L 2549.13,2719.05 L 2549.13,2793.54 L 2590.87,2793.54 L 2590.87,2719.05 L 2600,2719.05M 2679.37,669.684 L 2679.37,748.502 L 2660,748.502 L 2660,781.86 L 2666.64,788.502 L 2687.32,788.502 L 2702.03,782.412 L 2713.28,771.162 L 2719.37,756.456 L 2719.37,676.326 L 2712.73,669.684 L 2679.37,669.684M 2679.37,629.684 L 2712.73,629.684 L 2719.37,623.04 L 2719.37,542.912 L 2713.28,528.206 L 2702.03,516.956 L 2687.33,510.866 L 2666.64,510.866 L 2660,517.506 L 2660,550.866 L 2679.37,550.866 L 2679.37,629.684M 1083.62,1677.17 L 1099.37,1677.17 L 1099.37,1781.18 L 1132.73,1781.18 L 1139.37,1774.54 L 1139.37,1669.21 L 1133.28,1654.51 L 1122.03,1643.25 L 1107.33,1637.16 L 1086.64,1637.16 L 1083.62,1640.18 L 1083.62,1677.17M 1036.38,1640.18 L 1033.36,1637.16 L 1012.67,1637.16 L 997.97,1643.25 L 986.718,1654.5 L 980.628,1669.2 L 980.628,1774.54 L 987.27,1781.18 L 1020.63,1781.18 L 1020.63,1677.17 L 1036.38,1677.17 L 1036.38,1640.18M 761.258,2964.55 L 761.258,3176.76 L 762.6,3183.89 L 771.396,3197.56 L 784.764,3206.69 L 801.634,3210.11 L 878.434,3210.11 L 894.128,3207.16 L 907.798,3198.36 L 916.93,3185 L 920.348,3168.12 L 920.348,2972.43 L 917.396,2956.73 L 908.598,2943.06 L 906.492,2941.4 L 905.272,2939.89 L 904.366,2938.17 L 903.622,2934.38 L 903.622,2371.13 L 903.816,2369.17 L 905.33,2365.54 L 908.124,2362.78 L 909.872,2361.86 L 914.128,2360.86 L 927.8,2352.06 L 936.93,2338.7 L 940.348,2321.83 L 940.348,2075.74 L 937.396,2060.04 L 928.6,2046.37 L 915.232,2037.24 L 906.32,2035.43 L 813,2035.43 L 805.868,2036.77 L 792.196,2045.57 L 783.066,2058.94 L 779.65,2075.8 L 779.65,2202.37 L 776.376,2219.79 L 776.376,2934.12 L 776.176,2936.1 L 774.63,2939.76 L 772.288,2942.13 L 763.066,2955.63 L 761.258,2964.55M 1016.38,2945.48 L 1016.38,2908.5 L 1000.63,2908.5 L 1000.63,2829.68 L 967.268,2829.68 L 960.628,2836.32 L 960.628,2916.46 L 966.716,2931.16 L 977.968,2942.41 L 992.674,2948.5 L 1013.36,2948.5 L 1016.38,2945.48M 1063.62,2945.48 L 1066.64,2948.5 L 1087.32,2948.5 L 1102.03,2942.41 L 1113.28,2931.16 L 1119.37,2916.46 L 1119.37,2836.33 L 1112.73,2829.68 L 1079.37,2829.68 L 1079.37,2908.5 L 1063.62,2908.5 L 1063.62,2945.48M 1014.03,1965.2 L 1033.36,1965.2 L 1040,1958.55 L 1040,1939.23 L 1014.03,1965.2M 1020.63,1891.79 L 1020.63,1821.18 L 987.268,1821.18 L 980.628,1827.82 L 980.628,1931.79 L 1020.63,1891.79M 933.402,629.684 L 952.726,629.684 L 959.37,623.04 L 959.37,603.718 L 933.402,629.684M 903.622,785.482 L 906.642,788.502 L 927.32,788.502 L 942.026,782.412 L 953.278,771.162 L 959.37,756.456 L 959.37,676.326 L 952.728,669.684 L 919.37,669.684 L 919.37,748.502 L 903.622,748.502 L 903.622,785.482M 856.378,748.502 L 840.63,748.502 L 840.63,669.684 L 807.268,669.684 L 800.628,676.324 L 800.628,756.458 L 806.716,771.16 L 817.968,782.41 L 832.674,788.502 L 853.356,788.502 L 856.378,785.48 L 856.378,748.502M 919.37,576.904 L 957.612,538.666 L 953.28,528.206 L 942.028,516.956 L 927.326,510.866 L 906.64,510.866 L 900,517.506 L 900,550.866 L 919.37,550.866 L 919.37,576.904M 2849.13,2789.92 L 2886.11,2789.92 L 2889.13,2786.9 L 2889.13,2711.1 L 2883.04,2696.4 L 2871.79,2685.14 L 2857.09,2679.05 L 2846.64,2679.05 L 2840,2685.69 L 2840,2719.05 L 2849.13,2719.05 L 2849.13,2789.92M 2886.11,2837.16 L 2849.13,2837.16 L 2849.13,2908.03 L 2843.62,2908.03 L 2843.62,2945.01 L 2846.64,2948.03 L 2857.08,2948.03 L 2871.79,2941.94 L 2883.04,2930.69 L 2889.13,2915.98 L 2889.13,2840.18 L 2886.11,2837.16M 2596.38,2945.01 L 2596.38,2908.03 L 2590.87,2908.03 L 2590.87,2833.54 L 2549.13,2833.54 L 2549.13,2908.03 L 2543.62,2908.03 L 2543.62,2945.01 L 2546.64,2948.03 L 2557.09,2948.03 L 2566.17,2944.27 L 2570,2943.51 L 2573.82,2944.27 L 2582.91,2948.03 L 2593.36,2948.03 L 2596.38,2945.01M 2643.62,2945.01 L 2646.64,2948.03 L 2657.09,2948.03 L 2665.46,2944.56 L 2669.33,2943.8 L 2673.19,2944.59 L 2675,2945.59 L 2691.87,2949.01 L 2748.2,2949.01 L 2763.89,2946.06 L 2766.78,2944.42 L 2770.55,2943.71 L 2774.31,2944.47 L 2782.91,2948.03 L 2793.36,2948.03 L 2796.38,2945.01 L 2796.38,2908.03 L 2790.87,2908.03 L 2790.87,2719.05 L 2800,2719.05 L 2800,2685.7 L 2793.36,2679.05 L 2782.9,2679.05 L 2774.53,2682.52 L 2770.67,2683.28 L 2766.81,2682.49 L 2765,2681.49 L 2748.13,2678.07 L 2691.79,2678.07 L 2676.1,2681.03 L 2673.21,2682.67 L 2669.44,2683.37 L 2665.69,2682.61 L 2657.09,2679.05 L 2646.64,2679.05 L 2640,2685.69 L 2640,2719.05 L 2649.13,2719.05 L 2649.13,2908.03 L 2643.62,2908.03 L 2643.62,2945.01M 2563.65,626.062 L 2600.63,626.062 L 2600.63,550.866 L 2620,550.866 L 2620,517.508 L 2613.36,510.866 L 2592.67,510.866 L 2577.97,516.954 L 2566.72,528.204 L 2560.63,542.906 L 2560.63,623.042 L 2563.65,626.062M 2600.63,673.306 L 2563.65,673.306 L 2560.63,676.324 L 2560.63,756.458 L 2566.72,771.16 L 2577.97,782.41 L 2592.67,788.502 L 2613.36,788.502 L 2620,781.858 L 2620,748.502 L 2600.63,748.502 L 2600.63,673.306 z " style="fill-opacity:1.000000;fill:rgb(90,37,93);stroke:rgb(0,0,0);stroke-width:2"/></g>
<g fill-rule="evenodd"><path d="M 1499.37,2289.43 L 1586.32,2376.38 L 2279.66,2376.38 L 2323.77,2332.27 L 2327.35,2329.33 L 2331.43,2327.15 L 2335.86,2325.81 L 2340.47,2325.35 L 2504.25,2325.35 L 2508.86,2325.81 L 2513.29,2327.15 L 2517.37,2329.33 L 2520.95,2332.27 L 2536.7,2348.02 L 2539.64,2351.6 L 2541.82,2355.68 L 2543.17,2360.11 L 2543.62,2364.72 L 2543.62,2411.97 L 2549.13,2411.97 L 2549.13,2600.94 L 2490.87,2600.94 L 2490.87,2411.97 L 2496.38,2411.97 L 2496.38,2374.51 L 2494.47,2372.6 L 2350.25,2372.6 L 2306.15,2416.7 L 2302.57,2419.64 L 2298.49,2421.82 L 2294.06,2423.17 L 2289.45,2423.62 L 1576.53,2423.62 L 1571.92,2423.17 L 1567.49,2421.82 L 1563.41,2419.64 L 1559.83,2416.7 L 1465.96,2322.83 L 1420.63,2322.83 L 1420.63,2074.8 L 1499.37,2074.8 L 1499.37,2289.43 z " style="fill-opacity:1.000000;fill:rgb(5,23,88);stroke:rgb(0,0,0);stroke-width:2"/></g>
<g fill-rule="evenodd"><path d="M 2704.08,1738.74 L 2709.56,1736.83 L 2714.17,1736.38 L 3344.17,1736.38 L 3344.17,1716.69 L 3706.38,1716.69 L 3706.38,1803.31 L 3344.17,1803.31 L 3344.17,1783.62 L 2798.42,1783.62 L 2798.42,1809.6 L 2601.58,1809.6 L 2601.58,1738.74 L 2704.08,1738.74 z " style="fill-opacity:1.000000;fill:rgb(233,94,212);stroke:rgb(0,0,0);stroke-width:2"/></g>
<g fill-rule="evenodd"><path d="M 3344.17,1336.38 L 3344.17,1316.69 L 3706.38,1316.69 L 3706.38,1403.31 L 3344.17,1403.31 L 3344.17,1383.62 L 2980,1383.62 L 2975.39,1383.17 L 2970.96,1381.82 L 2966.87,1379.64 L 2963.3,1376.7 L 2823.3,1236.7 L 2820.36,1233.12 L 2818.17,1229.04 L 2816.83,1224.61 L 2816.38,1220 L 2816.38,1009.13 L 2800.63,1009.13 L 2800.63,811.496 L 2879.37,811.496 L 2879.37,1009.13 L 2863.62,1009.13 L 2863.62,1210.22 L 2989.78,1336.38 L 3344.17,1336.38 z " style="fill-opacity:1.000000;fill:rgb(171,178,205);stroke:rgb(0,0,0);stroke-width:2"/></g>
</svg>
