<?xml version="1.0" standalone="no"?>
<!DOCTYPE svg PUBLIC "-//W3C//DTD SVG 1.1//EN"
"http://www.w3.org/Graphics/SVG/1.1/DTD/svg11.dtd">
<svg width="4822" height="3482" viewBox="0 0 4822 3482" version="1.1"
xmlns="http://www.w3.org/2000/svg"
xmlns:xlink="http://www.w3.org/1999/xlink">
<g fill-rule="evenodd"><path d="M 0.190824,3482 L 0.190824,-9.09495e-13 L 4821.81,-9.09495e-13 L 4821.81,3482 L 0.190824,3482 z " style="fill-opacity:0.300000;fill:rgb(103,198,105);"/></g>
<g fill-rule="evenodd"><path d="M 4790.32,-9.09495e-13 L 4796.46,0.603828 L 4802.37,2.39532 L 4807.82,5.30649 L 4812.59,9.22137 L 4816.5,13.992 L 4819.41,19.4365 L 4821.2,25.3428 L 4821.81,31.487 L 4821.81,3450.51 L 4821.2,3456.66 L 4819.41,3462.56 L 4816.5,3468.01 L 4812.59,3472.78 L 4807.82,3476.69 L 4802.37,3479.6 L 4796.46,3481.39 L 4790.32,3482 L 31.6779,3482 L 25.5336,3481.39 L 19.6273,3479.6 L 14.1828,3476.69 L 9.4122,3472.78 L 5.49731,3468.01 L 2.58614,3462.56 L 0.794652,3456.66 L 0.190824,3450.51 L 0.190824,31.487 L 0.794652,25.3428 L 2.58614,19.4365 L 5.49731,13.992 L 9.4122,9.22137 L 14.1828,5.30649 L 19.6273,2.39532 L 25.5336,0.603828 L 31.6779,-9.09495e-13 L 4790.32,-9.09495e-13M 377.459,3179.06 L 374.498,3173.94 L 370.535,3169.54 L 365.749,3166.06 L 360.336,3163.65 L 354.544,3162.42 L 348.626,3162.42 L 342.833,3163.65 L 337.425,3166.06 L 332.632,3169.54 L 328.671,3173.94 L 325.71,3179.06 L 323.883,3184.69 L 323.263,3190.59 L 323.881,3196.47 L 325.71,3202.1 L 328.671,3207.23 L 332.632,3211.63 L 337.425,3215.11 L 342.833,3217.52 L 348.626,3218.75 L 354.544,3218.75 L 360.336,3217.52 L 365.749,3215.11 L 370.535,3211.63 L 374.498,3207.23 L 377.459,3202.1 L 379.289,3196.47 L 379.909,3190.59 L 379.289,3184.69 L 377.459,3179.06M 377.459,379.864 L 374.498,374.735 L 370.535,370.334 L 365.749,366.855 L 360.336,364.446 L 354.544,363.217 L 348.626,363.217 L 342.833,364.446 L 337.425,366.855 L 332.632,370.336 L 328.671,374.735 L 325.71,379.864 L 323.883,385.49 L 323.263,391.384 L 323.881,397.273 L 325.71,402.901 L 328.671,408.03 L 332.632,412.429 L 337.425,415.91 L 342.833,418.319 L 348.626,419.55 L 354.544,419.55 L 360.336,418.319 L 365.749,415.91 L 370.535,412.431 L 374.498,408.03 L 377.459,402.901 L 379.289,397.271 L 379.909,391.384 L 379.289,385.492 L 377.459,379.864M 4447.46,3182.41 L 4441.66,3183.64 L 4436.26,3186.05 L 4431.46,3189.53 L 4427.5,3193.93 L 4424.54,3199.06 L 4422.71,3204.69 L 4422.09,3210.58 L 4422.71,3216.47 L 4424.54,3222.1 L 4427.5,3227.23 L 4431.46,3231.63 L 4436.26,3235.11 L 4441.66,3237.52 L 4447.46,3238.75 L 4453.37,3238.75 L 4459.17,3237.52 L 4464.58,3235.11 L 4469.37,3231.63 L 4473.33,3227.23 L 4476.29,3222.1 L 4478.12,3216.47 L 4478.74,3210.58 L 4478.12,3204.69 L 4476.29,3199.06 L 4473.33,3193.93 L 4469.37,3189.53 L 4464.58,3186.05 L 4459.17,3183.64 L 4453.37,3182.41 L 4447.46,3182.41M 4484.58,326.867 L 4479.16,324.458 L 4473.37,323.228 L 4467.45,323.228 L 4461.66,324.458 L 4456.25,326.867 L 4451.46,330.348 L 4447.5,334.747 L 4444.54,339.875 L 4442.71,345.502 L 4442.09,351.396 L 4442.71,357.284 L 4444.54,362.913 L 4447.5,368.041 L 4451.46,372.44 L 4456.25,375.921 L 4461.66,378.33 L 4467.45,379.562 L 4473.37,379.562 L 4479.16,378.33 L 4484.58,375.921 L 4489.36,372.442 L 4493.32,368.041 L 4496.29,362.913 L 4498.12,357.282 L 4498.74,351.396 L 4498.12,345.504 L 4496.29,339.875 L 4493.32,334.747 L 4489.36,330.346 L 4484.58,326.867 z " style="fill-opacity:0.600000;fill:rgb(103,198,105);stroke:rgb(0,0,0);stroke-width:2"/></g>
<g fill-rule="evenodd"><path d="M 31.6779,31.487 L 4790.32,31.487 L 4790.32,3450.51 L 31.6779,3450.51 L 31.6779,31.487M 411.57,3190.59 L 410.258,3178.11 L 406.383,3166.19 L 400.113,3155.33 L 391.721,3146.01 L 381.578,3138.64 L 370.121,3133.54 L 357.855,3130.93 L 345.317,3130.93 L 333.05,3133.54 L 321.595,3138.64 L 311.45,3146.01 L 303.059,3155.33 L 296.788,3166.19 L 292.913,3178.11 L 291.604,3190.59 L 292.913,3203.06 L 296.788,3214.98 L 303.059,3225.84 L 311.45,3235.16 L 321.595,3242.53 L 333.05,3247.63 L 345.317,3250.24 L 357.855,3250.24 L 370.121,3247.63 L 381.578,3242.53 L 391.721,3235.16 L 400.113,3225.84 L 406.383,3214.98 L 410.258,3203.06 L 411.57,3190.59M 4510.4,3210.58 L 4509.09,3198.11 L 4505.21,3186.18 L 4498.94,3175.32 L 4490.55,3166 L 4480.41,3158.63 L 4468.95,3153.53 L 4456.69,3150.93 L 4444.15,3150.93 L 4431.88,3153.53 L 4420.43,3158.63 L 4410.28,3166 L 4401.89,3175.32 L 4395.62,3186.18 L 4391.74,3198.11 L 4390.43,3210.58 L 4391.74,3223.05 L 4395.62,3234.98 L 4401.89,3245.84 L 4410.28,3255.16 L 4420.43,3262.53 L 4431.88,3267.63 L 4444.15,3270.23 L 4456.69,3270.23 L 4468.95,3267.63 L 4480.41,3262.53 L 4490.55,3255.16 L 4498.94,3245.84 L 4505.21,3234.98 L 4509.09,3223.05 L 4510.4,3210.58M 411.57,391.384 L 410.258,378.912 L 406.383,366.985 L 400.113,356.127 L 391.721,346.807 L 381.578,339.437 L 370.121,334.337 L 357.855,331.729 L 345.317,331.729 L 333.05,334.337 L 321.595,339.437 L 311.45,346.807 L 303.059,356.127 L 296.788,366.985 L 292.913,378.912 L 291.604,391.384 L 292.913,403.855 L 296.788,415.782 L 303.059,426.64 L 311.45,435.96 L 321.595,443.33 L 333.05,448.43 L 345.317,451.038 L 357.855,451.038 L 370.121,448.43 L 381.578,443.33 L 391.721,435.96 L 400.113,426.64 L 406.383,415.782 L 410.258,403.855 L 411.57,391.384M 4530.4,351.396 L 4529.08,338.923 L 4525.21,326.997 L 4518.94,316.138 L 4510.55,306.819 L 4500.4,299.449 L 4488.95,294.348 L 4476.68,291.741 L 4464.14,291.741 L 4451.88,294.348 L 4440.42,299.449 L 4430.28,306.819 L 4421.89,316.138 L 4415.61,326.997 L 4411.74,338.923 L 4410.43,351.396 L 4411.74,363.866 L 4415.61,375.793 L 4421.89,386.652 L 4430.28,395.971 L 4440.42,403.341 L 4451.88,408.442 L 4464.14,411.049 L 4476.68,411.049 L 4488.95,408.442 L 4500.4,403.341 L 4510.55,395.971 L 4518.94,386.652 L 4525.21,375.793 L 4529.08,363.866 L 4530.4,351.396 z " style="fill-opacity:1.000000;fill:rgb(103,198,105);stroke:rgb(0,0,0);stroke-width:2"/></g>
</svg>
